<?xml version="1.0" encoding="UTF-8"?>
<svg xmlns="http://www.w3.org/2000/svg" xmlns:xlink="http://www.w3.org/1999/xlink" width="32px" height="32px" viewBox="0 0 32 32" version="1.1">
<g id="surface1">
<path style=" stroke:none;fill-rule:nonzero;fill:rgb(96.470588%,97.254902%,91.37255%);fill-opacity:1;" d="M 24.210938 3.507812 C 24.320312 3.585938 24.429688 3.65625 24.539062 3.730469 C 25.710938 4.519531 26.796875 5.5 27.628906 6.648438 C 27.769531 6.839844 27.914062 7.019531 28.066406 7.203125 C 28.683594 7.949219 29.117188 8.777344 29.503906 9.664062 C 29.554688 9.78125 29.554688 9.78125 29.605469 9.898438 C 29.949219 10.722656 30.175781 11.570312 30.347656 12.449219 C 30.359375 12.496094 30.367188 12.546875 30.378906 12.597656 C 30.578125 13.683594 30.617188 14.761719 30.617188 15.859375 C 30.617188 15.96875 30.617188 15.96875 30.617188 16.078125 C 30.613281 17.203125 30.566406 18.289062 30.335938 19.390625 C 30.320312 19.460938 30.308594 19.527344 30.292969 19.59375 C 29.914062 21.34375 29.292969 23.070312 28.238281 24.53125 C 28.160156 24.640625 28.085938 24.75 28.007812 24.863281 C 27.632812 25.417969 27.199219 25.90625 26.730469 26.386719 C 26.632812 26.488281 26.535156 26.589844 26.441406 26.691406 C 26.019531 27.125 25.574219 27.488281 25.089844 27.839844 C 25.023438 27.886719 24.957031 27.9375 24.886719 27.984375 C 24.039062 28.589844 23.148438 29.089844 22.199219 29.515625 C 22.09375 29.5625 21.992188 29.609375 21.890625 29.660156 C 21.414062 29.886719 20.921875 30.054688 20.414062 30.207031 C 20.34375 30.230469 20.269531 30.253906 20.195312 30.277344 C 17.964844 30.902344 15.394531 30.925781 13.121094 30.527344 C 13.03125 30.515625 12.941406 30.5 12.851562 30.488281 C 10.722656 30.144531 8.757812 29.183594 7.039062 27.902344 C 6.988281 27.867188 6.9375 27.832031 6.886719 27.796875 C 6.835938 27.753906 6.835938 27.753906 6.785156 27.710938 C 6.785156 27.667969 6.785156 27.628906 6.785156 27.585938 C 6.75 27.570312 6.714844 27.554688 6.679688 27.539062 C 6.488281 27.433594 6.328125 27.304688 6.160156 27.167969 C 6.066406 27.089844 6.066406 27.089844 5.96875 27.015625 C 5.921875 26.96875 5.875 26.925781 5.824219 26.878906 C 5.824219 26.835938 5.824219 26.796875 5.824219 26.753906 C 5.789062 26.734375 5.75 26.71875 5.710938 26.703125 C 5.1875 26.414062 4.816406 25.839844 4.460938 25.371094 C 4.34375 25.21875 4.222656 25.074219 4.09375 24.929688 C 3.902344 24.707031 3.746094 24.472656 3.59375 24.21875 C 3.566406 24.175781 3.539062 24.132812 3.507812 24.085938 C 3.425781 23.949219 3.34375 23.816406 3.265625 23.679688 C 3.226562 23.621094 3.226562 23.621094 3.191406 23.558594 C 1.703125 21.085938 1.082031 17.769531 1.34375 14.910156 C 1.347656 14.863281 1.351562 14.8125 1.355469 14.761719 C 1.386719 14.40625 1.429688 14.050781 1.472656 13.695312 C 1.476562 13.648438 1.484375 13.601562 1.488281 13.550781 C 1.710938 11.78125 2.242188 9.992188 3.136719 8.449219 C 3.1875 8.347656 3.242188 8.246094 3.296875 8.144531 C 3.488281 7.796875 3.730469 7.484375 3.96875 7.167969 C 4.003906 7.121094 4.039062 7.070312 4.078125 7.019531 C 4.335938 6.679688 4.613281 6.367188 4.902344 6.058594 C 5.035156 5.910156 5.164062 5.765625 5.292969 5.617188 C 5.652344 5.203125 6.039062 4.847656 6.46875 4.507812 C 6.613281 4.386719 6.75 4.265625 6.886719 4.140625 C 7.207031 3.859375 7.558594 3.628906 7.910156 3.394531 C 7.980469 3.351562 8.050781 3.304688 8.121094 3.257812 C 8.3125 3.132812 8.507812 3.003906 8.703125 2.878906 C 8.746094 2.851562 8.789062 2.824219 8.835938 2.792969 C 13.355469 -0.101562 19.949219 0.523438 24.210938 3.507812 Z M 24.210938 3.507812 "/>
<path style=" stroke:none;fill-rule:nonzero;fill:rgb(75.686276%,61.176473%,56.862748%);fill-opacity:1;" d="M 17.535156 6.847656 C 17.535156 6.867188 17.535156 6.890625 17.535156 6.910156 C 16.988281 6.910156 16.4375 6.910156 15.871094 6.910156 C 15.871094 6.953125 15.871094 6.996094 15.871094 7.039062 C 15.824219 7.054688 15.777344 7.070312 15.726562 7.085938 C 15.519531 7.15625 15.3125 7.226562 15.105469 7.296875 C 15.019531 7.324219 15.019531 7.324219 14.933594 7.351562 C 14.484375 7.515625 14.132812 7.769531 13.761719 8.0625 C 13.695312 8.113281 13.632812 8.164062 13.566406 8.214844 C 13.21875 8.492188 13.21875 8.492188 12.914062 8.816406 C 12.859375 8.886719 12.859375 8.886719 12.800781 8.960938 C 12.757812 8.960938 12.714844 8.960938 12.671875 8.960938 C 12.65625 8.996094 12.636719 9.035156 12.621094 9.070312 C 12.539062 9.226562 12.441406 9.351562 12.332031 9.488281 C 11.441406 10.617188 11.222656 11.804688 11.347656 13.21875 C 11.414062 13.699219 11.546875 14.136719 11.710938 14.59375 C 11.738281 14.671875 11.769531 14.753906 11.796875 14.835938 C 11.824219 14.917969 11.851562 15 11.878906 15.085938 C 11.917969 15.195312 11.917969 15.195312 11.957031 15.3125 C 12.011719 15.496094 12.011719 15.496094 12.160156 15.550781 C 12.167969 15.5 12.171875 15.449219 12.179688 15.398438 C 12.257812 14.804688 12.375 14.226562 12.511719 13.644531 C 12.566406 13.40625 12.621094 13.167969 12.671875 12.929688 C 12.714844 12.929688 12.757812 12.929688 12.800781 12.929688 C 12.792969 12.851562 12.792969 12.851562 12.789062 12.769531 C 12.800781 12.488281 12.875 12.257812 12.96875 11.992188 C 12.984375 11.941406 13.003906 11.890625 13.019531 11.839844 C 13.167969 11.414062 13.351562 11.019531 13.566406 10.625 C 13.609375 10.625 13.652344 10.625 13.695312 10.625 C 13.695312 10.539062 13.695312 10.453125 13.695312 10.367188 C 13.738281 10.367188 13.78125 10.367188 13.824219 10.367188 C 13.828125 10.335938 13.835938 10.300781 13.839844 10.265625 C 13.90625 10.054688 14.015625 9.882812 14.132812 9.695312 C 14.175781 9.625 14.21875 9.550781 14.265625 9.476562 C 14.386719 9.300781 14.503906 9.167969 14.65625 9.023438 C 14.722656 8.945312 14.789062 8.867188 14.855469 8.789062 C 14.894531 8.742188 14.9375 8.699219 14.976562 8.652344 C 15.105469 8.515625 15.105469 8.515625 15.214844 8.363281 C 15.824219 7.675781 16.925781 7.578125 17.796875 7.519531 C 18.707031 7.488281 19.539062 7.640625 20.351562 8.0625 C 20.402344 8.089844 20.453125 8.117188 20.507812 8.144531 C 21.246094 8.53125 21.980469 8.953125 22.585938 9.535156 C 22.71875 9.667969 22.71875 9.667969 22.882812 9.789062 C 23.375 10.195312 24.042969 11.128906 24.128906 11.777344 C 24.171875 11.777344 24.210938 11.777344 24.257812 11.777344 C 25.019531 13.503906 25.269531 15.679688 24.894531 17.535156 C 24.875 17.535156 24.855469 17.535156 24.832031 17.535156 C 24.832031 17.488281 24.832031 17.441406 24.832031 17.394531 C 24.824219 16.085938 24.824219 16.085938 24.449219 14.847656 C 24.414062 14.773438 24.382812 14.695312 24.347656 14.617188 C 24.105469 14.09375 23.804688 13.675781 23.425781 13.246094 C 23.367188 13.179688 23.3125 13.109375 23.261719 13.039062 C 22.820312 12.542969 22.269531 12.171875 21.734375 11.785156 C 21.65625 11.730469 21.578125 11.667969 21.503906 11.609375 C 20.566406 10.960938 19.199219 10.988281 18.125 11.183594 C 17.898438 11.238281 17.6875 11.308594 17.472656 11.390625 C 17.402344 11.417969 17.332031 11.445312 17.257812 11.472656 C 16.992188 11.582031 16.730469 11.695312 16.472656 11.828125 C 16.320312 11.902344 16.320312 11.902344 16.191406 11.902344 C 16.191406 11.96875 16.191406 12.03125 16.191406 12.097656 C 16.25 12.097656 16.3125 12.101562 16.371094 12.105469 C 17.097656 12.148438 17.796875 12.226562 18.5 12.429688 C 18.71875 12.488281 18.941406 12.53125 19.164062 12.570312 C 19.753906 12.6875 20.304688 12.828125 20.808594 13.167969 C 20.929688 13.25 21.054688 13.320312 21.183594 13.386719 C 22.03125 13.855469 22.875 14.34375 23.488281 15.105469 C 23.53125 15.152344 23.574219 15.199219 23.617188 15.25 C 23.765625 15.453125 23.839844 15.65625 23.910156 15.890625 C 23.925781 15.933594 23.9375 15.976562 23.953125 16.019531 C 24.042969 16.308594 24.125 16.601562 24.191406 16.894531 C 24.214844 16.960938 24.234375 17.023438 24.257812 17.089844 C 24.355469 18.691406 24.019531 19.835938 23.296875 21.246094 C 23.253906 21.246094 23.210938 21.246094 23.167969 21.246094 C 23.167969 21.332031 23.167969 21.417969 23.167969 21.503906 C 23.125 21.503906 23.082031 21.503906 23.039062 21.503906 C 23.035156 21.539062 23.027344 21.578125 23.023438 21.613281 C 22.964844 21.792969 22.875 21.902344 22.757812 22.046875 C 22.589844 22.25 22.589844 22.25 22.460938 22.472656 C 22.359375 22.675781 22.199219 22.777344 22.015625 22.910156 C 21.972656 22.910156 21.929688 22.910156 21.886719 22.910156 C 21.871094 22.964844 21.871094 22.964844 21.851562 23.019531 C 21.722656 23.230469 21.539062 23.355469 21.339844 23.5 C 21.277344 23.546875 21.277344 23.546875 21.210938 23.59375 C 20.515625 24.085938 19.765625 24.476562 18.945312 24.703125 C 18.875 24.726562 18.875 24.726562 18.800781 24.746094 C 18.5 24.832031 18.230469 24.84375 17.921875 24.832031 C 17.921875 24.875 17.921875 24.917969 17.921875 24.960938 C 17.023438 25.113281 16.136719 25.101562 15.230469 25.089844 C 15.230469 25.023438 15.230469 24.960938 15.230469 24.894531 C 15.273438 24.894531 15.316406 24.894531 15.359375 24.894531 C 16.246094 24.859375 17.109375 24.53125 17.855469 24.0625 C 17.921875 24.023438 17.988281 23.984375 18.054688 23.945312 C 18.464844 23.683594 18.773438 23.417969 19.070312 23.039062 C 19.21875 22.878906 19.21875 22.878906 19.328125 22.785156 C 19.371094 22.785156 19.414062 22.785156 19.457031 22.785156 C 19.472656 22.75 19.488281 22.710938 19.503906 22.675781 C 19.597656 22.503906 19.707031 22.359375 19.824219 22.203125 C 20.601562 21.144531 20.910156 19.925781 20.714844 18.617188 C 20.609375 18.097656 20.417969 17.597656 20.234375 17.101562 C 20.15625 16.886719 20.09375 16.667969 20.03125 16.449219 C 19.96875 16.449219 19.90625 16.449219 19.839844 16.449219 C 19.832031 16.53125 19.824219 16.613281 19.816406 16.695312 C 19.78125 17.015625 19.722656 17.328125 19.660156 17.644531 C 19.648438 17.699219 19.636719 17.753906 19.625 17.8125 C 19.515625 18.34375 19.378906 18.863281 19.203125 19.375 C 19.164062 19.492188 19.128906 19.609375 19.097656 19.730469 C 18.984375 20.125 18.832031 20.46875 18.636719 20.828125 C 18.609375 20.878906 18.578125 20.933594 18.550781 20.988281 C 18.46875 21.136719 18.386719 21.289062 18.304688 21.441406 C 18.261719 21.515625 18.222656 21.59375 18.179688 21.667969 C 18.058594 21.898438 17.9375 22.121094 17.792969 22.335938 C 17.75 22.335938 17.707031 22.335938 17.664062 22.335938 C 17.648438 22.382812 17.636719 22.425781 17.621094 22.472656 C 17.515625 22.703125 17.390625 22.855469 17.214844 23.039062 C 17.171875 23.039062 17.132812 23.039062 17.089844 23.039062 C 17.070312 23.078125 17.054688 23.117188 17.035156 23.15625 C 16.820312 23.554688 16.425781 23.734375 16.019531 23.894531 C 15.871094 23.9375 15.871094 23.9375 15.617188 23.9375 C 15.617188 23.976562 15.617188 24.019531 15.617188 24.0625 C 14.707031 24.292969 13.710938 24.398438 12.800781 24.128906 C 12.730469 24.109375 12.730469 24.109375 12.660156 24.089844 C 12.511719 24.042969 12.367188 23.992188 12.222656 23.9375 C 12.164062 23.914062 12.105469 23.894531 12.046875 23.871094 C 11.605469 23.699219 11.214844 23.480469 10.816406 23.222656 C 10.625 23.101562 10.625 23.101562 10.425781 23.003906 C 9.128906 22.351562 8.195312 20.980469 7.625 19.691406 C 7.605469 19.652344 7.585938 19.609375 7.570312 19.566406 C 7.410156 19.195312 7.296875 18.839844 7.296875 18.433594 C 7.253906 18.433594 7.210938 18.433594 7.167969 18.433594 C 6.996094 17.578125 6.957031 16.738281 6.957031 15.867188 C 6.957031 15.816406 6.957031 15.765625 6.957031 15.714844 C 6.953125 15.113281 6.976562 14.542969 7.105469 13.953125 C 7.125 13.953125 7.144531 13.953125 7.167969 13.953125 C 7.167969 14.003906 7.167969 14.058594 7.164062 14.113281 C 7.164062 14.3125 7.164062 14.515625 7.167969 14.71875 C 7.167969 14.839844 7.167969 14.964844 7.167969 15.089844 C 7.195312 16.375 7.769531 17.6875 8.675781 18.597656 C 8.832031 18.753906 8.832031 18.753906 8.949219 18.902344 C 9.097656 19.082031 9.253906 19.21875 9.4375 19.363281 C 9.496094 19.410156 9.554688 19.460938 9.617188 19.507812 C 9.703125 19.578125 9.703125 19.578125 9.792969 19.648438 C 9.847656 19.691406 9.902344 19.738281 9.957031 19.785156 C 10.097656 19.894531 10.234375 19.980469 10.390625 20.0625 C 10.566406 20.15625 10.734375 20.253906 10.898438 20.359375 C 11.890625 20.910156 13.277344 20.753906 14.335938 20.480469 C 14.515625 20.429688 14.679688 20.363281 14.847656 20.289062 C 14.964844 20.238281 15.078125 20.1875 15.195312 20.136719 C 15.316406 20.085938 15.433594 20.035156 15.554688 19.980469 C 15.742188 19.902344 15.742188 19.902344 15.871094 19.902344 C 15.871094 19.839844 15.871094 19.777344 15.871094 19.710938 C 15.792969 19.714844 15.710938 19.714844 15.628906 19.71875 C 15.273438 19.71875 14.9375 19.667969 14.589844 19.605469 C 14.523438 19.59375 14.460938 19.582031 14.394531 19.570312 C 13.921875 19.484375 13.476562 19.363281 13.023438 19.210938 C 12.816406 19.140625 12.613281 19.089844 12.398438 19.039062 C 11.625 18.851562 10.855469 18.496094 10.238281 17.984375 C 10.175781 17.949219 10.109375 17.914062 10.039062 17.875 C 9.308594 17.46875 8.429688 16.765625 8.191406 15.9375 C 8.160156 15.785156 8.140625 15.640625 8.128906 15.488281 C 8.085938 15.488281 8.042969 15.488281 8 15.488281 C 7.992188 15.414062 7.980469 15.34375 7.972656 15.269531 C 7.960938 15.050781 7.960938 15.050781 7.871094 14.976562 C 7.730469 13.992188 7.695312 12.882812 8.128906 11.96875 C 8.15625 11.878906 8.183594 11.785156 8.210938 11.695312 C 8.328125 11.335938 8.515625 11.015625 8.703125 10.6875 C 8.730469 10.640625 8.757812 10.59375 8.785156 10.542969 C 8.84375 10.441406 8.902344 10.339844 8.960938 10.238281 C 9.003906 10.238281 9.042969 10.238281 9.089844 10.238281 C 9.101562 10.191406 9.113281 10.140625 9.125 10.089844 C 9.308594 9.625 9.617188 9.230469 9.984375 8.894531 C 10.019531 8.859375 10.054688 8.820312 10.09375 8.78125 C 10.175781 8.703125 10.175781 8.703125 10.304688 8.703125 C 10.304688 8.660156 10.304688 8.621094 10.304688 8.574219 C 10.429688 8.488281 10.558594 8.402344 10.6875 8.320312 C 10.710938 8.277344 10.730469 8.234375 10.753906 8.191406 C 10.914062 8.152344 10.914062 8.152344 11.070312 8.128906 C 11.070312 8.085938 11.070312 8.042969 11.070312 8 C 11.164062 7.945312 11.257812 7.894531 11.351562 7.839844 C 11.402344 7.808594 11.457031 7.78125 11.507812 7.75 C 11.648438 7.679688 11.648438 7.679688 11.777344 7.679688 C 11.777344 7.636719 11.777344 7.59375 11.777344 7.550781 C 12.40625 7.277344 13.023438 7.082031 13.695312 6.941406 C 13.828125 6.910156 13.960938 6.878906 14.089844 6.84375 C 15.152344 6.585938 16.472656 6.613281 17.535156 6.847656 Z M 17.535156 6.847656 "/>
<path style=" stroke:none;fill-rule:nonzero;fill:rgb(96.078432%,96.470588%,91.37255%);fill-opacity:1;" d="M 16.023438 14.183594 C 16.078125 14.183594 16.132812 14.179688 16.1875 14.179688 C 16.542969 14.175781 16.738281 14.230469 17.023438 14.464844 C 17.070312 14.496094 17.117188 14.53125 17.164062 14.566406 C 17.570312 14.898438 17.75 15.195312 17.824219 15.714844 C 17.859375 16.257812 17.773438 16.589844 17.421875 17.007812 C 17.234375 17.195312 17.0625 17.339844 16.832031 17.472656 C 16.789062 17.472656 16.746094 17.472656 16.703125 17.472656 C 16.703125 17.515625 16.703125 17.554688 16.703125 17.601562 C 16.304688 17.734375 15.785156 17.734375 15.378906 17.613281 C 14.929688 17.382812 14.535156 16.976562 14.335938 16.511719 C 14.25 16.234375 14.253906 15.96875 14.273438 15.679688 C 14.273438 15.605469 14.277344 15.53125 14.28125 15.453125 C 14.402344 14.976562 14.777344 14.617188 15.167969 14.335938 C 15.453125 14.171875 15.703125 14.183594 16.023438 14.183594 Z M 16.023438 14.183594 "/>
<path style=" stroke:none;fill-rule:nonzero;fill:rgb(80.784315%,71.372551%,66.274512%);fill-opacity:1;" d="M 16.894531 24.640625 C 16.894531 24.722656 16.894531 24.808594 16.894531 24.894531 C 17.234375 24.894531 17.570312 24.894531 17.921875 24.894531 C 17.921875 24.917969 17.921875 24.9375 17.921875 24.960938 C 17.023438 25.113281 16.136719 25.101562 15.230469 25.089844 C 15.230469 25.023438 15.230469 24.960938 15.230469 24.894531 C 15.300781 24.894531 15.300781 24.894531 15.371094 24.890625 C 15.820312 24.867188 16.195312 24.78125 16.613281 24.625 C 16.769531 24.574219 16.769531 24.574219 16.894531 24.640625 Z M 16.894531 24.640625 "/>
<path style=" stroke:none;fill-rule:nonzero;fill:rgb(77.64706%,70.588237%,65.882355%);fill-opacity:1;" d="M 24.832031 14.015625 C 24.851562 14.015625 24.875 14.015625 24.894531 14.015625 C 25.015625 15.195312 25.132812 16.363281 24.894531 17.535156 C 24.875 17.535156 24.855469 17.535156 24.832031 17.535156 C 24.832031 17.484375 24.828125 17.433594 24.828125 17.382812 C 24.820312 17.15625 24.8125 16.925781 24.804688 16.695312 C 24.800781 16.617188 24.800781 16.539062 24.796875 16.457031 C 24.792969 16.378906 24.789062 16.300781 24.789062 16.222656 C 24.785156 16.152344 24.785156 16.082031 24.78125 16.011719 C 24.769531 15.8125 24.742188 15.621094 24.703125 15.425781 C 24.746094 15.425781 24.789062 15.425781 24.832031 15.425781 C 24.832031 14.960938 24.832031 14.496094 24.832031 14.015625 Z M 24.832031 14.015625 "/>
<path style=" stroke:none;fill-rule:nonzero;fill:rgb(76.47059%,70.980394%,65.882355%);fill-opacity:1;" d="M 7.105469 13.953125 C 7.125 13.953125 7.144531 13.953125 7.167969 13.953125 C 7.167969 14.003906 7.167969 14.058594 7.164062 14.113281 C 7.160156 14.828125 7.167969 15.550781 7.296875 16.257812 C 7.191406 16.257812 7.085938 16.257812 6.976562 16.257812 C 6.949219 14.582031 6.949219 14.582031 7.105469 13.953125 Z M 7.105469 13.953125 "/>
<path style=" stroke:none;fill-rule:nonzero;fill:rgb(73.725492%,67.058825%,62.352943%);fill-opacity:1;" d="M 15.742188 6.785156 C 15.996094 6.78125 16.246094 6.777344 16.496094 6.777344 C 16.566406 6.773438 16.636719 6.773438 16.710938 6.773438 C 16.8125 6.773438 16.8125 6.773438 16.917969 6.773438 C 16.980469 6.769531 17.046875 6.769531 17.109375 6.769531 C 17.28125 6.785156 17.28125 6.785156 17.535156 6.910156 C 16.921875 6.933594 16.3125 6.953125 15.679688 6.976562 C 15.699219 6.914062 15.722656 6.847656 15.742188 6.785156 Z M 15.742188 6.785156 "/>
<path style=" stroke:none;fill-rule:nonzero;fill:rgb(73.333335%,63.921571%,59.215689%);fill-opacity:1;" d="M 16.449219 24.769531 C 16.640625 24.832031 16.640625 24.832031 16.640625 24.832031 Z M 16.449219 24.832031 C 16.449219 24.894531 16.449219 24.957031 16.449219 25.023438 C 16.046875 25.023438 15.644531 25.023438 15.230469 25.023438 C 15.230469 24.980469 15.230469 24.941406 15.230469 24.894531 C 15.636719 24.859375 16.039062 24.824219 16.449219 24.832031 Z M 16.449219 24.832031 "/>
<path style=" stroke:none;fill-rule:nonzero;fill:rgb(77.254903%,67.058825%,62.352943%);fill-opacity:1;" d="M 7.105469 14.847656 C 7.125 14.847656 7.144531 14.847656 7.167969 14.847656 C 7.171875 14.917969 7.175781 14.988281 7.179688 15.058594 C 7.183594 15.152344 7.191406 15.242188 7.195312 15.335938 C 7.199219 15.382812 7.199219 15.425781 7.203125 15.472656 C 7.21875 15.738281 7.246094 15.996094 7.296875 16.257812 C 7.191406 16.257812 7.085938 16.257812 6.976562 16.257812 C 7.019531 15.792969 7.058594 15.328125 7.105469 14.847656 Z M 7.105469 14.847656 "/>
<path style=" stroke:none;fill-rule:nonzero;fill:rgb(92.156863%,86.666667%,81.568629%);fill-opacity:1;" d="M 11.390625 20.542969 C 11.480469 20.542969 11.570312 20.542969 11.660156 20.539062 C 11.710938 20.539062 11.757812 20.539062 11.8125 20.539062 C 11.96875 20.542969 11.96875 20.542969 12.113281 20.574219 C 12.347656 20.621094 12.582031 20.632812 12.820312 20.644531 C 12.867188 20.648438 12.914062 20.648438 12.964844 20.652344 C 13.078125 20.660156 13.195312 20.664062 13.3125 20.671875 C 13.3125 20.691406 13.3125 20.714844 13.3125 20.734375 C 13.089844 20.738281 12.863281 20.742188 12.640625 20.742188 C 12.546875 20.746094 12.546875 20.746094 12.449219 20.746094 C 12.074219 20.75 11.753906 20.71875 11.390625 20.609375 C 11.390625 20.585938 11.390625 20.566406 11.390625 20.542969 Z M 11.390625 20.542969 "/>
<path style=" stroke:none;fill-rule:nonzero;fill:rgb(77.254903%,67.450982%,63.137257%);fill-opacity:1;" d="M 17.726562 16.449219 C 17.792969 16.640625 17.792969 16.640625 17.71875 16.824219 C 17.558594 17.09375 17.410156 17.304688 17.101562 17.394531 C 17.054688 17.398438 17.007812 17.402344 16.960938 17.40625 C 17.003906 17.367188 17.046875 17.328125 17.09375 17.289062 C 17.34375 17.039062 17.53125 16.738281 17.726562 16.449219 Z M 17.726562 16.449219 "/>
<path style=" stroke:none;fill-rule:nonzero;fill:rgb(84.705883%,81.960785%,77.64706%);fill-opacity:1;" d="M 14.207031 24.832031 C 14.34375 24.832031 14.476562 24.828125 14.613281 24.828125 C 14.6875 24.828125 14.761719 24.828125 14.839844 24.824219 C 15.039062 24.832031 15.039062 24.832031 15.230469 24.894531 C 15.230469 24.9375 15.230469 24.980469 15.230469 25.023438 C 15.085938 25.015625 14.9375 25.007812 14.792969 25 C 14.710938 24.996094 14.628906 24.992188 14.542969 24.988281 C 14.335938 24.960938 14.335938 24.960938 14.207031 24.832031 Z M 14.207031 24.832031 "/>
<path style=" stroke:none;fill-rule:nonzero;fill:rgb(93.725491%,89.411765%,83.92157%);fill-opacity:1;" d="M 12.609375 9.089844 C 12.648438 9.171875 12.691406 9.257812 12.734375 9.34375 C 12.695312 9.34375 12.652344 9.34375 12.609375 9.34375 C 12.59375 9.382812 12.582031 9.421875 12.566406 9.460938 C 12.449219 9.652344 12.300781 9.703125 12.097656 9.792969 C 12.183594 9.601562 12.285156 9.453125 12.425781 9.296875 C 12.457031 9.257812 12.492188 9.21875 12.527344 9.175781 C 12.566406 9.132812 12.566406 9.132812 12.609375 9.089844 Z M 12.609375 9.089844 "/>
<path style=" stroke:none;fill-rule:nonzero;fill:rgb(77.64706%,69.01961%,63.137257%);fill-opacity:1;" d="M 10.753906 8.191406 C 10.792969 8.191406 10.835938 8.191406 10.878906 8.191406 C 10.800781 8.425781 10.773438 8.496094 10.558594 8.640625 C 10.496094 8.640625 10.433594 8.640625 10.367188 8.640625 C 10.347656 8.679688 10.332031 8.71875 10.3125 8.761719 C 10.238281 8.894531 10.238281 8.894531 10.113281 9.023438 C 10.070312 8.980469 10.027344 8.941406 9.984375 8.894531 C 10.070312 8.800781 10.070312 8.800781 10.175781 8.703125 C 10.21875 8.703125 10.261719 8.703125 10.304688 8.703125 C 10.304688 8.660156 10.304688 8.621094 10.304688 8.574219 C 10.429688 8.488281 10.558594 8.402344 10.6875 8.320312 C 10.710938 8.277344 10.730469 8.234375 10.753906 8.191406 Z M 10.753906 8.191406 "/>
<path style=" stroke:none;fill-rule:nonzero;fill:rgb(77.254903%,69.411767%,63.921571%);fill-opacity:1;" d="M 15.742188 7.9375 C 15.785156 7.957031 15.828125 7.976562 15.871094 8 C 15.585938 8.292969 15.289062 8.570312 14.976562 8.832031 C 14.933594 8.8125 14.890625 8.789062 14.847656 8.769531 C 15.449219 8.152344 15.449219 8.152344 15.742188 7.9375 Z M 15.742188 7.9375 "/>
<path style=" stroke:none;fill-rule:nonzero;fill:rgb(92.941177%,87.843138%,83.137256%);fill-opacity:1;" d="M 13.441406 8.257812 C 13.441406 8.449219 13.441406 8.449219 13.359375 8.550781 C 13.324219 8.585938 13.292969 8.617188 13.257812 8.652344 C 13.222656 8.6875 13.1875 8.71875 13.152344 8.753906 C 13.054688 8.832031 13.054688 8.832031 12.929688 8.832031 C 12.90625 8.894531 12.886719 8.957031 12.863281 9.023438 C 12.800781 9.046875 12.738281 9.066406 12.671875 9.089844 C 12.671875 8.960938 12.671875 8.960938 12.804688 8.816406 C 13.007812 8.621094 13.222656 8.4375 13.441406 8.257812 Z M 13.441406 8.257812 "/>
<path style=" stroke:none;fill-rule:nonzero;fill:rgb(96.862745%,93.333334%,88.627452%);fill-opacity:1;" d="M 14.335938 9.40625 C 14.242188 9.671875 14.113281 9.886719 13.953125 10.113281 C 13.929688 10.113281 13.910156 10.113281 13.886719 10.113281 C 13.917969 9.707031 13.917969 9.707031 14.074219 9.507812 C 14.207031 9.40625 14.207031 9.40625 14.335938 9.40625 Z M 14.335938 9.40625 "/>
<path style=" stroke:none;fill-rule:nonzero;fill:rgb(92.54902%,87.843138%,82.352942%);fill-opacity:1;" d="M 23.039062 21.503906 C 23.082031 21.503906 23.125 21.503906 23.167969 21.503906 C 22.898438 22.210938 22.898438 22.210938 22.59375 22.398438 C 22.550781 22.378906 22.507812 22.359375 22.464844 22.335938 C 22.519531 22.269531 22.519531 22.269531 22.574219 22.203125 C 22.621094 22.144531 22.667969 22.085938 22.714844 22.027344 C 22.785156 21.941406 22.785156 21.941406 22.859375 21.855469 C 22.984375 21.699219 22.984375 21.699219 23.039062 21.503906 Z M 23.039062 21.503906 "/>
<path style=" stroke:none;fill-rule:nonzero;fill:rgb(93.333334%,88.627452%,82.745099%);fill-opacity:1;" d="M 22.273438 22.59375 C 22.3125 22.65625 22.355469 22.71875 22.398438 22.785156 C 22.210938 22.933594 22.019531 23.078125 21.824219 23.230469 C 21.78125 23.210938 21.738281 23.191406 21.695312 23.167969 C 21.886719 22.976562 22.078125 22.785156 22.273438 22.59375 Z M 22.273438 22.59375 "/>
<path style=" stroke:none;fill-rule:nonzero;fill:rgb(92.941177%,88.235295%,83.137256%);fill-opacity:1;" d="M 18.367188 21.246094 C 18.390625 21.289062 18.410156 21.332031 18.433594 21.375 C 18.375 21.523438 18.375 21.523438 18.289062 21.695312 C 18.246094 21.78125 18.246094 21.78125 18.203125 21.867188 C 18.113281 22.015625 18.113281 22.015625 17.921875 22.144531 C 18.011719 21.804688 18.175781 21.539062 18.367188 21.246094 Z M 18.367188 21.246094 "/>
<path style=" stroke:none;fill-rule:nonzero;fill:rgb(77.254903%,67.843139%,63.921571%);fill-opacity:1;" d="M 14.398438 9.28125 C 14.464844 9.535156 14.464844 9.535156 14.398438 9.664062 C 14.359375 9.664062 14.316406 9.664062 14.273438 9.664062 C 14.273438 9.75 14.273438 9.832031 14.273438 9.921875 C 14.167969 9.960938 14.0625 10.003906 13.953125 10.046875 C 14.101562 9.792969 14.246094 9.542969 14.398438 9.28125 Z M 14.398438 9.28125 "/>
<path style=" stroke:none;fill-rule:nonzero;fill:rgb(76.47059%,66.274512%,61.960787%);fill-opacity:1;" d="M 12.351562 14.335938 C 12.445312 14.523438 12.5 14.652344 12.542969 14.847656 C 12.460938 14.910156 12.375 14.976562 12.289062 15.039062 C 12.308594 14.808594 12.332031 14.574219 12.351562 14.335938 Z M 12.351562 14.335938 "/>
<path style=" stroke:none;fill-rule:nonzero;fill:rgb(79.215688%,70.980394%,66.274512%);fill-opacity:1;" d="M 20.03125 12.863281 C 20.515625 12.984375 20.515625 12.984375 20.671875 13.183594 C 20.484375 13.183594 20.339844 13.175781 20.160156 13.121094 C 20.074219 12.988281 20.074219 12.988281 20.03125 12.863281 Z M 20.03125 12.863281 "/>
<path style=" stroke:none;fill-rule:nonzero;fill:rgb(80.392158%,71.764708%,67.450982%);fill-opacity:1;" d="M 7.871094 14.65625 C 7.933594 14.65625 8 14.65625 8.0625 14.65625 C 8.0625 14.929688 8.0625 15.207031 8.0625 15.488281 C 8.042969 15.488281 8.023438 15.488281 8 15.488281 C 7.992188 15.414062 7.980469 15.34375 7.972656 15.269531 C 7.960938 15.050781 7.960938 15.050781 7.871094 14.976562 C 7.871094 14.871094 7.871094 14.761719 7.871094 14.65625 Z M 7.871094 14.65625 "/>
<path style=" stroke:none;fill-rule:nonzero;fill:rgb(76.47059%,67.843139%,62.7451%);fill-opacity:1;" d="M 13.054688 11.777344 C 13.078125 11.777344 13.097656 11.777344 13.121094 11.777344 C 13.140625 12.164062 13.140625 12.164062 13.121094 12.289062 C 13.054688 12.332031 12.992188 12.371094 12.929688 12.414062 C 12.984375 11.921875 12.984375 11.921875 13.054688 11.777344 Z M 13.054688 11.777344 "/>
<path style=" stroke:none;fill-rule:nonzero;fill:rgb(92.941177%,85.09804%,79.215688%);fill-opacity:1;" d="M 16.320312 11.839844 C 16.363281 11.859375 16.40625 11.882812 16.449219 11.902344 C 16.425781 11.96875 16.40625 12.03125 16.382812 12.097656 C 16.53125 12.097656 16.679688 12.097656 16.832031 12.097656 C 16.832031 12.117188 16.832031 12.136719 16.832031 12.160156 C 16.335938 12.167969 16.335938 12.167969 16.191406 12.097656 C 16.191406 12.03125 16.191406 11.96875 16.191406 11.902344 C 16.234375 11.882812 16.277344 11.863281 16.320312 11.839844 Z M 16.320312 11.839844 "/>
<path style=" stroke:none;fill-rule:nonzero;fill:rgb(90.980393%,85.882354%,80.784315%);fill-opacity:1;" d="M 19.390625 18.496094 C 19.414062 18.496094 19.433594 18.496094 19.457031 18.496094 C 19.464844 18.984375 19.464844 18.984375 19.390625 19.199219 C 19.351562 19.199219 19.308594 19.199219 19.265625 19.199219 C 19.328125 18.722656 19.328125 18.722656 19.390625 18.496094 Z M 19.390625 18.496094 "/>
</g>
</svg>
