<?xml version="1.0" encoding="UTF-8"?>
<svg version="1.1" xmlns="http://www.w3.org/2000/svg" width="500" height="500">
<path d="M0 0 C1.68943441 1.17785546 3.39336675 2.3312346 5.10302734 3.47949219 C23.40189359 15.81897795 40.41274353 31.10400012 53.39599609 49.04199219 C55.57684598 52.02670483 57.8721563 54.85630536 60.23120117 57.69897461 C69.89475773 69.40970489 76.62547347 82.30268303 82.68505859 96.17480469 C83.47396484 97.98078125 83.47396484 97.98078125 84.27880859 99.82324219 C89.6675591 112.71775233 93.18915295 125.97344207 95.87255859 139.67480469 C96.02740723 140.45549316 96.18225586 141.23618164 96.34179688 142.04052734 C99.48873156 158.98055551 100.09139896 175.79679574 100.06005859 192.98730469 C100.05924286 194.67299057 100.05924286 194.67299057 100.05841064 196.39273071 C100.01935804 213.96874381 99.311471 230.92262048 95.68505859 248.17480469 C95.46543457 249.22506836 95.24581055 250.27533203 95.01953125 251.35742188 C89.09785192 278.69018381 79.40073531 305.6775414 62.90136719 328.47607422 C61.67661031 330.1866038 60.49977432 331.9226769 59.32958984 333.67089844 C53.44549549 342.35326025 46.67317602 349.94602692 39.36181641 357.45117188 C37.828917 359.02692461 36.31374442 360.61763174 34.80224609 362.21386719 C28.2694163 368.97525079 21.2786992 374.67970443 13.68505859 380.17480469 C12.65638672 380.92503906 11.62771484 381.67527344 10.56787109 382.44824219 C-2.68885918 391.87010785 -16.64257071 399.67361766 -31.46533203 406.3359375 C-33.08634662 407.07112838 -34.69406785 407.83548568 -36.29931641 408.60449219 C-43.74244701 412.14988872 -51.43881505 414.78287026 -59.31494141 417.17480469 C-60.44544922 417.52542969 -61.57595703 417.87605469 -62.74072266 418.23730469 C-97.63798001 428.00090893 -137.75713608 428.39554916 -173.31494141 422.17480469 C-174.70773167 421.96484108 -176.10094237 421.75764056 -177.49462891 421.55371094 C-210.7621053 416.16531687 -241.4929678 401.17203535 -268.31494141 381.17480469 C-269.10255859 380.62695312 -269.89017578 380.07910156 -270.70166016 379.51464844 C-271.50023437 378.85142578 -271.50023437 378.85142578 -272.31494141 378.17480469 C-272.31494141 377.51480469 -272.31494141 376.85480469 -272.31494141 376.17480469 C-272.85634766 375.93761719 -273.39775391 375.70042969 -273.95556641 375.45605469 C-276.94744278 373.83132712 -279.4265354 371.82461699 -282.06494141 369.67480469 C-283.54220703 368.48371094 -283.54220703 368.48371094 -285.04931641 367.26855469 C-285.79697266 366.57761719 -286.54462891 365.88667969 -287.31494141 365.17480469 C-287.31494141 364.51480469 -287.31494141 363.85480469 -287.31494141 363.17480469 C-287.89115234 362.92214844 -288.46736328 362.66949219 -289.06103516 362.40917969 C-297.25765041 357.92021882 -303.05223644 348.90894338 -308.63916016 341.60449219 C-310.4600689 339.22817243 -312.36113543 336.96187691 -314.34228516 334.71777344 C-317.35567239 331.2343462 -319.80006846 327.5418635 -322.18994141 323.61230469 C-322.61629883 322.91830566 -323.04265625 322.22430664 -323.48193359 321.50927734 C-324.76887473 319.40324279 -326.04370772 317.29035025 -327.31494141 315.17480469 C-327.87713379 314.24643799 -327.87713379 314.24643799 -328.45068359 313.29931641 C-351.72504015 274.6672668 -361.40938565 222.81745482 -357.31494141 178.17480469 C-357.24758789 177.39685547 -357.18023437 176.61890625 -357.11083984 175.81738281 C-356.61955759 170.25561065 -356.0039022 164.71534195 -355.31494141 159.17480469 C-355.22519043 158.42827637 -355.13543945 157.68174805 -355.04296875 156.91259766 C-351.60663018 129.28347269 -343.25086417 101.32838882 -329.31494141 77.17480469 C-328.48070074 75.59194923 -327.64724203 74.00868112 -326.81494141 72.42480469 C-323.78426207 67.01433017 -320.04826981 62.11428535 -316.31494141 57.17480469 C-315.74775391 56.41167969 -315.18056641 55.64855469 -314.59619141 54.86230469 C-310.59281758 49.57482983 -306.22675151 44.68608358 -301.73291016 39.81152344 C-299.65649255 37.54725545 -297.63136384 35.25295726 -295.62744141 32.92480469 C-289.98687428 26.47283348 -283.95701943 20.93360323 -277.25634766 15.58105469 C-274.99839423 13.73391085 -272.85148875 11.84743608 -270.69384766 9.88964844 C-265.69912247 5.50004095 -260.2379949 1.88550136 -254.68994141 -1.76269531 C-253.61599121 -2.46998779 -252.54204102 -3.17728027 -251.43554688 -3.90600586 C-248.40302375 -5.89124266 -245.36187366 -7.86216472 -242.31494141 -9.82519531 C-241.63625 -10.26573242 -240.95755859 -10.70626953 -240.25830078 -11.16015625 C-169.65444677 -56.38696787 -66.59074612 -46.66129183 0 0 Z " fill="#F6F8E9" transform="translate(378.31494140625,54.8251953125)"/>
<path d="M0 0 C0 0.33 0 0.66 0 1 C-8.58 1 -17.16 1 -26 1 C-26 1.66 -26 2.32 -26 3 C-26.75023437 3.24234375 -27.50046875 3.4846875 -28.2734375 3.734375 C-31.52418731 4.79885227 -34.76310055 5.89415535 -38 7 C-39.30517578 7.433125 -39.30517578 7.433125 -40.63671875 7.875 C-47.66474132 10.41006772 -53.16372516 14.39582763 -59 19 C-59.99 19.7734375 -60.98 20.546875 -62 21.34375 C-67.47431323 25.66768971 -67.47431323 25.66768971 -72.19140625 30.76953125 C-73.08666016 31.87361328 -73.08666016 31.87361328 -74 33 C-74.66 33 -75.32 33 -76 33 C-76.26167969 33.57234375 -76.52335937 34.1446875 -76.79296875 34.734375 C-78.0848863 37.15933351 -79.58264524 39.11740744 -81.3125 41.25 C-95.2108396 58.91786856 -98.63186989 77.47827669 -96.6875 99.546875 C-95.68236857 107.04946318 -93.58466716 113.90760275 -91 121 C-90.5639399 122.27520095 -90.13045473 123.5512846 -89.69921875 124.828125 C-89.25828959 126.11474693 -88.81689106 127.40120812 -88.375 128.6875 C-87.76785156 130.45673828 -87.76785156 130.45673828 -87.1484375 132.26171875 C-86.29850793 135.12235296 -86.29850793 135.12235296 -84 136 C-83.90203125 135.19820312 -83.8040625 134.39640625 -83.703125 133.5703125 C-82.4848446 124.30718049 -80.61949645 115.29865733 -78.5078125 106.20458984 C-77.64870457 102.47490492 -76.82503562 98.73734552 -76 95 C-75.34 95 -74.68 95 -74 95 C-74.08121094 93.78183594 -74.08121094 93.78183594 -74.1640625 92.5390625 C-73.96020519 88.14156904 -72.80340979 84.5129164 -71.375 80.375 C-71.10864746 79.58754395 -70.84229492 78.80008789 -70.56787109 77.98876953 C-68.25666739 71.34761303 -65.40577823 65.15938616 -62 59 C-61.34 59 -60.68 59 -60 59 C-60 57.68 -60 56.36 -60 55 C-59.34 55 -58.68 55 -58 55 C-57.91363281 54.4740625 -57.82726562 53.948125 -57.73828125 53.40625 C-56.73178403 50.12581461 -54.99200765 47.38852223 -53.1875 44.5 C-52.50042969 43.3759375 -51.81335938 42.251875 -51.10546875 41.09375 C-49.23771755 38.34929926 -47.40023273 36.26446199 -45 34 C-43.94887244 32.77891401 -42.90722121 31.54960934 -41.875 30.3125 C-41.24980469 29.62027344 -40.62460938 28.92804688 -39.98046875 28.21484375 C-37.97779157 26.03286542 -37.97779157 26.03286542 -36.23828125 23.69140625 C-26.73478986 12.95698645 -9.51304595 11.39129696 4.05859375 10.49609375 C18.29160606 9.98659933 31.26843875 12.41391003 44 19 C44.80050781 19.40734375 45.60101563 19.8146875 46.42578125 20.234375 C57.97779263 26.32699137 69.43890025 32.89677431 78.88671875 41.9921875 C81.00108944 44.0703342 81.00108944 44.0703342 83.53125 45.94921875 C91.20613121 52.32471342 101.67568221 66.8904191 103 77 C103.66 77 104.32 77 105 77 C116.95863634 103.97054152 120.82851549 138.01354349 115 167 C114.67 167 114.34 167 114 167 C113.99589111 166.26064209 113.99178223 165.52128418 113.98754883 164.75952148 C113.89540307 144.33286682 113.89540307 144.33286682 108 125 C107.48179687 123.80503906 106.96359375 122.61007813 106.4296875 121.37890625 C102.65995931 113.23454001 97.92289264 106.69837574 92 100 C91.14198419 98.91971269 90.28704571 97.83696085 89.4375 96.75 C82.557594 88.98805477 73.96190273 83.17044278 65.58032227 77.15356445 C64.35534595 76.25938663 63.16094963 75.32324177 61.98046875 74.37109375 C47.3519006 64.24362349 26.01454761 64.68554895 9.22265625 67.73828125 C5.68985933 68.62421484 2.38938179 69.67334804 -1 71 C-2.1034375 71.42023438 -3.206875 71.84046875 -4.34375 72.2734375 C-8.52673321 73.94866136 -12.61250472 75.76274338 -16.625 77.8125 C-19 79 -19 79 -21 79 C-21 79.99 -21 80.98 -21 82 C-20.06800781 82.04898438 -19.13601562 82.09796875 -18.17578125 82.1484375 C-6.82975052 82.81382656 4.10612113 84.03025724 15.05859375 87.21875 C18.49418829 88.13125851 21.94369724 88.78352268 25.4375 89.4375 C34.65082632 91.24458534 43.26298013 93.43151101 51.10546875 98.734375 C53.02073448 100.01385149 54.96947853 101.10149605 57 102.1875 C70.26811927 109.47919685 83.39196672 117.12721602 93 129 C93.67289062 129.75539062 94.34578125 130.51078125 95.0390625 131.2890625 C97.32563805 134.45018487 98.49389851 137.62670119 99.625 141.3125 C99.83737305 141.97604492 100.04974609 142.63958984 100.26855469 143.32324219 C101.6980253 147.84657477 102.93377479 152.37969075 104 157 C104.33 157.99 104.66 158.98 105 160 C106.55816337 185.072027 101.28512986 202.93379075 90 225 C89.34 225 88.68 225 88 225 C88 226.32 88 227.64 88 229 C87.34 229 86.68 229 86 229 C85.90589844 229.5671875 85.81179688 230.134375 85.71484375 230.71875 C84.83131033 233.53833206 83.43695624 235.22415292 81.5625 237.5 C78.99333064 240.62927019 78.99333064 240.62927019 76.96484375 244.109375 C75.33882477 247.29558224 72.84056173 248.8695787 70 251 C69.34 251 68.68 251 68 251 C67.70802734 251.82951172 67.70802734 251.82951172 67.41015625 252.67578125 C65.39866902 255.99111338 62.53387303 257.95699163 59.4375 260.1875 C58.44689575 260.90498413 58.44689575 260.90498413 57.4362793 261.63696289 C46.56548629 269.31488216 34.86657708 275.46608429 22 279 C20.89591797 279.33451172 20.89591797 279.33451172 19.76953125 279.67578125 C15.04773032 281.0183436 10.85660715 281.17345026 6 281 C6 281.66 6 282.32 6 283 C-7.98538955 285.3661082 -21.85263919 285.2105262 -36 285 C-36 284.01 -36 283.02 -36 282 C-35.34257812 281.99742187 -34.68515625 281.99484375 -34.0078125 281.9921875 C-20.17788325 281.42999525 -6.65494201 276.32395147 5 269 C6.01835937 268.38125 7.03671875 267.7625 8.0859375 267.125 C14.48274276 263.08158729 19.32442131 258.9197803 24 253 C26.3125 250.5 26.3125 250.5 28 249 C28.66 249 29.32 249 30 249 C30.25265625 248.44441406 30.5053125 247.88882813 30.765625 247.31640625 C32.19475001 244.63453558 33.91130259 242.35702624 35.75 239.9375 C47.87258746 223.37069717 52.74388206 204.34759412 49.68359375 183.88427734 C48.02676319 175.78712117 45.03690597 167.9458631 42.1484375 160.21875 C40.94216078 156.8378928 39.95228751 153.45968674 39 150 C38.01 150 37.02 150 36 150 C35.87238281 151.28519531 35.74476563 152.57039062 35.61328125 153.89453125 C35.05658085 158.88338581 34.18378431 163.76960964 33.1875 168.6875 C33.01299316 169.55455566 32.83848633 170.42161133 32.65869141 171.31494141 C30.94577697 179.61268538 28.77846481 187.72438591 26.0703125 195.7578125 C25.46779188 197.5829662 24.88553455 199.41609556 24.37573242 201.26928711 C22.65640036 207.44916745 20.27235927 212.82528615 17.1875 218.4375 C16.74535156 219.25863281 16.30320312 220.07976562 15.84765625 220.92578125 C14.57320484 223.28836077 13.28728565 225.64439728 12 228 C11.35961587 229.18823076 10.72015967 230.37696255 10.08203125 231.56640625 C8.15510222 235.13955119 6.25282665 238.62076003 4 242 C3.34 242 2.68 242 2 242 C1.773125 242.70125 1.54625 243.4025 1.3125 244.125 C-0.33841288 247.74128535 -2.2908835 250.08769976 -5 253 C-5.66 253 -6.32 253 -7 253 C-7.268125 253.598125 -7.53625 254.19625 -7.8125 254.8125 C-11.18352283 261.0222789 -17.32478924 263.87857977 -23.66796875 266.3359375 C-26 267 -26 267 -30 267 C-30 267.66 -30 268.32 -30 269 C-44.19793761 272.56540137 -59.73864097 274.22558786 -74 270 C-75.07507813 269.690625 -75.07507813 269.690625 -76.171875 269.375 C-78.48018018 268.65467782 -80.73557374 267.84823785 -83 267 C-83.91523438 266.66226562 -84.83046875 266.32453125 -85.7734375 265.9765625 C-92.65816934 263.28410832 -98.79742688 259.85729647 -104.9921875 255.8671875 C-107.96509024 253.9561972 -107.96509024 253.9561972 -111.12109375 252.44921875 C-131.35976343 242.26123171 -145.95410102 220.84299449 -154.875 200.6875 C-155.16133301 200.04200195 -155.44766602 199.39650391 -155.74267578 198.73144531 C-158.20253311 192.95381288 -160 187.34213833 -160 181 C-160.66 181 -161.32 181 -162 181 C-164.6612373 167.64629139 -165.30980705 154.51183021 -165.3125 140.9375 C-165.31572266 140.1409903 -165.31894531 139.34448059 -165.32226562 138.52383423 C-165.34539065 129.15374319 -164.96920128 120.20801673 -163 111 C-162.67 111 -162.34 111 -162 111 C-162.01160156 111.825 -162.02320313 112.65 -162.03515625 113.5 C-162.05978778 116.65283559 -162.05101665 119.80333335 -162.01660156 122.95605469 C-162.00080957 124.90032783 -162.0114109 126.84476242 -162.0234375 128.7890625 C-161.57408752 148.84641142 -152.62540368 169.37459632 -138.4375 183.5625 C-136 186 -136 186 -134.1875 188.3671875 C-131.85881759 191.16992311 -129.40871912 193.29263038 -126.5625 195.5625 C-125.63566406 196.30628906 -124.70882812 197.05007813 -123.75390625 197.81640625 C-122.39072266 198.89728516 -122.39072266 198.89728516 -121 200 C-120.15050781 200.69996094 -119.30101562 201.39992188 -118.42578125 202.12109375 C-116.21737323 203.83163201 -114.08316644 205.18661143 -111.625 206.5 C-108.89164503 207.96317524 -106.30286396 209.44721935 -103.6875 211.125 C-88.18438815 219.71456197 -66.53918458 217.27328214 -50 213 C-47.21624283 212.19367034 -44.64207492 211.18604093 -42 210 C-40.18835481 209.21495375 -38.3765895 208.43017502 -36.56298828 207.6496582 C-34.69725519 206.84371227 -32.83678767 206.02560999 -30.9765625 205.20703125 C-28 204 -28 204 -26 204 C-26 203.01 -26 202.02 -26 201 C-27.25683594 201.03480469 -28.51367188 201.06960938 -29.80859375 201.10546875 C-35.34305387 201.10006295 -40.62461298 200.28438351 -46.0625 199.3125 C-47.06966064 199.13533447 -48.07682129 198.95816895 -49.11450195 198.77563477 C-56.45239113 197.42377991 -63.43860642 195.54538391 -70.49609375 193.15234375 C-73.73230207 192.0880389 -76.93109966 191.25799401 -80.25 190.5 C-92.35399169 187.56818063 -104.41203828 181.9899681 -114 174 C-115.03125 173.443125 -116.0625 172.88625 -117.125 172.3125 C-128.5260557 165.95659693 -142.29798196 154.94512113 -146 142 C-146.50127671 139.63746107 -146.7946104 137.4133278 -147 135 C-147.66 135 -148.32 135 -149 135 C-149.144375 133.865625 -149.28875 132.73125 -149.4375 131.5625 C-149.61171478 128.19222799 -149.61171478 128.19222799 -151 127 C-153.1980877 111.61338612 -153.73560559 94.27948386 -147 80 C-146.54988534 78.58729073 -146.1133162 77.17022226 -145.6875 75.75 C-143.85799022 70.10740666 -140.94992787 65.12193742 -138 60 C-137.57847656 59.25621094 -137.15695313 58.51242188 -136.72265625 57.74609375 C-135.82225676 56.15998076 -134.91243745 54.57921866 -134 53 C-133.34 53 -132.68 53 -132 53 C-131.814375 52.21625 -131.62875 51.4325 -131.4375 50.625 C-128.57313507 43.40181886 -123.70292253 37.22767899 -118 32 C-117.443125 31.401875 -116.88625 30.80375 -116.3125 30.1875 C-115 29 -115 29 -113 29 C-113 28.34 -113 27.68 -113 27 C-111.01310269 25.64721885 -109.01254782 24.31431695 -107 23 C-106.67 22.34 -106.34 21.68 -106 21 C-103.4375 20.375 -103.4375 20.375 -101 20 C-101 19.34 -101 18.68 -101 18 C-99.54462432 17.16151196 -98.08559627 16.32936066 -96.625 15.5 C-95.81289062 15.0359375 -95.00078125 14.571875 -94.1640625 14.09375 C-92 13 -92 13 -90 13 C-90 12.34 -90 11.68 -90 11 C-80.15865395 6.70246897 -70.49470522 3.65868418 -59.99072266 1.44091797 C-57.92643961 0.98370738 -55.88580815 0.46251584 -53.83984375 -0.0703125 C-37.23292045 -4.09111387 -16.62931456 -3.63766256 0 0 Z " fill="#C19C91" transform="translate(274,107)"/>
<path d="M0 0 C0.83789062 -0.02449219 1.67578125 -0.04898438 2.5390625 -0.07421875 C8.11769398 -0.10053305 11.17546615 0.7303083 15.625 4.375 C16.34945312 4.90480469 17.07390625 5.43460938 17.8203125 5.98046875 C24.13379228 11.15649974 26.9549166 15.79609674 28.140625 23.8984375 C28.65810105 32.40229395 27.35878253 37.57139329 21.86328125 44.12109375 C18.94065535 47.06412192 16.21662806 49.29185572 12.625 51.375 C11.965 51.375 11.305 51.375 10.625 51.375 C10.625 52.035 10.625 52.695 10.625 53.375 C4.35547598 55.46484134 -3.7270288 55.45412568 -10.08203125 53.57421875 C-17.11034524 49.99236346 -23.26609312 43.65332872 -26.375 36.375 C-27.72075016 32.03581839 -27.68448304 27.87064841 -27.375 23.375 C-27.33375 22.199375 -27.2925 21.02375 -27.25 19.8125 C-25.35552251 12.36990984 -19.49478696 6.76224453 -13.375 2.375 C-8.94391216 -0.17287551 -5.0027762 0.00762618 0 0 Z " fill="#F5F6E9" transform="translate(250.375,221.625)"/>
<path d="M0 0 C0 1.32 0 2.64 0 4 C5.28 4 10.56 4 16 4 C16 4.33 16 4.66 16 5 C2.01461045 7.3661082 -11.85263919 7.2105262 -26 7 C-26 6.01 -26 5.02 -26 4 C-24.90945312 3.96132813 -24.90945312 3.96132813 -23.796875 3.921875 C-16.81530081 3.52804261 -10.93477534 2.22977014 -4.3984375 -0.2578125 C-2 -1 -2 -1 0 0 Z " fill="#CEB6A9" transform="translate(264,385)"/>
<path d="M0 0 C0.33 0 0.66 0 1 0 C2.86957763 18.4297593 4.68096633 36.69376567 1 55 C0.67 55 0.34 55 0 55 C-0.02505615 54.21351074 -0.0501123 53.42702148 -0.07592773 52.61669922 C-0.19232866 49.03598506 -0.31485487 45.4555055 -0.4375 41.875 C-0.47681641 40.6375 -0.51613281 39.4 -0.55664062 38.125 C-0.59853516 36.92617187 -0.64042969 35.72734375 -0.68359375 34.4921875 C-0.72025146 33.39245605 -0.75690918 32.29272461 -0.79467773 31.15966797 C-0.99683479 28.04870884 -1.43289894 25.06355662 -2 22 C-1.34 22 -0.68 22 0 22 C0 14.74 0 7.48 0 0 Z " fill="#C6B4A8" transform="translate(388,219)"/>
<path d="M0 0 C0.33 0 0.66 0 1 0 C0.98839844 0.825 0.97679688 1.65 0.96484375 2.5 C0.87757089 13.67092618 0.97715195 24.98482743 3 36 C1.35 36 -0.3 36 -2 36 C-2.41277905 9.82345757 -2.41277905 9.82345757 0 0 Z " fill="#C3B5A8" transform="translate(111,218)"/>
<path d="M0 0 C3.9166043 -0.0580966 7.83309763 -0.09362893 11.75 -0.125 C12.86117188 -0.14175781 13.97234375 -0.15851563 15.1171875 -0.17578125 C16.72207031 -0.18544922 16.72207031 -0.18544922 18.359375 -0.1953125 C19.34389648 -0.20578613 20.32841797 -0.21625977 21.34277344 -0.22705078 C24 0 24 0 28 2 C18.43 2.33 8.86 2.66 -1 3 C-0.67 2.01 -0.34 1.02 0 0 Z " fill="#BCAB9F" transform="translate(246,106)"/>
<path d="M0 0 C3 1 3 1 3 1 Z M0 1 C0 1.99 0 2.98 0 4 C-6.27 4 -12.54 4 -19 4 C-19 3.34 -19 2.68 -19 2 C-12.65333314 1.41639845 -6.37625222 0.85508518 0 1 Z " fill="#BBA397" transform="translate(257,387)"/>
<path d="M0 0 C0.33 0 0.66 0 1 0 C1.06058594 1.08539063 1.12117188 2.17078125 1.18359375 3.2890625 C1.26806064 4.73438486 1.35270551 6.17969682 1.4375 7.625 C1.47681641 8.33785156 1.51613281 9.05070313 1.55664062 9.78515625 C1.80309681 13.91803682 2.23470053 17.92269024 3 22 C1.35 22 -0.3 22 -2 22 C-1.34 14.74 -0.68 7.48 0 0 Z " fill="#C5AB9F" transform="translate(111,232)"/>
<path d="M0 0 C1.39572052 -0.02736707 2.79160221 -0.04655989 4.1875 -0.0625 C4.96480469 -0.07410156 5.74210938 -0.08570313 6.54296875 -0.09765625 C9 0 9 0 11.28125 0.46875 C14.94600518 1.18485159 18.58886931 1.35951388 22.3125 1.5625 C23.05306641 1.60568359 23.79363281 1.64886719 24.55664062 1.69335938 C26.37091464 1.79870432 28.1854355 1.89978316 30 2 C30 2.33 30 2.66 30 3 C26.50007197 3.05869332 23.0002728 3.09382709 19.5 3.125 C18.02660156 3.15013672 18.02660156 3.15013672 16.5234375 3.17578125 C10.64081335 3.21499874 5.63635497 2.70432638 0 1 C0 0.67 0 0.34 0 0 Z " fill="#EBDDD0" transform="translate(178,321)"/>
<path d="M0 0 C1 3 1 3 -0.125 5.875 C-2.66078178 10.10130297 -4.94503862 13.40634449 -9.8125 14.8125 C-10.534375 14.874375 -11.25625 14.93625 -12 15 C-11.319375 14.38125 -10.63875 13.7625 -9.9375 13.125 C-6.0142722 9.23559313 -3.07496184 4.56370417 0 0 Z " fill="#C5ACA1" transform="translate(277,257)"/>
<path d="M0 0 C2.10409639 -0.02701408 4.20829178 -0.04640223 6.3125 -0.0625 C7.48425781 -0.07410156 8.65601563 -0.08570313 9.86328125 -0.09765625 C13 0 13 0 16 1 C16 1.66 16 2.32 16 3 C13.70774565 2.88628503 11.41617612 2.75869036 9.125 2.625 C7.84882813 2.55539062 6.57265625 2.48578125 5.2578125 2.4140625 C2 2 2 2 0 0 Z " fill="#D8D1C6" transform="translate(222,388)"/>
<path d="M0 0 C0.66 1.32 1.32 2.64 2 4 C1.34 4 0.68 4 0 4 C-0.20625 4.598125 -0.4125 5.19625 -0.625 5.8125 C-2.50926082 8.81018767 -4.81132084 9.61361776 -8 11 C-6.63629701 8.00779732 -5.05091917 5.70973471 -2.875 3.25 C-2.33617187 2.63640625 -1.79734375 2.0228125 -1.2421875 1.390625 C-0.62730469 0.70226562 -0.62730469 0.70226562 0 0 Z " fill="#EFE4D6" transform="translate(197,142)"/>
<path d="M0 0 C0.66 0 1.32 0 2 0 C0.75023244 3.65316671 0.32901247 4.78065836 -3 7 C-3.99 7 -4.98 7 -6 7 C-6.28875 7.61875 -6.5775 8.2375 -6.875 8.875 C-8 11 -8 11 -10 13 C-10.66 12.34 -11.32 11.68 -12 11 C-10.625 9.5 -10.625 9.5 -9 8 C-8.34 8 -7.68 8 -7 8 C-7 7.34 -7 6.68 -7 6 C-5.01310269 4.64721885 -3.01254782 3.31431695 -1 2 C-0.67 1.34 -0.34 0.68 0 0 Z " fill="#C6B0A1" transform="translate(168,128)"/>
<path d="M0 0 C0.66 0.33 1.32 0.66 2 1 C-2.47352044 5.59589638 -7.08064098 9.88380164 -12 14 C-12.66 13.67 -13.32 13.34 -14 13 C-4.58997722 3.40546697 -4.58997722 3.40546697 0 0 Z " fill="#C5B1A3" transform="translate(246,124)"/>
<path d="M0 0 C0 3 0 3 -1.2421875 4.60546875 C-1.78101563 5.12753906 -2.31984375 5.64960938 -2.875 6.1875 C-3.40867188 6.71730469 -3.94234375 7.24710938 -4.4921875 7.79296875 C-6 9 -6 9 -8 9 C-8.33 9.99 -8.66 10.98 -9 12 C-9.99 12.33 -10.98 12.66 -12 13 C-12 11 -12 11 -9.9375 8.75 C-6.75469978 5.68609749 -3.38391742 2.83780971 0 0 Z " fill="#EDE0D4" transform="translate(210,129)"/>
<path d="M0 0 C-1.44992269 4.10811428 -3.45407573 7.46855666 -6 11 C-6.33 11 -6.66 11 -7 11 C-6.51098901 4.64285714 -6.51098901 4.64285714 -4.0625 1.5625 C-2 0 -2 0 0 0 Z " fill="#F7EEE2" transform="translate(224,147)"/>
<path d="M0 0 C0.66 0 1.32 0 2 0 C-2.21808511 11.03191489 -2.21808511 11.03191489 -7 14 C-7.66 13.67 -8.32 13.34 -9 13 C-8.15115234 11.96939453 -8.15115234 11.96939453 -7.28515625 10.91796875 C-6.55167969 10.01691406 -5.81820313 9.11585938 -5.0625 8.1875 C-3.96615234 6.84751953 -3.96615234 6.84751953 -2.84765625 5.48046875 C-0.84817309 3.06637081 -0.84817309 3.06637081 0 0 Z " fill="#ECE0D2" transform="translate(360,336)"/>
<path d="M0 0 C0.66 0.99 1.32 1.98 2 3 C-0.97 5.31 -3.94 7.62 -7 10 C-7.66 9.67 -8.32 9.34 -9 9 C-6 6 -3 3 0 0 Z " fill="#EEE2D3" transform="translate(348,353)"/>
<path d="M0 0 C0.33 0.66 0.66 1.32 1 2 C0.109375 4.3125 0.109375 4.3125 -1.25 7 C-1.90742188 8.3303125 -1.90742188 8.3303125 -2.578125 9.6875 C-4 12 -4 12 -7 14 C-5.53967505 8.68972746 -3.01679014 4.53669968 0 0 Z " fill="#EDE1D4" transform="translate(287,332)"/>
<path d="M0 0 C1 4 1 4 0 6 C-0.66 6 -1.32 6 -2 6 C-2 7.32 -2 8.64 -2 10 C-3.65 10.66 -5.3 11.32 -7 12 C-4.69 8.04 -2.38 4.08 0 0 Z " fill="#C5ADA3" transform="translate(225,145)"/>
<path d="M0 0 C1.46132217 2.92264434 2.34099246 4.92463146 3 8 C1.68 8.99 0.36 9.98 -1 11 C-0.67 7.37 -0.34 3.74 0 0 Z " fill="#C3A99E" transform="translate(193,224)"/>
<path d="M0 0 C7.57142857 1.85714286 7.57142857 1.85714286 10 5 C7.07171074 5 4.79597286 4.86029934 2 4 C0.6875 1.9375 0.6875 1.9375 0 0 Z " fill="#CAB5A9" transform="translate(313,201)"/>
<path d="M0 0 C0.99 0 1.98 0 3 0 C3 4.29 3 8.58 3 13 C2.67 13 2.34 13 2 13 C1.855625 11.865625 1.71125 10.73125 1.5625 9.5625 C1.38828522 6.19222799 1.38828522 6.19222799 0 5 C-0.04063832 3.33382885 -0.042721 1.66611905 0 0 Z " fill="#CDB7AC" transform="translate(123,229)"/>
<path d="M0 0 C0.33 0 0.66 0 1 0 C1.29296875 6.0546875 1.29296875 6.0546875 1 8 C0.01 8.66 -0.98 9.32 -2 10 C-1.125 2.25 -1.125 2.25 0 0 Z " fill="#C3ADA0" transform="translate(204,184)"/>
<path d="M0 0 C0.66 0.33 1.32 0.66 2 1 C1.67 1.99 1.34 2.98 1 4 C3.31 4 5.62 4 8 4 C8 4.33 8 4.66 8 5 C0.25 5.125 0.25 5.125 -2 4 C-2 3.01 -2 2.02 -2 1 C-1.34 0.67 -0.68 0.34 0 0 Z " fill="#EDD9CA" transform="translate(255,185)"/>
<path d="M0 0 C0.33 0 0.66 0 1 0 C1.125 7.625 1.125 7.625 0 11 C-0.66 11 -1.32 11 -2 11 C-1 3.57142857 -1 3.57142857 0 0 Z " fill="#E8DBCE" transform="translate(303,289)"/>
</svg>
