<?xml version="1.0" encoding="UTF-8"?>
<svg xmlns="http://www.w3.org/2000/svg" xmlns:xlink="http://www.w3.org/1999/xlink" width="32px" height="32px" viewBox="0 0 32 32" version="1.1">
<g id="surface1">
<path style=" stroke:none;fill-rule:nonzero;fill:rgb(98.039216%,98.039216%,97.254902%);fill-opacity:1;" d="M 15.980469 -0.0117188 C 16.027344 -0.0117188 16.074219 -0.0117188 16.125 -0.0117188 C 16.851562 -0.0117188 17.566406 0.0117188 18.285156 0.117188 C 18.332031 0.125 18.378906 0.128906 18.425781 0.136719 C 19.894531 0.347656 21.308594 0.800781 22.660156 1.40625 C 22.695312 1.421875 22.730469 1.4375 22.761719 1.453125 C 24.515625 2.234375 26.070312 3.398438 27.417969 4.753906 C 27.480469 4.8125 27.542969 4.875 27.601562 4.933594 C 27.8125 5.144531 28.019531 5.359375 28.210938 5.585938 C 28.230469 5.609375 28.25 5.632812 28.269531 5.660156 C 28.984375 6.511719 29.585938 7.429688 30.125 8.402344 C 30.140625 8.429688 30.15625 8.457031 30.171875 8.484375 C 31.320312 10.539062 31.992188 13.015625 32.007812 15.371094 C 32.007812 15.414062 32.011719 15.460938 32.011719 15.507812 C 32.015625 16.519531 32.003906 17.515625 31.84375 18.519531 C 31.835938 18.566406 31.828125 18.613281 31.820312 18.660156 C 31.496094 20.625 30.792969 22.515625 29.773438 24.226562 C 29.746094 24.265625 29.746094 24.265625 29.722656 24.3125 C 29.367188 24.902344 28.964844 25.464844 28.53125 26 C 28.488281 26.054688 28.441406 26.113281 28.398438 26.167969 C 28.027344 26.636719 27.605469 27.058594 27.1875 27.480469 C 27.148438 27.519531 27.109375 27.558594 27.070312 27.597656 C 26.8125 27.859375 26.542969 28.097656 26.257812 28.328125 C 26.214844 28.359375 26.175781 28.394531 26.136719 28.429688 C 25.210938 29.222656 24.148438 29.871094 23.054688 30.398438 C 22.96875 30.4375 22.886719 30.480469 22.800781 30.523438 C 21.472656 31.171875 20.035156 31.59375 18.574219 31.832031 C 18.503906 31.84375 18.503906 31.84375 18.433594 31.859375 C 17.671875 31.976562 16.910156 32.011719 16.136719 32.011719 C 16 32.011719 15.863281 32.011719 15.722656 32.011719 C 14.929688 32.011719 14.148438 31.957031 13.363281 31.820312 C 13.324219 31.8125 13.324219 31.8125 13.277344 31.804688 C 11.910156 31.5625 10.605469 31.160156 9.339844 30.59375 C 9.289062 30.570312 9.289062 30.570312 9.238281 30.546875 C 8.359375 30.15625 7.550781 29.652344 6.757812 29.109375 C 6.730469 29.089844 6.703125 29.070312 6.671875 29.050781 C 6.359375 28.832031 6.0625 28.597656 5.777344 28.347656 C 5.722656 28.304688 5.667969 28.261719 5.617188 28.21875 C 5.296875 27.96875 5.011719 27.6875 4.726562 27.398438 C 4.644531 27.316406 4.5625 27.234375 4.480469 27.152344 C 4.191406 26.863281 3.921875 26.574219 3.671875 26.257812 C 3.632812 26.207031 3.589844 26.15625 3.546875 26.105469 C 3.085938 25.550781 2.671875 24.960938 2.304688 24.34375 C 2.273438 24.292969 2.242188 24.238281 2.214844 24.1875 C 0.859375 21.929688 0.0078125 19.277344 -0.0078125 16.628906 C -0.0078125 16.585938 -0.0117188 16.539062 -0.0117188 16.492188 C -0.015625 15.480469 -0.00390625 14.484375 0.15625 13.480469 C 0.164062 13.433594 0.171875 13.386719 0.179688 13.339844 C 0.402344 11.984375 0.808594 10.667969 1.367188 9.417969 C 1.382812 9.378906 1.402344 9.34375 1.417969 9.304688 C 1.925781 8.175781 2.582031 7.097656 3.359375 6.132812 C 3.398438 6.082031 3.441406 6.035156 3.480469 5.984375 C 3.878906 5.480469 4.3125 5.023438 4.761719 4.570312 C 4.804688 4.527344 4.847656 4.484375 4.890625 4.4375 C 5.160156 4.164062 5.441406 3.914062 5.742188 3.671875 C 5.785156 3.640625 5.824219 3.605469 5.863281 3.570312 C 7.535156 2.136719 9.621094 1.109375 11.734375 0.535156 C 11.828125 0.511719 11.917969 0.484375 12.011719 0.457031 C 12.433594 0.332031 12.863281 0.257812 13.292969 0.1875 C 13.339844 0.179688 13.339844 0.179688 13.382812 0.171875 C 14.246094 0.03125 15.105469 -0.015625 15.980469 -0.0117188 Z M 15.980469 -0.0117188 "/>
<path style=" stroke:none;fill-rule:nonzero;fill:rgb(3.529412%,3.529412%,3.529412%);fill-opacity:1;" d="M 6.058594 13.425781 C 6.089844 13.425781 6.117188 13.425781 6.144531 13.425781 C 6.238281 13.425781 6.332031 13.425781 6.425781 13.425781 C 6.488281 13.425781 6.554688 13.425781 6.617188 13.425781 C 6.753906 13.425781 6.886719 13.425781 7.023438 13.425781 C 7.195312 13.429688 7.371094 13.429688 7.542969 13.429688 C 7.675781 13.429688 7.808594 13.429688 7.941406 13.429688 C 8.007812 13.429688 8.070312 13.429688 8.132812 13.429688 C 8.222656 13.429688 8.3125 13.429688 8.402344 13.429688 C 8.476562 13.429688 8.476562 13.429688 8.554688 13.429688 C 8.675781 13.441406 8.675781 13.441406 8.753906 13.519531 C 8.769531 13.648438 8.765625 13.777344 8.765625 13.910156 C 8.765625 13.945312 8.765625 13.980469 8.765625 14.019531 C 8.765625 14.054688 8.765625 14.089844 8.765625 14.125 C 8.765625 14.15625 8.765625 14.1875 8.765625 14.222656 C 8.761719 14.246094 8.757812 14.273438 8.753906 14.300781 C 8.628906 14.382812 8.597656 14.386719 8.453125 14.386719 C 8.398438 14.386719 8.398438 14.386719 8.339844 14.386719 C 8.300781 14.386719 8.261719 14.386719 8.222656 14.386719 C 8.160156 14.386719 8.160156 14.386719 8.097656 14.386719 C 7.96875 14.386719 7.839844 14.382812 7.710938 14.382812 C 7.621094 14.382812 7.535156 14.382812 7.445312 14.382812 C 7.230469 14.382812 7.015625 14.378906 6.796875 14.378906 C 6.796875 14.699219 6.796875 15.023438 6.796875 15.355469 C 6.921875 15.355469 7.046875 15.355469 7.171875 15.355469 C 7.292969 15.355469 7.410156 15.351562 7.53125 15.351562 C 7.613281 15.351562 7.695312 15.351562 7.78125 15.351562 C 7.898438 15.351562 8.019531 15.351562 8.136719 15.351562 C 8.195312 15.351562 8.195312 15.351562 8.25 15.351562 C 8.285156 15.351562 8.320312 15.351562 8.355469 15.351562 C 8.386719 15.351562 8.417969 15.351562 8.449219 15.351562 C 8.519531 15.355469 8.519531 15.355469 8.558594 15.394531 C 8.566406 15.523438 8.5625 15.652344 8.5625 15.78125 C 8.566406 15.820312 8.566406 15.855469 8.566406 15.894531 C 8.566406 15.929688 8.566406 15.960938 8.566406 16 C 8.566406 16.03125 8.566406 16.0625 8.566406 16.097656 C 8.558594 16.175781 8.558594 16.175781 8.480469 16.253906 C 8.40625 16.261719 8.40625 16.261719 8.316406 16.261719 C 8.28125 16.261719 8.25 16.261719 8.214844 16.261719 C 8.160156 16.261719 8.160156 16.261719 8.101562 16.261719 C 8.066406 16.261719 8.027344 16.261719 7.992188 16.261719 C 7.871094 16.261719 7.753906 16.261719 7.632812 16.257812 C 7.554688 16.257812 7.472656 16.257812 7.390625 16.257812 C 7.195312 16.257812 6.996094 16.253906 6.796875 16.253906 C 6.796875 16.640625 6.796875 17.027344 6.796875 17.425781 C 6.941406 17.425781 7.085938 17.425781 7.230469 17.421875 C 7.371094 17.421875 7.507812 17.421875 7.644531 17.421875 C 7.742188 17.421875 7.835938 17.421875 7.933594 17.421875 C 8.070312 17.417969 8.210938 17.417969 8.347656 17.417969 C 8.414062 17.417969 8.414062 17.417969 8.480469 17.417969 C 8.539062 17.417969 8.539062 17.417969 8.597656 17.417969 C 8.652344 17.417969 8.652344 17.417969 8.707031 17.417969 C 8.792969 17.425781 8.792969 17.425781 8.871094 17.503906 C 8.886719 17.625 8.882812 17.75 8.882812 17.871094 C 8.882812 17.90625 8.882812 17.941406 8.882812 17.976562 C 8.882812 18.007812 8.882812 18.042969 8.882812 18.074219 C 8.882812 18.105469 8.882812 18.136719 8.882812 18.167969 C 8.863281 18.273438 8.839844 18.300781 8.753906 18.363281 C 8.628906 18.378906 8.628906 18.378906 8.472656 18.378906 C 8.429688 18.378906 8.429688 18.378906 8.386719 18.378906 C 8.292969 18.382812 8.199219 18.382812 8.105469 18.378906 C 8.039062 18.382812 7.976562 18.382812 7.910156 18.382812 C 7.773438 18.382812 7.636719 18.382812 7.5 18.382812 C 7.324219 18.378906 7.148438 18.382812 6.976562 18.382812 C 6.839844 18.382812 6.707031 18.382812 6.570312 18.382812 C 6.507812 18.382812 6.441406 18.382812 6.378906 18.382812 C 6.285156 18.382812 6.195312 18.382812 6.105469 18.382812 C 6.03125 18.382812 6.03125 18.382812 5.949219 18.382812 C 5.796875 18.359375 5.761719 18.328125 5.664062 18.207031 C 5.644531 18.117188 5.644531 18.117188 5.644531 18.011719 C 5.644531 17.972656 5.644531 17.933594 5.644531 17.894531 C 5.644531 17.851562 5.644531 17.808594 5.644531 17.765625 C 5.644531 17.71875 5.644531 17.675781 5.644531 17.628906 C 5.644531 17.476562 5.644531 17.328125 5.644531 17.179688 C 5.644531 17.074219 5.644531 16.972656 5.644531 16.867188 C 5.644531 16.652344 5.644531 16.433594 5.648438 16.214844 C 5.648438 15.964844 5.648438 15.710938 5.648438 15.460938 C 5.648438 15.21875 5.648438 14.976562 5.648438 14.734375 C 5.648438 14.632812 5.648438 14.53125 5.648438 14.425781 C 5.648438 14.28125 5.648438 14.140625 5.648438 13.996094 C 5.648438 13.953125 5.648438 13.910156 5.648438 13.867188 C 5.648438 13.828125 5.648438 13.789062 5.648438 13.746094 C 5.652344 13.714844 5.652344 13.679688 5.652344 13.644531 C 5.691406 13.414062 5.859375 13.425781 6.058594 13.425781 Z M 6.058594 13.425781 "/>
<path style=" stroke:none;fill-rule:nonzero;fill:rgb(3.529412%,3.529412%,3.529412%);fill-opacity:1;" d="M 11.925781 14.789062 C 12.222656 15.019531 12.359375 15.34375 12.425781 15.707031 C 12.4375 15.839844 12.4375 15.976562 12.4375 16.109375 C 12.4375 16.1875 12.4375 16.265625 12.441406 16.339844 C 12.441406 16.460938 12.441406 16.582031 12.441406 16.703125 C 12.445312 16.820312 12.445312 16.9375 12.445312 17.054688 C 12.445312 17.109375 12.445312 17.109375 12.445312 17.164062 C 12.449219 17.214844 12.449219 17.214844 12.449219 17.265625 C 12.449219 17.292969 12.449219 17.324219 12.449219 17.355469 C 12.457031 17.441406 12.457031 17.441406 12.582031 17.503906 C 12.660156 17.515625 12.660156 17.515625 12.746094 17.507812 C 12.792969 17.507812 12.84375 17.507812 12.894531 17.503906 C 12.898438 17.605469 12.902344 17.703125 12.90625 17.804688 C 12.90625 17.832031 12.910156 17.859375 12.910156 17.890625 C 12.914062 18.054688 12.910156 18.109375 12.800781 18.246094 C 12.570312 18.421875 12.316406 18.433594 12.035156 18.402344 C 11.820312 18.335938 11.671875 18.214844 11.527344 18.050781 C 11.496094 18.082031 11.464844 18.109375 11.433594 18.140625 C 11.09375 18.421875 10.660156 18.472656 10.238281 18.441406 C 9.875 18.355469 9.613281 18.199219 9.390625 17.902344 C 9.230469 17.632812 9.226562 17.339844 9.261719 17.035156 C 9.34375 16.742188 9.503906 16.554688 9.769531 16.410156 C 9.894531 16.347656 10.023438 16.300781 10.160156 16.253906 C 10.191406 16.242188 10.222656 16.230469 10.253906 16.222656 C 10.601562 16.113281 10.96875 16.089844 11.332031 16.058594 C 11.332031 16.003906 11.335938 15.945312 11.335938 15.890625 C 11.335938 15.84375 11.335938 15.84375 11.335938 15.796875 C 11.335938 15.695312 11.335938 15.695312 11.261719 15.585938 C 11.066406 15.472656 10.886719 15.480469 10.667969 15.511719 C 10.453125 15.605469 10.375 15.738281 10.277344 15.941406 C 9.96875 15.914062 9.660156 15.867188 9.417969 15.667969 C 9.429688 15.339844 9.605469 15.113281 9.839844 14.894531 C 10.375 14.453125 11.351562 14.410156 11.925781 14.789062 Z M 11.925781 14.789062 "/>
<path style=" stroke:none;fill-rule:nonzero;fill:rgb(3.137255%,3.137255%,3.137255%);fill-opacity:1;" d="M 16.390625 14.648438 C 16.433594 14.648438 16.476562 14.648438 16.519531 14.648438 C 16.585938 14.648438 16.585938 14.648438 16.65625 14.648438 C 16.730469 14.648438 16.730469 14.648438 16.804688 14.648438 C 16.875 14.648438 16.875 14.648438 16.949219 14.648438 C 17.070312 14.652344 17.1875 14.652344 17.308594 14.652344 C 17.417969 14.886719 17.515625 15.125 17.609375 15.367188 C 17.621094 15.402344 17.632812 15.433594 17.648438 15.46875 C 17.675781 15.539062 17.699219 15.609375 17.726562 15.675781 C 17.769531 15.785156 17.808594 15.890625 17.851562 15.996094 C 17.875 16.0625 17.902344 16.132812 17.929688 16.199219 C 17.941406 16.230469 17.953125 16.261719 17.964844 16.296875 C 18.050781 16.519531 18.050781 16.519531 18.050781 16.605469 C 18.078125 16.605469 18.101562 16.605469 18.128906 16.605469 C 18.132812 16.558594 18.136719 16.511719 18.140625 16.464844 C 18.164062 16.308594 18.207031 16.175781 18.269531 16.03125 C 18.386719 15.757812 18.484375 15.476562 18.582031 15.199219 C 18.589844 15.167969 18.601562 15.136719 18.613281 15.101562 C 18.621094 15.074219 18.632812 15.046875 18.640625 15.019531 C 18.6875 14.894531 18.742188 14.773438 18.792969 14.652344 C 19.140625 14.652344 19.488281 14.652344 19.847656 14.652344 C 19.890625 14.871094 19.890625 14.871094 19.832031 14.996094 C 19.816406 15.027344 19.804688 15.054688 19.789062 15.085938 C 19.773438 15.117188 19.757812 15.148438 19.742188 15.179688 C 19.710938 15.25 19.675781 15.320312 19.644531 15.390625 C 19.625 15.429688 19.609375 15.46875 19.589844 15.507812 C 19.492188 15.722656 19.40625 15.9375 19.316406 16.15625 C 19.285156 16.230469 19.257812 16.300781 19.226562 16.375 C 19.207031 16.421875 19.1875 16.472656 19.164062 16.523438 C 19.085938 16.71875 19.003906 16.914062 18.921875 17.105469 C 18.628906 17.808594 18.628906 17.808594 18.34375 18.511719 C 18.332031 18.539062 18.320312 18.566406 18.3125 18.59375 C 18.261719 18.722656 18.210938 18.851562 18.160156 18.976562 C 18.140625 19.023438 18.125 19.066406 18.105469 19.113281 C 18.089844 19.152344 18.074219 19.191406 18.058594 19.234375 C 17.96875 19.441406 17.96875 19.441406 17.894531 19.535156 C 17.796875 19.558594 17.796875 19.558594 17.679688 19.558594 C 17.640625 19.558594 17.597656 19.558594 17.554688 19.558594 C 17.511719 19.558594 17.46875 19.558594 17.421875 19.554688 C 17.359375 19.554688 17.359375 19.554688 17.292969 19.554688 C 17.054688 19.554688 17.054688 19.554688 16.957031 19.535156 C 16.878906 19.417969 16.878906 19.417969 16.886719 19.3125 C 16.921875 19.164062 16.980469 19.027344 17.042969 18.890625 C 17.066406 18.832031 17.09375 18.777344 17.117188 18.71875 C 17.15625 18.628906 17.195312 18.542969 17.238281 18.453125 C 17.273438 18.367188 17.3125 18.28125 17.351562 18.195312 C 17.363281 18.167969 17.375 18.144531 17.386719 18.117188 C 17.480469 17.898438 17.46875 17.742188 17.390625 17.523438 C 17.378906 17.492188 17.363281 17.460938 17.347656 17.429688 C 17.332031 17.394531 17.316406 17.355469 17.300781 17.320312 C 17.28125 17.28125 17.265625 17.242188 17.246094 17.203125 C 17.207031 17.113281 17.167969 17.027344 17.128906 16.941406 C 17.117188 16.917969 17.109375 16.894531 17.097656 16.871094 C 16.96875 16.585938 16.847656 16.300781 16.726562 16.015625 C 16.6875 15.925781 16.648438 15.835938 16.609375 15.75 C 16.554688 15.613281 16.496094 15.480469 16.441406 15.347656 C 16.414062 15.285156 16.386719 15.21875 16.359375 15.15625 C 16.34375 15.121094 16.328125 15.089844 16.316406 15.054688 C 16.304688 15.027344 16.289062 14.996094 16.277344 14.96875 C 16.25 14.871094 16.246094 14.792969 16.253906 14.691406 C 16.292969 14.652344 16.292969 14.652344 16.390625 14.648438 Z M 16.390625 14.648438 "/>
<path style=" stroke:none;fill-rule:nonzero;fill:rgb(3.529412%,3.529412%,3.529412%);fill-opacity:1;" d="M 15.628906 14.730469 C 15.679688 14.75 15.679688 14.75 15.730469 14.769531 C 15.832031 14.816406 15.921875 14.863281 15.996094 14.949219 C 16.035156 15.105469 15.957031 15.222656 15.890625 15.363281 C 15.878906 15.390625 15.863281 15.421875 15.851562 15.449219 C 15.753906 15.660156 15.753906 15.660156 15.707031 15.707031 C 15.503906 15.734375 15.355469 15.667969 15.175781 15.589844 C 14.996094 15.515625 14.84375 15.507812 14.648438 15.507812 C 14.597656 15.507812 14.550781 15.507812 14.5 15.507812 C 14.382812 15.503906 14.382812 15.503906 14.300781 15.550781 C 14.289062 15.644531 14.289062 15.644531 14.300781 15.746094 C 14.410156 15.847656 14.519531 15.890625 14.664062 15.933594 C 14.703125 15.949219 14.742188 15.960938 14.785156 15.972656 C 14.867188 16 14.949219 16.023438 15.035156 16.050781 C 15.417969 16.171875 15.792969 16.332031 16.019531 16.683594 C 16.15625 16.957031 16.136719 17.328125 16.070312 17.621094 C 15.957031 17.941406 15.761719 18.132812 15.460938 18.277344 C 14.753906 18.570312 14.003906 18.453125 13.3125 18.179688 C 13.210938 18.132812 13.132812 18.082031 13.050781 18.011719 C 13.097656 17.75 13.160156 17.484375 13.324219 17.269531 C 13.445312 17.21875 13.503906 17.226562 13.632812 17.265625 C 13.667969 17.285156 13.707031 17.300781 13.75 17.320312 C 14.023438 17.445312 14.257812 17.515625 14.5625 17.515625 C 14.636719 17.515625 14.636719 17.515625 14.714844 17.519531 C 14.851562 17.503906 14.90625 17.480469 15.003906 17.386719 C 15.003906 17.292969 15.003906 17.292969 14.964844 17.191406 C 14.707031 17.0625 14.425781 16.980469 14.15625 16.886719 C 13.773438 16.753906 13.453125 16.574219 13.246094 16.214844 C 13.125 15.910156 13.140625 15.628906 13.246094 15.320312 C 13.390625 15 13.628906 14.765625 13.957031 14.632812 C 14.492188 14.480469 15.113281 14.527344 15.628906 14.730469 Z M 15.628906 14.730469 "/>
<path style=" stroke:none;fill-rule:nonzero;fill:rgb(85.09804%,15.294118%,15.294118%);fill-opacity:1;" d="M 23.074219 14.835938 C 23.164062 14.902344 23.246094 14.96875 23.324219 15.042969 C 23.347656 15.0625 23.371094 15.078125 23.390625 15.097656 C 23.449219 15.148438 23.449219 15.148438 23.519531 15.238281 C 23.507812 15.371094 23.460938 15.425781 23.363281 15.511719 C 23.339844 15.53125 23.316406 15.550781 23.289062 15.574219 C 23.265625 15.59375 23.238281 15.613281 23.214844 15.636719 C 23.1875 15.65625 23.164062 15.679688 23.136719 15.699219 C 22.953125 15.859375 22.953125 15.859375 22.816406 15.902344 C 22.746094 15.859375 22.746094 15.859375 22.667969 15.792969 C 22.421875 15.589844 22.210938 15.570312 21.902344 15.574219 C 21.65625 15.601562 21.496094 15.683594 21.339844 15.871094 C 21.140625 16.148438 21.097656 16.425781 21.136719 16.761719 C 21.230469 17.035156 21.402344 17.207031 21.644531 17.347656 C 21.871094 17.457031 22.128906 17.46875 22.367188 17.398438 C 22.585938 17.304688 22.761719 17.195312 22.894531 16.996094 C 23.054688 17.054688 23.203125 17.128906 23.351562 17.210938 C 23.398438 17.234375 23.441406 17.257812 23.488281 17.285156 C 23.597656 17.347656 23.597656 17.347656 23.675781 17.425781 C 23.65625 17.6875 23.464844 17.839844 23.28125 18.007812 C 23.078125 18.179688 22.875 18.285156 22.621094 18.363281 C 22.597656 18.371094 22.570312 18.382812 22.542969 18.390625 C 21.992188 18.542969 21.398438 18.453125 20.90625 18.183594 C 20.808594 18.117188 20.71875 18.050781 20.628906 17.972656 C 20.589844 17.941406 20.589844 17.941406 20.546875 17.90625 C 20.207031 17.601562 19.988281 17.128906 19.957031 16.679688 C 19.941406 16.078125 20.082031 15.597656 20.484375 15.136719 C 21.148438 14.492188 22.289062 14.316406 23.074219 14.835938 Z M 23.074219 14.835938 "/>
<path style=" stroke:none;fill-rule:nonzero;fill:rgb(3.529412%,3.529412%,3.529412%);fill-opacity:1;" d="M 26.375 14.574219 C 26.375 14.949219 26.375 15.320312 26.375 15.707031 C 26.230469 15.71875 26.089844 15.734375 25.945312 15.746094 C 25.707031 15.832031 25.558594 15.910156 25.398438 16.097656 C 25.382812 16.109375 25.371094 16.125 25.359375 16.136719 C 25.355469 16.203125 25.351562 16.265625 25.351562 16.332031 C 25.351562 16.394531 25.351562 16.394531 25.351562 16.460938 C 25.351562 16.503906 25.351562 16.550781 25.347656 16.597656 C 25.347656 16.695312 25.347656 16.789062 25.347656 16.882812 C 25.34375 17.035156 25.34375 17.1875 25.34375 17.339844 C 25.339844 17.484375 25.339844 17.628906 25.335938 17.773438 C 25.335938 17.820312 25.335938 17.867188 25.335938 17.914062 C 25.335938 17.953125 25.335938 17.996094 25.335938 18.039062 C 25.335938 18.078125 25.335938 18.113281 25.335938 18.152344 C 25.316406 18.261719 25.289062 18.296875 25.203125 18.363281 C 25.058594 18.390625 24.917969 18.382812 24.773438 18.382812 C 24.714844 18.382812 24.714844 18.382812 24.65625 18.382812 C 24.617188 18.382812 24.578125 18.382812 24.542969 18.382812 C 24.488281 18.382812 24.488281 18.382812 24.4375 18.382812 C 24.304688 18.355469 24.265625 18.316406 24.1875 18.207031 C 24.171875 18.089844 24.164062 17.988281 24.167969 17.871094 C 24.167969 17.839844 24.167969 17.804688 24.167969 17.769531 C 24.164062 17.65625 24.167969 17.546875 24.167969 17.433594 C 24.167969 17.355469 24.167969 17.277344 24.167969 17.203125 C 24.167969 17.039062 24.167969 16.875 24.167969 16.714844 C 24.171875 16.503906 24.171875 16.296875 24.171875 16.089844 C 24.171875 15.929688 24.171875 15.769531 24.171875 15.609375 C 24.171875 15.53125 24.171875 15.453125 24.171875 15.378906 C 24.171875 15.269531 24.171875 15.164062 24.175781 15.054688 C 24.175781 15.023438 24.175781 14.992188 24.175781 14.957031 C 24.175781 14.738281 24.175781 14.738281 24.265625 14.652344 C 24.40625 14.632812 24.550781 14.640625 24.695312 14.640625 C 24.734375 14.640625 24.773438 14.636719 24.816406 14.636719 C 24.851562 14.636719 24.890625 14.636719 24.929688 14.636719 C 24.964844 14.636719 25 14.636719 25.035156 14.636719 C 25.078125 14.644531 25.078125 14.644531 25.125 14.652344 C 25.226562 14.808594 25.207031 14.894531 25.203125 15.082031 C 25.226562 15.054688 25.25 15.027344 25.277344 15 C 25.605469 14.671875 25.902344 14.574219 26.375 14.574219 Z M 26.375 14.574219 "/>
<path style=" stroke:none;fill-rule:nonzero;fill:rgb(97.254902%,97.254902%,97.254902%);fill-opacity:1;" d="M 11.332031 16.683594 C 11.335938 16.785156 11.339844 16.882812 11.34375 16.984375 C 11.34375 17.011719 11.347656 17.039062 11.347656 17.070312 C 11.351562 17.230469 11.347656 17.289062 11.238281 17.421875 C 11.042969 17.574219 10.9375 17.597656 10.695312 17.59375 C 10.539062 17.578125 10.46875 17.53125 10.355469 17.425781 C 10.289062 17.296875 10.285156 17.171875 10.316406 17.035156 C 10.453125 16.847656 10.636719 16.765625 10.863281 16.722656 C 11.019531 16.703125 11.171875 16.683594 11.332031 16.683594 Z M 11.332031 16.683594 "/>
<path style=" stroke:none;fill-rule:nonzero;fill:rgb(96.078432%,96.078432%,95.686275%);fill-opacity:1;" d="M 11.136719 15.472656 C 11.253906 15.542969 11.308594 15.585938 11.371094 15.707031 C 11.375 15.765625 11.375 15.824219 11.375 15.886719 C 11.375 15.933594 11.375 15.933594 11.375 15.980469 C 11.371094 16.058594 11.371094 16.058594 11.332031 16.097656 C 11.21875 16.109375 11.109375 16.121094 10.996094 16.128906 C 10.640625 16.164062 10.304688 16.234375 9.964844 16.332031 C 10.003906 16.183594 10.035156 16.070312 10.121094 15.941406 C 10.171875 15.941406 10.222656 15.941406 10.277344 15.941406 C 10.289062 15.898438 10.289062 15.898438 10.304688 15.855469 C 10.476562 15.46875 10.742188 15.425781 11.136719 15.472656 Z M 11.136719 15.472656 "/>
<path style=" stroke:none;fill-rule:nonzero;fill:rgb(97.647059%,97.647059%,97.647059%);fill-opacity:1;" d="M 15.023438 15.488281 C 15.097656 15.511719 15.097656 15.511719 15.199219 15.550781 C 15.089844 15.703125 15.089844 15.703125 15.003906 15.746094 C 14.976562 15.734375 14.953125 15.71875 14.925781 15.707031 C 14.972656 15.886719 14.972656 15.886719 15.042969 16.058594 C 14.433594 15.921875 14.433594 15.921875 14.261719 15.746094 C 14.25 15.648438 14.25 15.648438 14.261719 15.550781 C 14.472656 15.410156 14.777344 15.445312 15.023438 15.488281 Z M 15.023438 15.488281 "/>
<path style=" stroke:none;fill-rule:nonzero;fill:rgb(80.000001%,16.470589%,16.862746%);fill-opacity:1;" d="M 21.527344 18.050781 C 21.582031 18.050781 21.632812 18.050781 21.683594 18.050781 C 21.683594 18.078125 21.683594 18.101562 21.683594 18.128906 C 21.75 18.128906 21.8125 18.128906 21.878906 18.128906 C 21.839844 18.148438 21.839844 18.148438 21.800781 18.167969 C 21.800781 18.195312 21.800781 18.21875 21.800781 18.246094 C 21.855469 18.246094 21.90625 18.246094 21.957031 18.246094 C 21.957031 18.273438 21.957031 18.296875 21.957031 18.324219 C 22.125 18.335938 22.292969 18.351562 22.464844 18.363281 C 22.464844 18.375 22.464844 18.390625 22.464844 18.402344 C 21.96875 18.519531 21.484375 18.445312 21.019531 18.246094 C 21.007812 18.222656 20.996094 18.195312 20.980469 18.167969 C 21.316406 18.207031 21.316406 18.207031 21.449219 18.246094 C 21.476562 18.183594 21.503906 18.117188 21.527344 18.050781 Z M 21.527344 18.050781 "/>
<path style=" stroke:none;fill-rule:nonzero;fill:rgb(94.509804%,94.509804%,94.117647%);fill-opacity:1;" d="M 25.203125 14.457031 C 25.238281 14.484375 25.277344 14.507812 25.320312 14.535156 C 25.371094 14.523438 25.421875 14.511719 25.476562 14.496094 C 25.511719 14.507812 25.550781 14.523438 25.59375 14.535156 C 25.605469 14.523438 25.617188 14.507812 25.632812 14.496094 C 25.722656 14.492188 25.8125 14.492188 25.90625 14.496094 C 25.890625 14.523438 25.878906 14.546875 25.867188 14.574219 C 25.867188 14.601562 25.867188 14.625 25.867188 14.652344 C 25.828125 14.667969 25.828125 14.667969 25.785156 14.6875 C 25.5625 14.792969 25.425781 14.882812 25.28125 15.082031 C 25.253906 15.082031 25.226562 15.082031 25.203125 15.082031 C 25.175781 14.914062 25.148438 14.746094 25.125 14.574219 C 25.175781 14.585938 25.226562 14.601562 25.28125 14.613281 C 25.253906 14.5625 25.226562 14.511719 25.203125 14.457031 Z M 25.203125 14.457031 "/>
<path style=" stroke:none;fill-rule:nonzero;fill:rgb(67.058825%,21.176471%,20.784314%);fill-opacity:1;" d="M 21.175781 16.996094 C 21.203125 16.996094 21.230469 16.996094 21.253906 16.996094 C 21.296875 17.050781 21.296875 17.050781 21.339844 17.105469 C 21.480469 17.28125 21.660156 17.382812 21.878906 17.425781 C 22.21875 17.460938 22.460938 17.382812 22.738281 17.1875 C 22.824219 17.113281 22.824219 17.113281 22.894531 16.996094 C 22.992188 17.035156 22.992188 17.035156 23.089844 17.074219 C 23.089844 17.085938 23.089844 17.101562 23.089844 17.113281 C 23.058594 17.117188 23.027344 17.125 22.996094 17.128906 C 22.964844 17.136719 22.929688 17.144531 22.894531 17.152344 C 22.882812 17.179688 22.871094 17.203125 22.855469 17.230469 C 22.832031 17.230469 22.804688 17.230469 22.777344 17.230469 C 22.777344 17.269531 22.777344 17.308594 22.777344 17.347656 C 22.46875 17.554688 22.058594 17.542969 21.699219 17.488281 C 21.460938 17.425781 21.3125 17.277344 21.175781 17.074219 C 21.175781 17.046875 21.175781 17.023438 21.175781 16.996094 Z M 21.175781 16.996094 "/>
<path style=" stroke:none;fill-rule:nonzero;fill:rgb(96.862745%,86.274511%,84.705883%);fill-opacity:1;" d="M 21.214844 15.980469 C 21.230469 15.980469 21.242188 15.980469 21.253906 15.980469 C 21.296875 16.226562 21.289062 16.40625 21.214844 16.644531 C 21.242188 16.65625 21.269531 16.671875 21.292969 16.683594 C 21.285156 16.707031 21.28125 16.726562 21.273438 16.75 C 21.253906 16.855469 21.269531 16.929688 21.292969 17.035156 C 21.359375 17.023438 21.421875 17.007812 21.488281 16.996094 C 21.476562 17.074219 21.464844 17.152344 21.449219 17.230469 C 21.265625 17.105469 21.164062 16.972656 21.097656 16.761719 C 21.0625 16.480469 21.109375 16.238281 21.214844 15.980469 Z M 21.488281 16.957031 C 21.566406 16.996094 21.566406 16.996094 21.566406 16.996094 Z M 21.488281 16.957031 "/>
<path style=" stroke:none;fill-rule:nonzero;fill:rgb(72.549021%,21.176471%,22.745098%);fill-opacity:1;" d="M 20.082031 15.746094 C 20.132812 15.886719 20.109375 15.996094 20.082031 16.140625 C 20.042969 16.382812 20.007812 16.648438 20.121094 16.878906 C 20.183594 17 20.195312 17.125 20.21875 17.257812 C 20.234375 17.359375 20.234375 17.359375 20.316406 17.464844 C 20.304688 17.503906 20.292969 17.542969 20.277344 17.582031 C 19.941406 16.949219 19.886719 16.449219 20.082031 15.746094 Z M 20.082031 15.746094 "/>
<path style=" stroke:none;fill-rule:nonzero;fill:rgb(71.372551%,21.568628%,21.568628%);fill-opacity:1;" d="M 21.449219 14.613281 C 21.449219 14.640625 21.449219 14.664062 21.449219 14.691406 C 21.410156 14.691406 21.375 14.691406 21.332031 14.691406 C 21.332031 14.71875 21.332031 14.742188 21.332031 14.769531 C 21.3125 14.777344 21.289062 14.785156 21.265625 14.792969 C 21.222656 14.808594 21.222656 14.808594 21.179688 14.824219 C 21.136719 14.839844 21.136719 14.839844 21.09375 14.851562 C 21.011719 14.878906 21.011719 14.878906 20.980469 14.964844 C 20.90625 14.992188 20.828125 15.019531 20.746094 15.042969 C 20.746094 15.070312 20.746094 15.09375 20.746094 15.121094 C 20.722656 15.121094 20.695312 15.121094 20.667969 15.121094 C 20.667969 15.148438 20.667969 15.171875 20.667969 15.199219 C 20.589844 15.210938 20.515625 15.226562 20.433594 15.238281 C 20.644531 14.941406 21.070312 14.613281 21.449219 14.613281 Z M 21.449219 14.613281 "/>
<path style=" stroke:none;fill-rule:nonzero;fill:rgb(96.862745%,81.568629%,81.568629%);fill-opacity:1;" d="M 22.007812 14.449219 C 22.234375 14.441406 22.414062 14.492188 22.621094 14.574219 C 22.660156 14.585938 22.699219 14.601562 22.738281 14.613281 C 22.726562 14.640625 22.714844 14.664062 22.699219 14.691406 C 22.671875 14.679688 22.644531 14.664062 22.613281 14.652344 C 22.40625 14.597656 22.210938 14.601562 22 14.605469 C 21.9375 14.605469 21.9375 14.605469 21.875 14.605469 C 21.664062 14.605469 21.460938 14.613281 21.253906 14.652344 C 21.292969 14.574219 21.292969 14.574219 21.410156 14.53125 C 21.609375 14.480469 21.804688 14.464844 22.007812 14.449219 Z M 22.007812 14.449219 "/>
<path style=" stroke:none;fill-rule:nonzero;fill:rgb(98.431373%,81.960785%,81.176472%);fill-opacity:1;" d="M 22.816406 16.996094 C 22.84375 17.007812 22.871094 17.023438 22.894531 17.035156 C 22.726562 17.269531 22.542969 17.375 22.269531 17.464844 C 22.007812 17.488281 21.804688 17.460938 21.566406 17.347656 C 21.5 17.285156 21.5 17.285156 21.449219 17.230469 C 21.574219 17.25 21.683594 17.285156 21.796875 17.332031 C 21.949219 17.386719 22.070312 17.40625 22.230469 17.386719 C 22.335938 17.332031 22.335938 17.332031 22.425781 17.269531 C 22.453125 17.265625 22.480469 17.257812 22.507812 17.253906 C 22.613281 17.222656 22.664062 17.152344 22.738281 17.074219 C 22.765625 17.074219 22.792969 17.074219 22.816406 17.074219 C 22.816406 17.046875 22.816406 17.023438 22.816406 16.996094 Z M 22.816406 16.996094 "/>
<path style=" stroke:none;fill-rule:nonzero;fill:rgb(66.274512%,16.470589%,16.862746%);fill-opacity:1;" d="M 23.207031 17.152344 C 23.273438 17.183594 23.335938 17.214844 23.398438 17.246094 C 23.433594 17.261719 23.46875 17.28125 23.507812 17.296875 C 23.597656 17.347656 23.597656 17.347656 23.675781 17.425781 C 23.667969 17.589844 23.609375 17.671875 23.5 17.789062 C 23.472656 17.816406 23.449219 17.84375 23.421875 17.871094 C 23.394531 17.902344 23.394531 17.902344 23.363281 17.933594 C 23.351562 17.882812 23.339844 17.832031 23.324219 17.777344 C 23.351562 17.769531 23.375 17.757812 23.398438 17.75 C 23.53125 17.671875 23.550781 17.566406 23.597656 17.425781 C 23.484375 17.40625 23.484375 17.40625 23.363281 17.386719 C 23.363281 17.347656 23.363281 17.308594 23.363281 17.269531 C 23.3125 17.257812 23.261719 17.242188 23.207031 17.230469 C 23.207031 17.203125 23.207031 17.179688 23.207031 17.152344 Z M 23.207031 17.152344 "/>
<path style=" stroke:none;fill-rule:nonzero;fill:rgb(94.117647%,94.117647%,94.117647%);fill-opacity:1;" d="M 18.128906 16.019531 C 18.167969 16.03125 18.207031 16.046875 18.246094 16.058594 C 18.21875 16.246094 18.175781 16.421875 18.128906 16.605469 C 18.105469 16.605469 18.078125 16.605469 18.050781 16.605469 C 18.03125 16.550781 18.011719 16.492188 17.992188 16.4375 C 17.980469 16.40625 17.972656 16.375 17.960938 16.34375 C 17.933594 16.253906 17.933594 16.253906 17.933594 16.136719 C 17.960938 16.125 17.984375 16.109375 18.011719 16.097656 C 18.039062 16.125 18.0625 16.148438 18.089844 16.175781 C 18.101562 16.125 18.117188 16.074219 18.128906 16.019531 Z M 18.128906 16.019531 "/>
<path style=" stroke:none;fill-rule:nonzero;fill:rgb(77.254903%,18.431373%,21.176471%);fill-opacity:1;" d="M 21.527344 14.574219 C 21.839844 14.574219 22.148438 14.574219 22.464844 14.574219 C 22.453125 14.601562 22.441406 14.625 22.425781 14.652344 C 22.351562 14.667969 22.269531 14.679688 22.191406 14.691406 C 22.171875 14.699219 22.148438 14.707031 22.125 14.714844 C 21.996094 14.738281 21.894531 14.703125 21.773438 14.675781 C 21.726562 14.664062 21.679688 14.652344 21.632812 14.640625 C 21.597656 14.632812 21.566406 14.621094 21.527344 14.613281 C 21.527344 14.601562 21.527344 14.585938 21.527344 14.574219 Z M 21.527344 14.574219 "/>
<path style=" stroke:none;fill-rule:nonzero;fill:rgb(78.823531%,78.823531%,78.431374%);fill-opacity:1;" d="M 16.253906 14.496094 C 16.355469 14.507812 16.460938 14.523438 16.566406 14.535156 C 16.566406 14.5625 16.566406 14.585938 16.566406 14.613281 C 16.796875 14.613281 17.03125 14.613281 17.269531 14.613281 C 17.269531 14.625 17.269531 14.640625 17.269531 14.652344 C 16.785156 14.671875 16.785156 14.671875 16.292969 14.691406 C 16.265625 14.742188 16.242188 14.792969 16.214844 14.847656 C 16.1875 14.820312 16.164062 14.796875 16.136719 14.769531 C 16.152344 14.667969 16.152344 14.667969 16.175781 14.574219 C 16.203125 14.574219 16.226562 14.574219 16.253906 14.574219 C 16.253906 14.546875 16.253906 14.523438 16.253906 14.496094 Z M 16.253906 14.496094 "/>
<path style=" stroke:none;fill-rule:nonzero;fill:rgb(98.431373%,86.274511%,85.09804%);fill-opacity:1;" d="M 19.925781 16.253906 C 19.941406 16.253906 19.953125 16.253906 19.964844 16.253906 C 19.96875 16.289062 19.96875 16.320312 19.96875 16.355469 C 19.988281 16.675781 20.035156 16.964844 20.121094 17.269531 C 20.058594 17.257812 19.992188 17.242188 19.925781 17.230469 C 19.886719 17.011719 19.890625 16.808594 19.90625 16.589844 C 19.90625 16.554688 19.910156 16.523438 19.910156 16.492188 C 19.914062 16.410156 19.921875 16.332031 19.925781 16.253906 Z M 19.925781 16.253906 "/>
<path style=" stroke:none;fill-rule:nonzero;fill:rgb(6.27451%,6.27451%,6.27451%);fill-opacity:1;" d="M 11.996094 14.925781 C 12.125 14.964844 12.171875 15.027344 12.238281 15.140625 C 12.308594 15.277344 12.308594 15.277344 12.308594 15.355469 C 12.269531 15.367188 12.230469 15.382812 12.191406 15.394531 C 12.0625 15.289062 12.011719 15.15625 11.957031 15.003906 C 11.96875 14.976562 11.980469 14.953125 11.996094 14.925781 Z M 11.996094 14.925781 "/>
<path style=" stroke:none;fill-rule:nonzero;fill:rgb(93.333334%,93.333334%,93.333334%);fill-opacity:1;" d="M 12.894531 17.582031 C 12.984375 17.59375 13.074219 17.609375 13.167969 17.621094 C 13.128906 17.75 13.089844 17.878906 13.050781 18.011719 C 13.011719 18 12.972656 17.988281 12.933594 17.972656 C 12.921875 18 12.90625 18.023438 12.894531 18.050781 C 12.894531 17.898438 12.894531 17.742188 12.894531 17.582031 Z M 12.894531 17.582031 "/>
<path style=" stroke:none;fill-rule:nonzero;fill:rgb(72.549021%,20.392157%,20%);fill-opacity:1;" d="M 22.972656 17.972656 C 23.078125 17.972656 23.179688 17.972656 23.285156 17.972656 C 23.117188 18.183594 22.855469 18.296875 22.597656 18.355469 C 22.550781 18.359375 22.550781 18.359375 22.503906 18.363281 C 22.695312 18.167969 22.695312 18.167969 22.863281 18.167969 C 22.898438 18.167969 22.9375 18.167969 22.972656 18.167969 C 22.972656 18.117188 22.972656 18.066406 22.972656 18.011719 C 22.972656 18 22.972656 17.988281 22.972656 17.972656 Z M 22.972656 17.972656 "/>
<path style=" stroke:none;fill-rule:nonzero;fill:rgb(91.764706%,91.764706%,91.764706%);fill-opacity:1;" d="M 10.316406 17.035156 C 10.328125 17.035156 10.339844 17.035156 10.355469 17.035156 C 10.367188 17.125 10.378906 17.214844 10.394531 17.308594 C 10.457031 17.296875 10.523438 17.28125 10.589844 17.269531 C 10.589844 17.296875 10.589844 17.320312 10.589844 17.347656 C 10.613281 17.347656 10.640625 17.347656 10.667969 17.347656 C 10.710938 17.496094 10.710938 17.496094 10.667969 17.582031 C 10.546875 17.550781 10.453125 17.523438 10.359375 17.441406 C 10.292969 17.300781 10.308594 17.1875 10.316406 17.035156 Z M 10.316406 17.035156 "/>
<path style=" stroke:none;fill-rule:nonzero;fill:rgb(88.627452%,88.627452%,88.627452%);fill-opacity:1;" d="M 14.457031 15.472656 C 14.46875 15.535156 14.484375 15.601562 14.496094 15.667969 C 14.457031 15.6875 14.457031 15.6875 14.417969 15.707031 C 14.496094 15.769531 14.574219 15.835938 14.652344 15.902344 C 14.613281 15.921875 14.613281 15.921875 14.574219 15.941406 C 14.449219 15.886719 14.355469 15.839844 14.261719 15.746094 C 14.25 15.648438 14.25 15.648438 14.261719 15.550781 C 14.378906 15.472656 14.378906 15.472656 14.457031 15.472656 Z M 14.457031 15.472656 "/>
<path style=" stroke:none;fill-rule:nonzero;fill:rgb(69.01961%,21.568628%,23.137255%);fill-opacity:1;" d="M 23.285156 15.355469 C 23.351562 15.355469 23.414062 15.355469 23.480469 15.355469 C 23.347656 15.492188 23.210938 15.617188 23.058594 15.738281 C 23.003906 15.785156 23.003906 15.785156 22.945312 15.832031 C 22.914062 15.855469 22.886719 15.878906 22.855469 15.902344 C 22.832031 15.890625 22.804688 15.875 22.777344 15.863281 C 22.777344 15.835938 22.777344 15.8125 22.777344 15.785156 C 22.832031 15.785156 22.882812 15.785156 22.933594 15.785156 C 22.945312 15.761719 22.953125 15.738281 22.960938 15.710938 C 23.027344 15.605469 23.089844 15.585938 23.207031 15.550781 C 23.207031 15.511719 23.207031 15.472656 23.207031 15.433594 C 23.234375 15.433594 23.261719 15.433594 23.285156 15.433594 C 23.285156 15.40625 23.285156 15.382812 23.285156 15.355469 Z M 23.285156 15.355469 "/>
<path style=" stroke:none;fill-rule:nonzero;fill:rgb(97.647059%,83.92157%,83.137256%);fill-opacity:1;" d="M 22.777344 14.691406 C 22.871094 14.703125 22.960938 14.71875 23.050781 14.730469 C 23.050781 14.757812 23.050781 14.78125 23.050781 14.808594 C 23.097656 14.8125 23.097656 14.8125 23.144531 14.820312 C 23.261719 14.851562 23.285156 14.878906 23.363281 14.964844 C 23.441406 15.019531 23.519531 15.070312 23.597656 15.121094 C 23.5625 15.160156 23.523438 15.199219 23.480469 15.238281 C 23.464844 15.21875 23.449219 15.203125 23.433594 15.183594 C 23.269531 15.011719 23.101562 14.886719 22.894531 14.769531 C 22.859375 14.742188 22.820312 14.71875 22.777344 14.691406 Z M 22.777344 14.691406 "/>
<path style=" stroke:none;fill-rule:nonzero;fill:rgb(96.470588%,96.470588%,96.078432%);fill-opacity:1;" d="M 14.925781 15.746094 C 14.964844 15.847656 15.003906 15.953125 15.042969 16.058594 C 14.980469 16.042969 14.914062 16.023438 14.851562 16.007812 C 14.816406 15.996094 14.78125 15.988281 14.746094 15.976562 C 14.652344 15.941406 14.652344 15.941406 14.574219 15.824219 C 14.695312 15.75 14.785156 15.738281 14.925781 15.746094 Z M 14.925781 15.746094 "/>
<path style=" stroke:none;fill-rule:nonzero;fill:rgb(68.235296%,18.431373%,19.215687%);fill-opacity:1;" d="M 22.503906 14.613281 C 22.8125 14.679688 23.046875 14.800781 23.285156 15.003906 C 23.300781 15.03125 23.3125 15.054688 23.324219 15.082031 C 23.304688 15.070312 23.285156 15.0625 23.265625 15.050781 C 23.1875 15.011719 23.105469 14.976562 23.027344 14.945312 C 22.894531 14.886719 22.894531 14.886719 22.855469 14.808594 C 22.765625 14.792969 22.675781 14.777344 22.582031 14.769531 C 22.582031 14.742188 22.582031 14.71875 22.582031 14.691406 C 22.558594 14.691406 22.53125 14.691406 22.503906 14.691406 C 22.503906 14.664062 22.503906 14.640625 22.503906 14.613281 Z M 22.503906 14.613281 "/>
<path style=" stroke:none;fill-rule:nonzero;fill:rgb(7.843138%,7.843138%,7.843138%);fill-opacity:1;" d="M 13.363281 17.230469 C 13.414062 17.230469 13.464844 17.230469 13.519531 17.230469 C 13.542969 17.296875 13.570312 17.359375 13.597656 17.425781 C 13.585938 17.4375 13.570312 17.453125 13.558594 17.464844 C 13.546875 17.492188 13.53125 17.515625 13.519531 17.542969 C 13.492188 17.53125 13.46875 17.515625 13.441406 17.503906 C 13.441406 17.476562 13.441406 17.453125 13.441406 17.425781 C 13.414062 17.425781 13.390625 17.425781 13.363281 17.425781 C 13.351562 17.464844 13.335938 17.503906 13.324219 17.542969 C 13.285156 17.542969 13.246094 17.542969 13.207031 17.542969 C 13.273438 17.320312 13.273438 17.320312 13.363281 17.230469 Z M 13.363281 17.230469 "/>
<path style=" stroke:none;fill-rule:nonzero;fill:rgb(69.411767%,19.607843%,20.784314%);fill-opacity:1;" d="M 21.332031 15.707031 C 21.371094 15.71875 21.410156 15.734375 21.449219 15.746094 C 21.425781 15.773438 21.425781 15.773438 21.402344 15.804688 C 21.164062 16.105469 21.125 16.386719 21.097656 16.761719 C 21.085938 16.761719 21.074219 16.761719 21.058594 16.761719 C 21.046875 16.386719 21.042969 16.105469 21.253906 15.785156 C 21.28125 15.785156 21.308594 15.785156 21.332031 15.785156 C 21.332031 15.757812 21.332031 15.734375 21.332031 15.707031 Z M 21.332031 15.707031 "/>
<path style=" stroke:none;fill-rule:nonzero;fill:rgb(81.960785%,81.960785%,81.568629%);fill-opacity:1;" d="M 15.199219 14.496094 C 15.199219 14.523438 15.199219 14.546875 15.199219 14.574219 C 15.261719 14.5625 15.328125 14.546875 15.394531 14.535156 C 15.421875 14.585938 15.445312 14.636719 15.472656 14.691406 C 15.421875 14.679688 15.371094 14.667969 15.320312 14.65625 C 15.011719 14.589844 14.695312 14.585938 14.378906 14.574219 C 14.378906 14.5625 14.378906 14.546875 14.378906 14.535156 C 14.480469 14.527344 14.578125 14.523438 14.679688 14.515625 C 14.707031 14.511719 14.734375 14.511719 14.765625 14.507812 C 14.910156 14.5 15.054688 14.492188 15.199219 14.496094 Z M 15.199219 14.496094 "/>
<path style=" stroke:none;fill-rule:nonzero;fill:rgb(90.196079%,90.196079%,90.196079%);fill-opacity:1;" d="M 15.589844 18.167969 C 15.617188 18.179688 15.640625 18.195312 15.667969 18.207031 C 15.601562 18.273438 15.539062 18.335938 15.472656 18.402344 C 15.484375 18.429688 15.5 18.453125 15.511719 18.480469 C 15.347656 18.535156 15.273438 18.472656 15.121094 18.402344 C 15.21875 18.335938 15.308594 18.289062 15.417969 18.238281 C 15.445312 18.226562 15.476562 18.210938 15.507812 18.195312 C 15.535156 18.1875 15.5625 18.179688 15.589844 18.167969 Z M 15.589844 18.167969 "/>
<path style=" stroke:none;fill-rule:nonzero;fill:rgb(90.196079%,90.196079%,90.196079%);fill-opacity:1;" d="M 19.613281 15.355469 C 19.640625 15.355469 19.664062 15.355469 19.691406 15.355469 C 19.679688 15.40625 19.667969 15.457031 19.652344 15.511719 C 19.679688 15.523438 19.703125 15.539062 19.730469 15.550781 C 19.71875 15.628906 19.707031 15.707031 19.691406 15.785156 C 19.679688 15.757812 19.667969 15.734375 19.652344 15.707031 C 19.535156 15.785156 19.511719 15.816406 19.457031 15.941406 C 19.40625 15.785156 19.449219 15.730469 19.515625 15.582031 C 19.53125 15.539062 19.550781 15.496094 19.570312 15.453125 C 19.585938 15.421875 19.597656 15.390625 19.613281 15.355469 Z M 19.613281 15.355469 "/>
<path style=" stroke:none;fill-rule:nonzero;fill:rgb(70.19608%,21.176471%,22.352941%);fill-opacity:1;" d="M 20.316406 17.582031 C 20.355469 17.59375 20.394531 17.609375 20.433594 17.621094 C 20.433594 17.648438 20.433594 17.671875 20.433594 17.699219 C 20.460938 17.699219 20.484375 17.699219 20.511719 17.699219 C 20.535156 17.730469 20.5625 17.761719 20.585938 17.792969 C 20.660156 17.894531 20.660156 17.894531 20.746094 17.933594 C 20.855469 17.988281 20.910156 18.070312 20.980469 18.167969 C 20.769531 18.109375 20.628906 17.964844 20.472656 17.816406 C 20.425781 17.773438 20.425781 17.773438 20.375 17.726562 C 20.316406 17.660156 20.316406 17.660156 20.316406 17.582031 Z M 20.316406 17.582031 "/>
<path style=" stroke:none;fill-rule:nonzero;fill:rgb(71.764708%,17.254902%,19.215687%);fill-opacity:1;" d="M 22.894531 16.996094 C 22.992188 17.035156 22.992188 17.035156 23.089844 17.074219 C 23.089844 17.085938 23.089844 17.101562 23.089844 17.113281 C 23.058594 17.117188 23.027344 17.125 22.996094 17.128906 C 22.945312 17.140625 22.945312 17.140625 22.894531 17.152344 C 22.882812 17.179688 22.871094 17.203125 22.855469 17.230469 C 22.832031 17.230469 22.804688 17.230469 22.777344 17.230469 C 22.777344 17.269531 22.777344 17.308594 22.777344 17.347656 C 22.660156 17.425781 22.660156 17.425781 22.542969 17.425781 C 22.601562 17.277344 22.691406 17.210938 22.816406 17.113281 C 22.84375 17.074219 22.871094 17.035156 22.894531 16.996094 Z M 22.894531 16.996094 "/>
<path style=" stroke:none;fill-rule:nonzero;fill:rgb(74.117649%,20%,20%);fill-opacity:1;" d="M 20.980469 14.925781 C 20.835938 15.042969 20.835938 15.042969 20.746094 15.042969 C 20.746094 15.070312 20.746094 15.09375 20.746094 15.121094 C 20.722656 15.121094 20.695312 15.121094 20.667969 15.121094 C 20.667969 15.148438 20.667969 15.171875 20.667969 15.199219 C 20.589844 15.210938 20.515625 15.226562 20.433594 15.238281 C 20.695312 14.914062 20.695312 14.914062 20.980469 14.925781 Z M 20.980469 14.925781 "/>
<path style=" stroke:none;fill-rule:nonzero;fill:rgb(73.725492%,23.921569%,26.666668%);fill-opacity:1;" d="M 20.980469 18.167969 C 21.230469 18.1875 21.421875 18.253906 21.644531 18.363281 C 21.496094 18.421875 21.394531 18.382812 21.246094 18.332031 C 21.207031 18.316406 21.164062 18.304688 21.121094 18.289062 C 21.019531 18.246094 21.019531 18.246094 20.980469 18.167969 Z M 20.980469 18.167969 "/>
<path style=" stroke:none;fill-rule:nonzero;fill:rgb(95.294118%,95.294118%,95.294118%);fill-opacity:1;" d="M 13.832031 14.496094 C 13.972656 14.488281 13.972656 14.488281 14.105469 14.496094 C 14.105469 14.523438 14.105469 14.546875 14.105469 14.574219 C 14.144531 14.585938 14.183594 14.601562 14.222656 14.613281 C 14.007812 14.671875 14.007812 14.671875 13.792969 14.730469 C 13.78125 14.691406 13.765625 14.652344 13.753906 14.613281 C 13.777344 14.574219 13.804688 14.535156 13.832031 14.496094 Z M 13.832031 14.496094 "/>
<path style=" stroke:none;fill-rule:nonzero;fill:rgb(98.431373%,88.627452%,87.843138%);fill-opacity:1;" d="M 20.316406 15.160156 C 20.34375 15.199219 20.367188 15.238281 20.394531 15.277344 C 20.28125 15.46875 20.28125 15.46875 20.160156 15.667969 C 20.113281 15.476562 20.113281 15.476562 20.160156 15.355469 C 20.210938 15.289062 20.261719 15.222656 20.316406 15.160156 Z M 20.316406 15.160156 "/>
<path style=" stroke:none;fill-rule:nonzero;fill:rgb(94.117647%,94.117647%,93.333334%);fill-opacity:1;" d="M 14.847656 15.472656 C 15.019531 15.511719 15.019531 15.511719 15.199219 15.550781 C 15.148438 15.628906 15.148438 15.628906 15.082031 15.707031 C 14.945312 15.707031 14.910156 15.675781 14.808594 15.589844 C 14.820312 15.550781 14.835938 15.511719 14.847656 15.472656 Z M 14.847656 15.472656 "/>
<path style=" stroke:none;fill-rule:nonzero;fill:rgb(98.039216%,88.235295%,86.274511%);fill-opacity:1;" d="M 22.035156 15.542969 C 22.082031 15.542969 22.132812 15.542969 22.183594 15.542969 C 22.308594 15.550781 22.308594 15.550781 22.425781 15.628906 C 22.371094 15.628906 22.371094 15.628906 22.3125 15.628906 C 22.261719 15.628906 22.210938 15.625 22.160156 15.625 C 22.113281 15.625 22.0625 15.625 22.011719 15.625 C 21.878906 15.621094 21.878906 15.621094 21.761719 15.667969 C 21.738281 15.640625 21.710938 15.617188 21.683594 15.589844 C 21.800781 15.53125 21.90625 15.542969 22.035156 15.542969 Z M 22.035156 15.542969 "/>
<path style=" stroke:none;fill-rule:nonzero;fill:rgb(72.941178%,19.215687%,21.568628%);fill-opacity:1;" d="M 22.074219 15.472656 C 22.132812 15.46875 22.1875 15.46875 22.246094 15.464844 C 22.292969 15.464844 22.292969 15.464844 22.339844 15.460938 C 22.449219 15.476562 22.472656 15.507812 22.542969 15.589844 C 22.582031 15.617188 22.621094 15.640625 22.660156 15.667969 C 22.648438 15.695312 22.636719 15.71875 22.621094 15.746094 C 22.601562 15.734375 22.582031 15.726562 22.5625 15.714844 C 22.402344 15.632812 22.25 15.5625 22.074219 15.511719 C 22.074219 15.5 22.074219 15.484375 22.074219 15.472656 Z M 22.074219 15.472656 "/>
<path style=" stroke:none;fill-rule:nonzero;fill:rgb(93.333334%,93.333334%,93.333334%);fill-opacity:1;" d="M 18.324219 18.480469 C 18.375 18.507812 18.429688 18.53125 18.480469 18.558594 C 18.46875 18.609375 18.457031 18.664062 18.441406 18.714844 C 18.417969 18.714844 18.390625 18.714844 18.363281 18.714844 C 18.363281 18.742188 18.363281 18.765625 18.363281 18.792969 C 18.3125 18.78125 18.261719 18.769531 18.207031 18.753906 C 18.246094 18.664062 18.285156 18.574219 18.324219 18.480469 Z M 18.324219 18.480469 "/>
<path style=" stroke:none;fill-rule:nonzero;fill:rgb(91.764706%,91.764706%,91.37255%);fill-opacity:1;" d="M 9.691406 14.847656 C 9.742188 14.875 9.792969 14.898438 9.847656 14.925781 C 9.769531 15.015625 9.691406 15.105469 9.613281 15.199219 C 9.574219 15.171875 9.535156 15.148438 9.496094 15.121094 C 9.535156 15.042969 9.535156 15.042969 9.613281 14.925781 C 9.636719 14.925781 9.664062 14.925781 9.691406 14.925781 C 9.691406 14.898438 9.691406 14.875 9.691406 14.847656 Z M 9.691406 14.847656 "/>
<path style=" stroke:none;fill-rule:nonzero;fill:rgb(97.647059%,86.666667%,84.313726%);fill-opacity:1;" d="M 23.363281 17.894531 C 23.390625 17.945312 23.417969 18 23.441406 18.050781 C 23.300781 18.148438 23.183594 18.1875 23.011719 18.207031 C 23.125 18.09375 23.238281 17.992188 23.363281 17.894531 Z M 23.363281 17.894531 "/>
<path style=" stroke:none;fill-rule:nonzero;fill:rgb(92.156863%,92.156863%,92.156863%);fill-opacity:1;" d="M 11.164062 17.363281 C 11.191406 17.371094 11.222656 17.378906 11.253906 17.386719 C 11.140625 17.515625 11.070312 17.5625 10.902344 17.582031 C 10.914062 17.507812 10.914062 17.507812 10.941406 17.425781 C 11.058594 17.347656 11.058594 17.347656 11.164062 17.363281 Z M 11.164062 17.363281 "/>
<path style=" stroke:none;fill-rule:nonzero;fill:rgb(98.823529%,85.882354%,84.705883%);fill-opacity:1;" d="M 20.433594 17.777344 C 20.480469 17.816406 20.523438 17.851562 20.566406 17.890625 C 20.589844 17.910156 20.617188 17.933594 20.640625 17.953125 C 20.691406 17.996094 20.738281 18.042969 20.785156 18.089844 C 20.707031 18.089844 20.632812 18.089844 20.550781 18.089844 C 20.472656 17.953125 20.472656 17.953125 20.394531 17.816406 C 20.410156 17.804688 20.421875 17.792969 20.433594 17.777344 Z M 20.433594 17.777344 "/>
<path style=" stroke:none;fill-rule:nonzero;fill:rgb(96.470588%,91.37255%,89.411765%);fill-opacity:1;" d="M 23.441406 15.394531 C 23.480469 15.472656 23.480469 15.472656 23.480469 15.589844 C 23.421875 15.65625 23.421875 15.65625 23.363281 15.707031 C 23.328125 15.679688 23.289062 15.65625 23.246094 15.628906 C 23.300781 15.503906 23.324219 15.472656 23.441406 15.394531 Z M 23.441406 15.394531 "/>
<path style=" stroke:none;fill-rule:nonzero;fill:rgb(82.745099%,13.725491%,11.764706%);fill-opacity:1;" d="M 22.425781 18.285156 C 22.453125 18.3125 22.480469 18.335938 22.503906 18.363281 C 22.4375 18.367188 22.367188 18.367188 22.296875 18.367188 C 22.238281 18.371094 22.238281 18.371094 22.179688 18.371094 C 22.074219 18.363281 22.074219 18.363281 21.957031 18.285156 C 22.304688 18.234375 22.304688 18.234375 22.425781 18.285156 Z M 22.425781 18.285156 "/>
<path style=" stroke:none;fill-rule:nonzero;fill:rgb(5.882353%,5.882353%,5.882353%);fill-opacity:1;" d="M 18.363281 17.933594 C 18.414062 17.945312 18.46875 17.960938 18.519531 17.972656 C 18.5 18.105469 18.480469 18.171875 18.402344 18.285156 C 18.402344 18.222656 18.402344 18.15625 18.402344 18.089844 C 18.363281 18.089844 18.324219 18.089844 18.285156 18.089844 C 18.285156 18.066406 18.285156 18.039062 18.285156 18.011719 C 18.3125 18.011719 18.335938 18.011719 18.363281 18.011719 C 18.363281 17.988281 18.363281 17.960938 18.363281 17.933594 Z M 18.363281 17.933594 "/>
<path style=" stroke:none;fill-rule:nonzero;fill:rgb(92.941177%,92.941177%,92.941177%);fill-opacity:1;" d="M 11.019531 16.722656 C 11.003906 16.75 10.992188 16.773438 10.980469 16.800781 C 10.953125 16.789062 10.925781 16.773438 10.902344 16.761719 C 10.914062 16.800781 10.925781 16.839844 10.941406 16.878906 C 10.851562 16.890625 10.757812 16.90625 10.667969 16.917969 C 10.679688 16.867188 10.691406 16.816406 10.707031 16.761719 C 10.820312 16.730469 10.898438 16.722656 11.019531 16.722656 Z M 11.019531 16.722656 "/>
<path style=" stroke:none;fill-rule:nonzero;fill:rgb(97.647059%,87.450981%,86.666667%);fill-opacity:1;" d="M 23.089844 15.667969 C 23.089844 15.792969 23.082031 15.839844 23.011719 15.941406 C 22.910156 15.96875 22.910156 15.96875 22.816406 15.980469 C 22.816406 15.941406 22.816406 15.902344 22.816406 15.863281 C 22.910156 15.800781 22.910156 15.800781 23.011719 15.746094 C 23.039062 15.71875 23.066406 15.695312 23.089844 15.667969 Z M 23.089844 15.667969 "/>
<path style=" stroke:none;fill-rule:nonzero;fill:rgb(84.705883%,84.705883%,84.313726%);fill-opacity:1;" d="M 10.667969 15.472656 C 10.742188 15.46875 10.816406 15.46875 10.894531 15.464844 C 10.9375 15.464844 10.976562 15.460938 11.023438 15.460938 C 11.136719 15.472656 11.136719 15.472656 11.210938 15.53125 C 11.222656 15.550781 11.238281 15.570312 11.253906 15.589844 C 11.226562 15.617188 11.203125 15.640625 11.175781 15.667969 C 11.136719 15.667969 11.097656 15.667969 11.058594 15.667969 C 11.058594 15.628906 11.058594 15.589844 11.058594 15.550781 C 10.929688 15.539062 10.800781 15.523438 10.667969 15.511719 C 10.667969 15.5 10.667969 15.484375 10.667969 15.472656 Z M 10.667969 15.472656 "/>
<path style=" stroke:none;fill-rule:nonzero;fill:rgb(71.372551%,23.529412%,23.921569%);fill-opacity:1;" d="M 20.394531 15.238281 C 20.433594 15.316406 20.433594 15.316406 20.40625 15.457031 C 20.390625 15.5 20.375 15.542969 20.355469 15.589844 C 20.316406 15.601562 20.277344 15.617188 20.238281 15.628906 C 20.226562 15.65625 20.214844 15.679688 20.199219 15.707031 C 20.175781 15.695312 20.148438 15.679688 20.121094 15.667969 C 20.210938 15.527344 20.300781 15.382812 20.394531 15.238281 Z M 20.394531 15.238281 "/>
<path style=" stroke:none;fill-rule:nonzero;fill:rgb(98.431373%,86.274511%,83.92157%);fill-opacity:1;" d="M 20.988281 14.746094 C 21.023438 14.757812 21.023438 14.757812 21.058594 14.769531 C 21.003906 14.808594 20.949219 14.847656 20.890625 14.890625 C 20.84375 14.921875 20.84375 14.921875 20.796875 14.957031 C 20.765625 14.972656 20.738281 14.988281 20.707031 15.003906 C 20.667969 14.992188 20.628906 14.976562 20.589844 14.964844 C 20.882812 14.726562 20.882812 14.726562 20.988281 14.746094 Z M 20.988281 14.746094 "/>
<path style=" stroke:none;fill-rule:nonzero;fill:rgb(91.764706%,91.764706%,91.764706%);fill-opacity:1;" d="M 18.675781 17.621094 C 18.714844 17.632812 18.753906 17.648438 18.792969 17.660156 C 18.78125 17.726562 18.769531 17.789062 18.753906 17.855469 C 18.703125 17.867188 18.652344 17.882812 18.597656 17.894531 C 18.632812 17.710938 18.632812 17.710938 18.675781 17.621094 Z M 18.675781 17.621094 "/>
<path style=" stroke:none;fill-rule:nonzero;fill:rgb(98.431373%,87.058824%,85.09804%);fill-opacity:1;" d="M 23.089844 17.074219 C 23.195312 17.085938 23.296875 17.101562 23.402344 17.113281 C 23.402344 17.140625 23.402344 17.164062 23.402344 17.191406 C 23.457031 17.21875 23.507812 17.242188 23.558594 17.269531 C 23.523438 17.289062 23.523438 17.289062 23.480469 17.308594 C 23.390625 17.269531 23.390625 17.269531 23.28125 17.214844 C 23.246094 17.195312 23.210938 17.175781 23.175781 17.15625 C 23.148438 17.144531 23.121094 17.128906 23.089844 17.113281 C 23.089844 17.101562 23.089844 17.085938 23.089844 17.074219 Z M 23.089844 17.074219 "/>
<path style=" stroke:none;fill-rule:nonzero;fill:rgb(98.823529%,85.882354%,86.666667%);fill-opacity:1;" d="M 21.175781 16.878906 C 21.203125 16.878906 21.230469 16.878906 21.253906 16.878906 C 21.269531 16.929688 21.28125 16.980469 21.292969 17.035156 C 21.359375 17.023438 21.421875 17.007812 21.488281 16.996094 C 21.476562 17.074219 21.464844 17.152344 21.449219 17.230469 C 21.304688 17.128906 21.230469 17.050781 21.175781 16.878906 Z M 21.488281 16.957031 C 21.566406 16.996094 21.566406 16.996094 21.566406 16.996094 Z M 21.488281 16.957031 "/>
<path style=" stroke:none;fill-rule:nonzero;fill:rgb(96.862745%,95.294118%,93.725491%);fill-opacity:1;" d="M 23.207031 15.589844 C 23.222656 15.628906 23.234375 15.667969 23.246094 15.707031 C 23.222656 15.707031 23.195312 15.707031 23.167969 15.707031 C 23.179688 15.730469 23.1875 15.753906 23.195312 15.777344 C 23.207031 15.863281 23.207031 15.863281 23.15625 15.929688 C 23.089844 15.980469 23.089844 15.980469 23.011719 15.980469 C 23.058594 15.828125 23.105469 15.710938 23.207031 15.589844 Z M 23.207031 15.589844 "/>
<path style=" stroke:none;fill-rule:nonzero;fill:rgb(98.823529%,93.333334%,91.37255%);fill-opacity:1;" d="M 21.292969 14.574219 C 21.28125 14.613281 21.269531 14.652344 21.253906 14.691406 C 21.191406 14.703125 21.125 14.71875 21.058594 14.730469 C 21.058594 14.679688 21.058594 14.628906 21.058594 14.574219 C 21.15625 14.523438 21.191406 14.542969 21.292969 14.574219 Z M 21.292969 14.574219 "/>
<path style=" stroke:none;fill-rule:nonzero;fill:rgb(95.294118%,95.294118%,94.509804%);fill-opacity:1;" d="M 8.597656 13.246094 C 8.703125 13.300781 8.734375 13.378906 8.792969 13.480469 C 8.667969 13.480469 8.621094 13.457031 8.519531 13.402344 C 8.519531 13.363281 8.519531 13.324219 8.519531 13.285156 C 8.542969 13.273438 8.570312 13.257812 8.597656 13.246094 Z M 8.597656 13.246094 "/>
<path style=" stroke:none;fill-rule:nonzero;fill:rgb(72.549021%,21.176471%,21.176471%);fill-opacity:1;" d="M 23.207031 17.152344 C 23.382812 17.230469 23.382812 17.230469 23.558594 17.308594 C 23.546875 17.347656 23.535156 17.386719 23.519531 17.425781 C 23.46875 17.414062 23.417969 17.398438 23.363281 17.386719 C 23.363281 17.347656 23.363281 17.308594 23.363281 17.269531 C 23.3125 17.257812 23.261719 17.242188 23.207031 17.230469 C 23.207031 17.203125 23.207031 17.179688 23.207031 17.152344 Z M 23.207031 17.152344 "/>
<path style=" stroke:none;fill-rule:nonzero;fill:rgb(98.823529%,88.235295%,86.666667%);fill-opacity:1;" d="M 21.449219 17.230469 C 21.628906 17.257812 21.789062 17.320312 21.957031 17.386719 C 21.957031 17.398438 21.957031 17.414062 21.957031 17.425781 C 21.738281 17.449219 21.628906 17.386719 21.449219 17.269531 C 21.449219 17.257812 21.449219 17.242188 21.449219 17.230469 Z M 21.449219 17.230469 "/>
<path style=" stroke:none;fill-rule:nonzero;fill:rgb(7.450981%,7.450981%,7.450981%);fill-opacity:1;" d="M 15.277344 16.136719 C 15.414062 16.195312 15.414062 16.195312 15.550781 16.253906 C 15.511719 16.3125 15.511719 16.3125 15.472656 16.371094 C 15.382812 16.34375 15.292969 16.320312 15.199219 16.292969 C 15.226562 16.242188 15.25 16.191406 15.277344 16.136719 Z M 15.277344 16.136719 "/>
<path style=" stroke:none;fill-rule:nonzero;fill:rgb(98.431373%,87.058824%,84.705883%);fill-opacity:1;" d="M 23.011719 18.207031 C 23.011719 18.246094 23.011719 18.285156 23.011719 18.324219 C 22.800781 18.410156 22.800781 18.410156 22.6875 18.367188 C 22.664062 18.355469 22.644531 18.339844 22.621094 18.324219 C 22.671875 18.304688 22.722656 18.285156 22.773438 18.265625 C 22.816406 18.25 22.816406 18.25 22.859375 18.234375 C 22.933594 18.207031 22.933594 18.207031 23.011719 18.207031 Z M 23.011719 18.207031 "/>
<path style=" stroke:none;fill-rule:nonzero;fill:rgb(98.823529%,85.490197%,85.09804%);fill-opacity:1;" d="M 20.785156 18.089844 C 20.929688 18.15625 21.070312 18.21875 21.214844 18.285156 C 21.140625 18.324219 21.140625 18.324219 21.058594 18.363281 C 21.015625 18.332031 20.96875 18.300781 20.921875 18.269531 C 20.898438 18.253906 20.871094 18.238281 20.847656 18.21875 C 20.828125 18.203125 20.808594 18.1875 20.785156 18.167969 C 20.785156 18.144531 20.785156 18.117188 20.785156 18.089844 Z M 20.785156 18.089844 "/>
<path style=" stroke:none;fill-rule:nonzero;fill:rgb(98.039216%,82.745099%,83.529413%);fill-opacity:1;" d="M 23.636719 17.542969 C 23.664062 17.609375 23.664062 17.609375 23.675781 17.699219 C 23.621094 17.808594 23.621094 17.808594 23.558594 17.894531 C 23.507812 17.882812 23.457031 17.871094 23.402344 17.855469 C 23.453125 17.796875 23.503906 17.738281 23.554688 17.679688 C 23.601562 17.621094 23.601562 17.621094 23.636719 17.542969 Z M 23.636719 17.542969 "/>
<path style=" stroke:none;fill-rule:nonzero;fill:rgb(7.450981%,7.450981%,7.058824%);fill-opacity:1;" d="M 9.535156 17.933594 C 9.550781 17.953125 9.566406 17.972656 9.585938 17.988281 C 9.652344 18.058594 9.652344 18.058594 9.769531 18.089844 C 9.753906 18.128906 9.742188 18.167969 9.730469 18.207031 C 9.625 18.167969 9.582031 18.144531 9.523438 18.046875 C 9.515625 18.023438 9.503906 17.996094 9.496094 17.972656 C 9.507812 17.960938 9.519531 17.949219 9.535156 17.933594 Z M 9.535156 17.933594 "/>
<path style=" stroke:none;fill-rule:nonzero;fill:rgb(90.196079%,90.196079%,89.803922%);fill-opacity:1;" d="M 14.808594 15.863281 C 14.882812 15.871094 14.882812 15.871094 14.964844 15.902344 C 15.011719 15.984375 15.011719 15.984375 15.042969 16.058594 C 14.941406 16.03125 14.835938 16.007812 14.730469 15.980469 C 14.757812 15.941406 14.78125 15.902344 14.808594 15.863281 Z M 14.808594 15.863281 "/>
<path style=" stroke:none;fill-rule:nonzero;fill:rgb(91.764706%,91.764706%,90.980393%);fill-opacity:1;" d="M 9.457031 15.707031 C 9.570312 15.746094 9.6875 15.785156 9.808594 15.824219 C 9.808594 15.835938 9.808594 15.851562 9.808594 15.863281 C 9.742188 15.863281 9.679688 15.863281 9.613281 15.863281 C 9.597656 15.890625 9.585938 15.914062 9.574219 15.941406 C 9.546875 15.929688 9.519531 15.914062 9.496094 15.902344 C 9.46875 15.800781 9.46875 15.800781 9.457031 15.707031 Z M 9.457031 15.707031 "/>
<path style=" stroke:none;fill-rule:nonzero;fill:rgb(79.215688%,17.647059%,16.470589%);fill-opacity:1;" d="M 23.011719 17.113281 C 23.078125 17.125 23.140625 17.140625 23.207031 17.152344 C 23.15625 17.203125 23.105469 17.253906 23.050781 17.308594 C 23.015625 17.296875 22.976562 17.28125 22.933594 17.269531 C 22.933594 17.242188 22.933594 17.21875 22.933594 17.191406 C 22.960938 17.191406 22.988281 17.191406 23.011719 17.191406 C 23.011719 17.164062 23.011719 17.140625 23.011719 17.113281 Z M 23.011719 17.113281 "/>
<path style=" stroke:none;fill-rule:nonzero;fill:rgb(78.823531%,17.254902%,18.82353%);fill-opacity:1;" d="M 21.097656 16.839844 C 21.125 16.839844 21.152344 16.839844 21.175781 16.839844 C 21.203125 16.910156 21.203125 16.910156 21.214844 16.996094 C 21.164062 17.066406 21.164062 17.066406 21.097656 17.113281 C 21.085938 17.113281 21.074219 17.113281 21.058594 17.113281 C 21.074219 17.023438 21.085938 16.933594 21.097656 16.839844 Z M 21.097656 16.839844 "/>
<path style=" stroke:none;fill-rule:nonzero;fill:rgb(97.647059%,87.843138%,88.627452%);fill-opacity:1;" d="M 21.371094 15.785156 C 21.378906 15.824219 21.378906 15.824219 21.386719 15.859375 C 21.398438 15.902344 21.398438 15.902344 21.410156 15.941406 C 21.4375 15.953125 21.464844 15.96875 21.488281 15.980469 C 21.425781 16.007812 21.359375 16.03125 21.292969 16.058594 C 21.28125 16.019531 21.269531 15.980469 21.253906 15.941406 C 21.3125 15.855469 21.3125 15.855469 21.371094 15.785156 Z M 21.371094 15.785156 "/>
<path style=" stroke:none;fill-rule:nonzero;fill:rgb(8.627451%,8.627451%,8.627451%);fill-opacity:1;" d="M 14.222656 15.628906 C 14.285156 15.695312 14.285156 15.695312 14.339844 15.785156 C 14.328125 15.871094 14.328125 15.871094 14.300781 15.941406 C 14.261719 15.941406 14.222656 15.941406 14.183594 15.941406 C 14.195312 15.839844 14.207031 15.734375 14.222656 15.628906 Z M 14.222656 15.628906 "/>
<path style=" stroke:none;fill-rule:nonzero;fill:rgb(9.803922%,9.803922%,9.803922%);fill-opacity:1;" d="M 13.363281 15.082031 C 13.40625 15.21875 13.40625 15.332031 13.402344 15.472656 C 13.375 15.460938 13.351562 15.445312 13.324219 15.433594 C 13.324219 15.40625 13.324219 15.382812 13.324219 15.355469 C 13.296875 15.34375 13.273438 15.328125 13.246094 15.316406 C 13.285156 15.238281 13.324219 15.160156 13.363281 15.082031 Z M 13.363281 15.082031 "/>
<path style=" stroke:none;fill-rule:nonzero;fill:rgb(6.666667%,6.666667%,6.666667%);fill-opacity:1;" d="M 11.644531 18.089844 C 11.695312 18.089844 11.746094 18.089844 11.800781 18.089844 C 11.824219 18.140625 11.851562 18.195312 11.878906 18.246094 C 11.828125 18.246094 11.773438 18.246094 11.722656 18.246094 C 11.695312 18.195312 11.671875 18.144531 11.644531 18.089844 Z M 11.644531 18.089844 "/>
<path style=" stroke:none;fill-rule:nonzero;fill:rgb(6.666667%,6.666667%,6.666667%);fill-opacity:1;" d="M 15.394531 17.933594 C 15.457031 17.933594 15.523438 17.933594 15.589844 17.933594 C 15.601562 17.972656 15.617188 18.011719 15.628906 18.050781 C 15.65625 18.078125 15.679688 18.101562 15.707031 18.128906 C 15.667969 18.148438 15.667969 18.148438 15.628906 18.167969 C 15.523438 18.09375 15.46875 18.042969 15.394531 17.933594 Z M 15.394531 17.933594 "/>
<path style=" stroke:none;fill-rule:nonzero;fill:rgb(93.333334%,93.333334%,93.333334%);fill-opacity:1;" d="M 18.910156 17.074219 C 18.949219 17.074219 18.988281 17.074219 19.027344 17.074219 C 19.027344 17.125 19.027344 17.175781 19.027344 17.230469 C 18.964844 17.257812 18.898438 17.28125 18.832031 17.308594 C 18.859375 17.230469 18.882812 17.152344 18.910156 17.074219 Z M 18.910156 17.074219 "/>
<path style=" stroke:none;fill-rule:nonzero;fill:rgb(73.725492%,24.705882%,28.627452%);fill-opacity:1;" d="M 22.894531 16.996094 C 22.992188 17.035156 22.992188 17.035156 23.089844 17.074219 C 23.089844 17.085938 23.089844 17.101562 23.089844 17.113281 C 23.0625 17.117188 23.03125 17.125 23 17.128906 C 22.890625 17.144531 22.890625 17.144531 22.816406 17.230469 C 22.816406 17.113281 22.816406 17.113281 22.894531 16.996094 Z M 22.894531 16.996094 "/>
<path style=" stroke:none;fill-rule:nonzero;fill:rgb(92.156863%,92.156863%,91.764706%);fill-opacity:1;" d="M 10.121094 14.648438 C 10.179688 14.652344 10.179688 14.652344 10.238281 14.652344 C 10.136719 14.730469 10.039062 14.792969 9.925781 14.847656 C 9.96875 14.652344 9.96875 14.652344 10.121094 14.648438 Z M 10.121094 14.648438 "/>
<path style=" stroke:none;fill-rule:nonzero;fill:rgb(94.509804%,94.509804%,93.725491%);fill-opacity:1;" d="M 17.152344 18.363281 C 17.210938 18.402344 17.210938 18.402344 17.269531 18.441406 C 17.242188 18.507812 17.21875 18.570312 17.191406 18.636719 C 17.164062 18.625 17.140625 18.613281 17.113281 18.597656 C 17.113281 18.53125 17.113281 18.46875 17.113281 18.402344 C 17.125 18.390625 17.140625 18.378906 17.152344 18.363281 Z M 17.152344 18.363281 "/>
<path style=" stroke:none;fill-rule:nonzero;fill:rgb(72.941178%,18.431373%,20.392157%);fill-opacity:1;" d="M 21.292969 18.285156 C 21.511719 18.269531 21.511719 18.269531 21.601562 18.34375 C 21.617188 18.363281 21.632812 18.382812 21.644531 18.402344 C 21.40625 18.378906 21.40625 18.378906 21.332031 18.363281 C 21.320312 18.339844 21.308594 18.3125 21.292969 18.285156 Z M 21.292969 18.285156 "/>
<path style=" stroke:none;fill-rule:nonzero;fill:rgb(6.27451%,6.27451%,6.27451%);fill-opacity:1;" d="M 18.636719 17.308594 C 18.675781 17.359375 18.714844 17.410156 18.753906 17.464844 C 18.730469 17.515625 18.703125 17.566406 18.675781 17.621094 C 18.597656 17.503906 18.597656 17.503906 18.613281 17.398438 C 18.621094 17.371094 18.628906 17.339844 18.636719 17.308594 Z M 18.519531 17.542969 C 18.546875 17.542969 18.570312 17.542969 18.597656 17.542969 C 18.585938 17.570312 18.574219 17.59375 18.558594 17.621094 C 18.546875 17.59375 18.535156 17.570312 18.519531 17.542969 Z M 18.519531 17.542969 "/>
<path style=" stroke:none;fill-rule:nonzero;fill:rgb(72.549021%,25.882354%,27.450982%);fill-opacity:1;" d="M 21.449219 14.613281 C 21.449219 14.640625 21.449219 14.664062 21.449219 14.691406 C 21.410156 14.691406 21.375 14.691406 21.332031 14.691406 C 21.332031 14.71875 21.332031 14.742188 21.332031 14.769531 C 21.269531 14.757812 21.203125 14.742188 21.136719 14.730469 C 21.3125 14.613281 21.3125 14.613281 21.449219 14.613281 Z M 21.449219 14.613281 "/>
</g>
</svg>
