<?xml version="1.0" encoding="UTF-8"?>
<svg xmlns="http://www.w3.org/2000/svg" xmlns:xlink="http://www.w3.org/1999/xlink" width="32px" height="32px" viewBox="0 0 32 32" version="1.1">
<g id="surface1">
<path style=" stroke:none;fill-rule:nonzero;fill:rgb(94.901961%,95.686275%,96.078432%);fill-opacity:1;" d="M 20.480469 0.480469 C 20.753906 0.558594 20.753906 0.558594 21.03125 0.640625 C 25.125 1.964844 28.390625 4.839844 30.402344 8.625 C 32.257812 12.296875 32.710938 16.847656 31.472656 20.796875 C 30 25.089844 27.097656 28.519531 23.035156 30.570312 C 22.207031 30.964844 21.363281 31.265625 20.480469 31.519531 C 20.304688 31.570312 20.132812 31.621094 19.953125 31.675781 C 17.285156 32.328125 14.15625 32.292969 11.519531 31.519531 C 11.246094 31.441406 11.246094 31.441406 10.96875 31.359375 C 6.796875 30.011719 3.542969 27.070312 1.515625 23.214844 C 0.410156 20.875 -0.0625 18.609375 -0.0507812 16.03125 C -0.0507812 15.832031 -0.046875 15.632812 -0.046875 15.429688 C -0.03125 14.058594 0.0585938 12.828125 0.480469 11.519531 C 0.53125 11.34375 0.585938 11.164062 0.640625 10.980469 C 1.964844 6.871094 4.835938 3.597656 8.640625 1.601562 C 12.203125 -0.1875 16.632812 -0.648438 20.480469 0.480469 Z M 20.480469 0.480469 "/>
<path style=" stroke:none;fill-rule:nonzero;fill:rgb(95.686275%,96.078432%,96.078432%);fill-opacity:1;" d="M 20.480469 0.480469 C 20.753906 0.558594 20.753906 0.558594 21.03125 0.640625 C 25.050781 1.941406 28.144531 4.691406 30.238281 8.320312 C 30.351562 8.582031 30.464844 8.851562 30.558594 9.121094 C 30.140625 9.027344 29.746094 8.902344 29.335938 8.765625 C 29.226562 8.726562 29.121094 8.691406 29.007812 8.652344 C 28.785156 8.578125 28.558594 8.5 28.335938 8.421875 C 27.566406 8.167969 27.035156 8.148438 26.238281 8.320312 C 26.238281 8.425781 26.238281 8.53125 26.238281 8.640625 C 26.140625 8.691406 26.042969 8.746094 25.9375 8.800781 C 24.625 9.503906 23.351562 10.265625 22.078125 11.039062 C 21.667969 10.628906 21.640625 10.324219 21.511719 9.761719 C 21.464844 9.570312 21.421875 9.378906 21.371094 9.179688 C 21.277344 8.773438 21.183594 8.367188 21.09375 7.960938 C 21.023438 7.675781 21.023438 7.675781 20.953125 7.378906 C 20.910156 7.203125 20.871094 7.027344 20.828125 6.847656 C 20.59375 6.292969 20.378906 6.164062 19.839844 5.921875 C 19.496094 5.824219 19.148438 5.742188 18.800781 5.671875 C 18.152344 5.535156 17.570312 5.371094 16.960938 5.121094 C 16.640625 5.058594 16.320312 5.003906 16 4.960938 C 16 4.855469 16 4.75 16 4.640625 C 14.953125 4.554688 14.21875 4.519531 13.398438 5.210938 C 12.984375 5.550781 12.523438 5.785156 12.054688 6.035156 C 11.542969 6.3125 11.039062 6.605469 10.535156 6.894531 C 10.238281 7.039062 10.238281 7.039062 9.921875 7.039062 C 9.921875 7.144531 9.921875 7.25 9.921875 7.359375 C 9.695312 7.453125 9.695312 7.453125 9.46875 7.550781 C 8.757812 7.957031 8.558594 8.390625 8.316406 9.164062 C 8.265625 9.363281 8.21875 9.566406 8.171875 9.769531 C 8.144531 9.878906 8.117188 9.988281 8.089844 10.097656 C 7.832031 11.183594 7.617188 12.28125 7.410156 13.378906 C 7.214844 14.382812 7.214844 14.382812 7.039062 14.558594 C 6.984375 14.785156 6.9375 15.011719 6.894531 15.242188 C 6.867188 15.382812 6.839844 15.519531 6.8125 15.664062 C 6.757812 15.957031 6.703125 16.253906 6.648438 16.546875 C 6.503906 17.292969 6.335938 18 6.078125 18.71875 C 6.015625 18.980469 5.957031 19.238281 5.898438 19.5 C 5.875 19.625 5.847656 19.75 5.820312 19.878906 C 5.789062 20.019531 5.789062 20.019531 5.761719 20.160156 C 5.707031 20.160156 5.65625 20.160156 5.601562 20.160156 C 5.578125 20.050781 5.554688 19.945312 5.53125 19.835938 C 5.429688 19.347656 5.324219 18.859375 5.21875 18.371094 C 5.183594 18.203125 5.148438 18.03125 5.113281 17.859375 C 5.078125 17.695312 5.042969 17.53125 5.007812 17.363281 C 4.972656 17.214844 4.941406 17.0625 4.910156 16.910156 C 4.800781 16.480469 4.648438 16.089844 4.480469 15.679688 C 4.421875 15.460938 4.367188 15.242188 4.320312 15.023438 C 4.292969 14.902344 4.265625 14.78125 4.238281 14.65625 C 4.199219 14.46875 4.199219 14.46875 4.160156 14.28125 C 4.121094 14.097656 4.121094 14.097656 4.078125 13.910156 C 4.027344 13.664062 3.972656 13.421875 3.921875 13.175781 C 3.8125 12.667969 3.695312 12.160156 3.578125 11.652344 C 3.519531 11.359375 3.519531 11.359375 3.519531 11.039062 C 3.070312 11.304688 2.640625 11.574219 2.210938 11.871094 C 1.761719 12.160156 1.761719 12.160156 1.441406 12.160156 C 1.386719 15.539062 1.335938 18.917969 1.28125 22.398438 C 0.972656 21.9375 0.816406 21.5625 0.640625 21.039062 C 0.585938 20.886719 0.535156 20.734375 0.480469 20.574219 C 0.0585938 19.058594 -0.0585938 17.601562 -0.0507812 16.03125 C -0.0507812 15.832031 -0.046875 15.632812 -0.046875 15.429688 C -0.03125 14.058594 0.0585938 12.828125 0.480469 11.519531 C 0.53125 11.34375 0.585938 11.164062 0.640625 10.980469 C 1.964844 6.871094 4.835938 3.597656 8.640625 1.601562 C 12.203125 -0.1875 16.632812 -0.648438 20.480469 0.480469 Z M 20.480469 0.480469 "/>
<path style=" stroke:none;fill-rule:nonzero;fill:rgb(0.392157%,47.843137%,74.901962%);fill-opacity:1;" d="M 14.558594 4.640625 C 14.558594 12.242188 14.558594 19.847656 14.558594 27.679688 C 12.933594 27.382812 11.726562 27.039062 10.238281 26.398438 C 10.1875 22.070312 10.132812 17.742188 10.078125 13.28125 C 9.492188 15.273438 9.492188 15.273438 8.960938 17.28125 C 8.855469 17.628906 8.75 17.980469 8.640625 18.328125 C 8.417969 19.042969 8.199219 19.757812 8 20.480469 C 7.960938 20.613281 7.925781 20.75 7.886719 20.886719 C 7.691406 21.582031 7.507812 22.273438 7.359375 22.980469 C 7.203125 23.707031 7.023438 24.441406 6.71875 25.121094 C 6.261719 25.347656 6.015625 25.234375 5.53125 25.101562 C 4.945312 24.878906 4.703125 24.769531 4.429688 24.203125 C 4.304688 23.652344 4.222656 23.117188 4.160156 22.558594 C 4.113281 22.246094 4.0625 21.933594 4.011719 21.621094 C 3.984375 21.464844 3.960938 21.308594 3.9375 21.144531 C 3.789062 20.378906 3.574219 19.632812 3.359375 18.886719 C 3.152344 18.039062 3.023438 17.179688 2.878906 16.320312 C 2.828125 18.800781 2.773438 21.28125 2.71875 23.839844 C 2.402344 23.789062 2.085938 23.734375 1.761719 23.679688 C 1.304688 23.023438 1.21875 22.480469 1.222656 21.691406 C 1.222656 21.492188 1.222656 21.292969 1.222656 21.085938 C 1.222656 20.871094 1.226562 20.65625 1.226562 20.4375 C 1.226562 20.214844 1.226562 19.992188 1.226562 19.769531 C 1.230469 19.300781 1.230469 18.835938 1.234375 18.367188 C 1.238281 17.769531 1.242188 17.171875 1.242188 16.574219 C 1.242188 16.113281 1.246094 15.652344 1.246094 15.191406 C 1.246094 14.96875 1.246094 14.75 1.25 14.527344 C 1.25 14.21875 1.25 13.914062 1.253906 13.605469 C 1.253906 13.429688 1.257812 13.253906 1.257812 13.074219 C 1.28125 12.640625 1.28125 12.640625 1.441406 12.160156 C 1.75 11.910156 1.75 11.910156 2.128906 11.660156 C 2.316406 11.535156 2.316406 11.535156 2.507812 11.410156 C 2.851562 11.214844 3.132812 11.113281 3.519531 11.039062 C 3.910156 12.371094 4.214844 13.71875 4.511719 15.074219 C 4.679688 15.828125 4.871094 16.550781 5.121094 17.28125 C 5.242188 17.726562 5.351562 18.171875 5.460938 18.621094 C 5.488281 18.738281 5.519531 18.855469 5.546875 18.976562 C 5.617188 19.265625 5.691406 19.550781 5.761719 19.839844 C 5.777344 19.742188 5.792969 19.640625 5.808594 19.539062 C 5.996094 18.421875 6.269531 17.339844 6.574219 16.253906 C 6.730469 15.683594 6.730469 15.683594 6.800781 15.097656 C 6.875 14.59375 7.011719 14.226562 7.199219 13.761719 C 7.289062 13.335938 7.367188 12.917969 7.441406 12.488281 C 7.570312 11.714844 7.746094 10.984375 8 10.238281 C 8.054688 9.972656 8.105469 9.699219 8.148438 9.429688 C 8.304688 8.636719 8.511719 8.101562 9.121094 7.550781 C 9.441406 7.359375 9.441406 7.359375 9.921875 7.359375 C 9.921875 7.253906 9.921875 7.148438 9.921875 7.039062 C 10.046875 6.980469 10.171875 6.921875 10.300781 6.859375 C 11.207031 6.40625 12.0625 5.859375 12.921875 5.324219 C 13.0625 5.238281 13.203125 5.148438 13.351562 5.058594 C 13.476562 4.980469 13.605469 4.898438 13.738281 4.816406 C 14.078125 4.640625 14.078125 4.640625 14.558594 4.640625 Z M 14.558594 4.640625 "/>
<path style=" stroke:none;fill-rule:nonzero;fill:rgb(1.568628%,39.215687%,66.666669%);fill-opacity:1;" d="M 14.71875 4.640625 C 15.140625 4.640625 15.566406 4.640625 16 4.640625 C 16 4.746094 16 4.851562 16 4.960938 C 16.140625 4.972656 16.140625 4.972656 16.285156 4.984375 C 16.476562 5 16.476562 5 16.671875 5.019531 C 16.792969 5.03125 16.917969 5.042969 17.046875 5.054688 C 17.480469 5.125 17.832031 5.273438 18.238281 5.441406 C 18.726562 5.5625 19.214844 5.671875 19.707031 5.78125 C 20.191406 5.929688 20.433594 6.054688 20.800781 6.398438 C 20.976562 6.851562 20.976562 6.851562 21.109375 7.390625 C 21.15625 7.585938 21.203125 7.777344 21.253906 7.976562 C 21.300781 8.179688 21.351562 8.382812 21.398438 8.589844 C 21.449219 8.792969 21.5 8.996094 21.554688 9.207031 C 21.675781 9.710938 21.800781 10.214844 21.921875 10.71875 C 22.324219 10.71875 22.492188 10.59375 22.839844 10.386719 C 22.957031 10.316406 23.074219 10.246094 23.195312 10.175781 C 23.320312 10.101562 23.441406 10.027344 23.570312 9.949219 C 23.691406 9.878906 23.8125 9.804688 23.9375 9.730469 C 24.433594 9.433594 24.929688 9.140625 25.417969 8.828125 C 25.761719 8.640625 25.761719 8.640625 26.238281 8.640625 C 26.238281 8.535156 26.238281 8.429688 26.238281 8.320312 C 26.582031 8.113281 26.796875 7.996094 27.203125 8.023438 C 27.3125 8.050781 27.425781 8.078125 27.539062 8.109375 C 27.664062 8.140625 27.789062 8.175781 27.917969 8.207031 C 28.050781 8.246094 28.183594 8.28125 28.320312 8.320312 C 28.460938 8.355469 28.597656 8.394531 28.742188 8.433594 C 29.464844 8.636719 30.113281 8.820312 30.71875 9.28125 C 31.085938 9.988281 31.292969 10.757812 31.519531 11.519531 C 31.570312 11.679688 31.625 11.84375 31.675781 12.007812 C 32.648438 15.597656 32.152344 19.707031 30.558594 23.039062 C 30.507812 23.039062 30.453125 23.039062 30.398438 23.039062 C 30.347656 18.550781 30.292969 14.0625 30.238281 9.441406 C 29.359375 9.148438 28.5625 8.886719 27.671875 8.691406 C 27.488281 8.648438 27.308594 8.609375 27.125 8.566406 C 26.925781 8.523438 26.925781 8.523438 26.71875 8.480469 C 26.378906 9.808594 26.070312 11.132812 25.835938 12.484375 C 25.808594 12.644531 25.777344 12.804688 25.75 12.96875 C 25.710938 13.191406 25.710938 13.191406 25.675781 13.414062 C 25.601562 13.761719 25.601562 13.761719 25.441406 13.921875 C 25.386719 14.171875 25.34375 14.425781 25.300781 14.679688 C 25.117188 15.714844 24.886719 16.738281 24.640625 17.761719 C 24.597656 17.941406 24.558594 18.121094 24.515625 18.308594 C 24.472656 18.480469 24.433594 18.652344 24.390625 18.828125 C 24.351562 18.984375 24.316406 19.140625 24.28125 19.300781 C 24.160156 19.679688 24.160156 19.679688 23.839844 20 C 23.535156 19.238281 23.292969 18.503906 23.128906 17.703125 C 22.777344 16.027344 22.351562 14.375 21.921875 12.71875 C 20.917969 8.894531 20.917969 8.894531 20.640625 7.179688 C 20.496094 6.671875 20.433594 6.464844 19.972656 6.203125 C 19.5 6.070312 19.042969 5.992188 18.558594 5.921875 C 18.210938 5.847656 17.867188 5.769531 17.519531 5.691406 C 17.347656 5.652344 17.175781 5.613281 17 5.574219 C 16.214844 5.371094 15.46875 5.097656 14.71875 4.800781 C 14.71875 4.746094 14.71875 4.695312 14.71875 4.640625 Z M 14.71875 4.640625 "/>
<path style=" stroke:none;fill-rule:nonzero;fill:rgb(0.784314%,38.431373%,66.274512%);fill-opacity:1;" d="M 18.71875 13.28125 C 18.824219 13.28125 18.929688 13.28125 19.039062 13.28125 C 19.472656 14.789062 19.902344 16.296875 20.324219 17.804688 C 20.390625 18.03125 20.453125 18.253906 20.515625 18.480469 C 21.113281 20.59375 21.113281 20.59375 21.289062 21.3125 C 21.546875 22.347656 21.867188 23.367188 22.175781 24.386719 C 22.226562 24.550781 22.277344 24.71875 22.328125 24.886719 C 22.371094 25.035156 22.417969 25.183594 22.460938 25.335938 C 22.558594 25.761719 22.578125 26.128906 22.558594 26.558594 C 22.160156 26.570312 21.761719 26.574219 21.359375 26.578125 C 21.191406 26.585938 21.191406 26.585938 21.023438 26.589844 C 20.910156 26.589844 20.800781 26.589844 20.683594 26.589844 C 20.585938 26.59375 20.484375 26.59375 20.378906 26.597656 C 19.816406 26.542969 19.269531 26.378906 18.71875 26.238281 C 18.71875 21.964844 18.71875 17.6875 18.71875 13.28125 Z M 18.71875 13.28125 "/>
<path style=" stroke:none;fill-rule:nonzero;fill:rgb(2.352941%,38.82353%,66.274512%);fill-opacity:1;" d="M 27.679688 14.398438 C 27.734375 14.398438 27.785156 14.398438 27.839844 14.398438 C 27.839844 18.097656 27.839844 21.792969 27.839844 25.601562 C 26.398438 25.601562 26.398438 25.601562 26.078125 25.441406 C 26.078125 25.335938 26.078125 25.230469 26.078125 25.121094 C 25.816406 25.121094 25.550781 25.121094 25.28125 25.121094 C 25.253906 24.398438 25.34375 23.773438 25.511719 23.070312 C 25.574219 22.796875 25.574219 22.796875 25.640625 22.515625 C 25.761719 22.078125 25.761719 22.078125 25.921875 21.921875 C 25.96875 21.675781 26.011719 21.425781 26.050781 21.179688 C 26.25 20.019531 26.570312 18.894531 26.878906 17.761719 C 27.171875 16.644531 27.421875 15.523438 27.679688 14.398438 Z M 27.679688 14.398438 "/>
<path style=" stroke:none;fill-rule:nonzero;fill:rgb(96.470588%,96.470588%,96.470588%);fill-opacity:1;" d="M 30.878906 10.078125 C 31.3125 10.511719 31.386719 10.988281 31.53125 11.558594 C 31.558594 11.664062 31.585938 11.769531 31.613281 11.878906 C 32.441406 15.0625 32.34375 18.871094 31.039062 21.921875 C 30.988281 21.921875 30.933594 21.921875 30.878906 21.921875 C 30.878906 18.011719 30.878906 14.105469 30.878906 10.078125 Z M 30.878906 10.078125 "/>
<path style=" stroke:none;fill-rule:nonzero;fill:rgb(16.862746%,55.686277%,78.431374%);fill-opacity:1;" d="M 29.5625 8.671875 C 30.125 8.871094 30.605469 9.054688 30.878906 9.601562 C 30.898438 10 30.90625 10.398438 30.90625 10.800781 C 30.90625 10.925781 30.90625 11.050781 30.90625 11.175781 C 30.910156 11.585938 30.910156 11.996094 30.914062 12.410156 C 30.914062 12.695312 30.914062 12.980469 30.914062 13.265625 C 30.917969 13.863281 30.917969 14.460938 30.917969 15.058594 C 30.917969 15.824219 30.921875 16.589844 30.925781 17.355469 C 30.929688 17.945312 30.929688 18.535156 30.933594 19.125 C 30.933594 19.40625 30.933594 19.6875 30.9375 19.972656 C 30.9375 20.367188 30.9375 20.761719 30.9375 21.15625 C 30.9375 21.273438 30.941406 21.390625 30.941406 21.511719 C 30.933594 22.25 30.871094 22.414062 30.398438 23.039062 C 30.347656 18.550781 30.292969 14.0625 30.238281 9.441406 C 29.1875 9.089844 28.214844 8.820312 27.140625 8.597656 C 27 8.558594 26.863281 8.519531 26.71875 8.480469 C 26.667969 8.375 26.613281 8.269531 26.558594 8.160156 C 27.355469 7.761719 28.75 8.421875 29.5625 8.671875 Z M 29.5625 8.671875 "/>
<path style=" stroke:none;fill-rule:nonzero;fill:rgb(11.764706%,47.450981%,70.588237%);fill-opacity:1;" d="M 14.71875 4.640625 C 15.140625 4.640625 15.566406 4.640625 16 4.640625 C 16 4.746094 16 4.851562 16 4.960938 C 16.140625 4.972656 16.140625 4.972656 16.285156 4.984375 C 16.476562 5 16.476562 5 16.671875 5.019531 C 16.792969 5.03125 16.917969 5.042969 17.046875 5.054688 C 17.480469 5.125 17.832031 5.273438 18.238281 5.441406 C 18.726562 5.5625 19.214844 5.671875 19.707031 5.78125 C 20.183594 5.925781 20.433594 6.0625 20.800781 6.398438 C 20.960938 6.773438 20.960938 6.773438 21.074219 7.207031 C 21.113281 7.363281 21.15625 7.515625 21.199219 7.679688 C 21.238281 7.839844 21.277344 8.003906 21.320312 8.171875 C 21.363281 8.332031 21.40625 8.496094 21.449219 8.664062 C 21.761719 9.855469 21.761719 9.855469 21.761719 10.238281 C 21.601562 10.238281 21.441406 10.238281 21.28125 10.238281 C 21.25 10.109375 21.222656 9.980469 21.191406 9.847656 C 21.109375 9.476562 21.019531 9.105469 20.933594 8.738281 C 20.800781 8.160156 20.800781 8.160156 20.722656 7.648438 C 20.640625 7.175781 20.558594 6.816406 20.320312 6.398438 C 19.761719 6.082031 19.191406 6.011719 18.558594 5.921875 C 18.210938 5.847656 17.867188 5.769531 17.519531 5.691406 C 17.347656 5.652344 17.175781 5.613281 17 5.574219 C 16.214844 5.371094 15.46875 5.097656 14.71875 4.800781 C 14.71875 4.746094 14.71875 4.695312 14.71875 4.640625 Z M 14.71875 4.640625 "/>
<path style=" stroke:none;fill-rule:nonzero;fill:rgb(44.313726%,63.529414%,80.784315%);fill-opacity:1;" d="M 18.71875 25.601562 C 19.496094 25.695312 20.210938 25.863281 20.960938 26.078125 C 21.492188 26.195312 22.027344 26.300781 22.558594 26.398438 C 22.558594 26.453125 22.558594 26.503906 22.558594 26.558594 C 19.855469 26.617188 19.855469 26.617188 18.71875 26.238281 C 18.71875 26.027344 18.71875 25.816406 18.71875 25.601562 Z M 18.71875 25.601562 "/>
<path style=" stroke:none;fill-rule:nonzero;fill:rgb(10.980392%,65.490198%,90.588236%);fill-opacity:1;" d="M 14.71875 4.640625 C 15.140625 4.640625 15.566406 4.640625 16 4.640625 C 16 4.746094 16 4.851562 16 4.960938 C 16.140625 4.972656 16.140625 4.972656 16.285156 4.984375 C 17.003906 5.050781 17.574219 5.164062 18.238281 5.441406 C 18.769531 5.5625 19.304688 5.664062 19.839844 5.761719 C 19.382812 6.097656 19.179688 6.078125 18.605469 5.992188 C 18.371094 5.9375 18.140625 5.878906 17.910156 5.820312 C 17.789062 5.789062 17.667969 5.761719 17.546875 5.730469 C 16.578125 5.484375 15.644531 5.175781 14.71875 4.800781 C 14.71875 4.746094 14.71875 4.695312 14.71875 4.640625 Z M 14.71875 4.640625 "/>
<path style=" stroke:none;fill-rule:nonzero;fill:rgb(10.196079%,66.274512%,92.156863%);fill-opacity:1;" d="M 29.921875 8.800781 C 29.867188 8.90625 29.8125 9.011719 29.761719 9.121094 C 29.039062 9.160156 29.039062 9.160156 28.671875 8.96875 C 28.25 8.765625 27.859375 8.695312 27.398438 8.621094 C 27.242188 8.59375 27.085938 8.566406 26.921875 8.539062 C 26.742188 8.507812 26.742188 8.507812 26.558594 8.480469 C 26.558594 8.375 26.558594 8.269531 26.558594 8.160156 C 27.4375 7.722656 29.03125 8.523438 29.921875 8.800781 Z M 29.921875 8.800781 "/>
<path style=" stroke:none;fill-rule:nonzero;fill:rgb(72.941178%,83.137256%,90.588236%);fill-opacity:1;" d="M 18.558594 25.441406 C 18.613281 25.441406 18.664062 25.441406 18.71875 25.441406 C 18.71875 25.703125 18.71875 25.96875 18.71875 26.238281 C 19.90625 26.398438 19.90625 26.398438 21.121094 26.558594 C 20.605469 26.902344 20.476562 26.917969 19.890625 26.898438 C 19.761719 26.898438 19.632812 26.894531 19.5 26.890625 C 19.351562 26.886719 19.351562 26.886719 19.199219 26.878906 C 19.199219 26.773438 19.199219 26.667969 19.199219 26.558594 C 18.988281 26.507812 18.777344 26.453125 18.558594 26.398438 C 18.558594 26.082031 18.558594 25.765625 18.558594 25.441406 Z M 18.558594 25.441406 "/>
<path style=" stroke:none;fill-rule:nonzero;fill:rgb(61.960787%,75.686276%,86.666667%);fill-opacity:1;" d="M 25.121094 24.640625 C 25.171875 24.796875 25.226562 24.957031 25.28125 25.121094 C 25.542969 25.121094 25.808594 25.121094 26.078125 25.121094 C 26.078125 25.226562 26.078125 25.332031 26.078125 25.441406 C 26.503906 25.492188 26.925781 25.546875 27.359375 25.601562 C 27.359375 25.652344 27.359375 25.707031 27.359375 25.761719 C 27.078125 25.765625 26.792969 25.765625 26.511719 25.769531 C 26.351562 25.773438 26.195312 25.773438 26.03125 25.777344 C 25.601562 25.761719 25.601562 25.761719 25.121094 25.601562 C 25.121094 25.28125 25.121094 24.964844 25.121094 24.640625 Z M 25.121094 24.640625 "/>
<path style=" stroke:none;fill-rule:nonzero;fill:rgb(1.176471%,62.352943%,90.980393%);fill-opacity:1;" d="M 29.761719 8.960938 C 30.082031 9.054688 30.402344 9.164062 30.71875 9.28125 C 30.914062 9.664062 30.894531 9.910156 30.890625 10.339844 C 30.886719 10.472656 30.886719 10.601562 30.886719 10.734375 C 30.882812 10.835938 30.882812 10.9375 30.878906 11.039062 C 30.773438 11.039062 30.667969 11.039062 30.558594 11.039062 C 30.554688 10.945312 30.550781 10.847656 30.546875 10.746094 C 30.496094 9.902344 30.496094 9.902344 30.070312 9.191406 C 29.96875 9.113281 29.867188 9.039062 29.761719 8.960938 Z M 29.761719 8.960938 "/>
<path style=" stroke:none;fill-rule:nonzero;fill:rgb(15.294118%,40.000001%,67.450982%);fill-opacity:1;" d="M 19.519531 25.601562 C 20.488281 25.6875 21.328125 25.90625 22.238281 26.238281 C 22.238281 26.292969 22.238281 26.34375 22.238281 26.398438 C 20.09375 26.175781 20.09375 26.175781 19.519531 25.601562 Z M 19.519531 25.601562 "/>
<path style=" stroke:none;fill-rule:nonzero;fill:rgb(6.27451%,54.901963%,80.392158%);fill-opacity:1;" d="M 19.199219 5.921875 C 19.722656 5.882812 20.0625 5.867188 20.53125 6.121094 C 20.828125 6.429688 20.902344 6.621094 20.960938 7.039062 C 20.800781 7.039062 20.644531 7.039062 20.480469 7.039062 C 20.425781 6.828125 20.375 6.617188 20.320312 6.398438 C 19.949219 6.292969 19.582031 6.1875 19.199219 6.078125 C 19.199219 6.027344 19.199219 5.972656 19.199219 5.921875 Z M 19.199219 5.921875 "/>
<path style=" stroke:none;fill-rule:nonzero;fill:rgb(33.333334%,55.686277%,76.47059%);fill-opacity:1;" d="M 18.71875 25.601562 C 19.09375 25.640625 19.46875 25.695312 19.839844 25.761719 C 19.894531 25.867188 19.945312 25.972656 20 26.078125 C 19.578125 26.078125 19.15625 26.078125 18.71875 26.078125 C 18.71875 25.921875 18.71875 25.761719 18.71875 25.601562 Z M 18.71875 25.601562 "/>
<path style=" stroke:none;fill-rule:nonzero;fill:rgb(16.078432%,68.627453%,92.54902%);fill-opacity:1;" d="M 27.839844 8.160156 C 27.839844 8.320312 27.839844 8.476562 27.839844 8.640625 C 27.417969 8.585938 26.996094 8.535156 26.558594 8.480469 C 26.558594 8.375 26.558594 8.269531 26.558594 8.160156 C 27.019531 7.929688 27.347656 8.0625 27.839844 8.160156 Z M 27.839844 8.160156 "/>
</g>
</svg>
