<?xml version="1.0" encoding="UTF-8"?>
<svg xmlns="http://www.w3.org/2000/svg" xmlns:xlink="http://www.w3.org/1999/xlink" width="32px" height="32px" viewBox="0 0 32 32" version="1.1">
<g id="surface1">
<path style=" stroke:none;fill-rule:nonzero;fill:rgb(99.607843%,99.607843%,99.607843%);fill-opacity:1;" d="M 15.960938 -0.015625 C 16.015625 -0.015625 16.066406 -0.015625 16.125 -0.015625 C 16.984375 -0.015625 17.820312 0.0273438 18.671875 0.175781 C 18.71875 0.183594 18.765625 0.191406 18.816406 0.199219 C 21.292969 0.621094 23.640625 1.671875 25.644531 3.179688 C 25.671875 3.199219 25.699219 3.222656 25.730469 3.242188 C 26.054688 3.488281 26.363281 3.75 26.664062 4.03125 C 26.761719 4.121094 26.859375 4.210938 26.960938 4.296875 C 27.148438 4.457031 27.320312 4.625 27.496094 4.800781 C 27.527344 4.832031 27.558594 4.863281 27.589844 4.894531 C 27.789062 5.097656 27.976562 5.304688 28.15625 5.53125 C 28.238281 5.640625 28.328125 5.742188 28.417969 5.847656 C 30.21875 7.925781 31.335938 10.585938 31.8125 13.273438 C 31.820312 13.324219 31.828125 13.375 31.839844 13.425781 C 31.980469 14.269531 32.015625 15.101562 32.015625 15.957031 C 32.015625 16.007812 32.011719 16.0625 32.011719 16.117188 C 32.011719 16.886719 31.996094 17.644531 31.867188 18.40625 C 31.859375 18.460938 31.851562 18.511719 31.839844 18.566406 C 31.363281 21.414062 30.175781 24.136719 28.269531 26.316406 C 28.21875 26.378906 28.167969 26.441406 28.117188 26.503906 C 27.875 26.804688 27.617188 27.082031 27.339844 27.355469 C 27.300781 27.394531 27.261719 27.433594 27.222656 27.472656 C 26.996094 27.695312 26.769531 27.910156 26.527344 28.117188 C 26.484375 28.152344 26.445312 28.1875 26.402344 28.222656 C 25.375 29.089844 24.25 29.832031 23.039062 30.414062 C 22.953125 30.453125 22.867188 30.496094 22.78125 30.539062 C 21.867188 30.992188 20.894531 31.304688 19.90625 31.558594 C 19.871094 31.566406 19.839844 31.578125 19.804688 31.585938 C 19.410156 31.6875 19.011719 31.761719 18.609375 31.828125 C 18.566406 31.835938 18.523438 31.84375 18.480469 31.851562 C 18.335938 31.871094 18.195312 31.890625 18.050781 31.910156 C 18.007812 31.917969 18.007812 31.917969 17.964844 31.921875 C 17.371094 32.003906 16.777344 32.015625 16.175781 32.015625 C 16.019531 32.015625 15.863281 32.015625 15.710938 32.015625 C 15.011719 32.019531 14.332031 31.964844 13.636719 31.867188 C 13.589844 31.859375 13.589844 31.859375 13.539062 31.855469 C 12.386719 31.695312 11.230469 31.382812 10.152344 30.941406 C 10.113281 30.925781 10.078125 30.910156 10.039062 30.894531 C 9.550781 30.691406 9.070312 30.476562 8.601562 30.234375 C 8.519531 30.191406 8.4375 30.148438 8.355469 30.109375 C 7.660156 29.75 7.011719 29.320312 6.390625 28.839844 C 6.316406 28.78125 6.238281 28.722656 6.160156 28.664062 C 5.847656 28.429688 5.558594 28.179688 5.277344 27.914062 C 5.199219 27.84375 5.117188 27.773438 5.039062 27.703125 C 4.851562 27.542969 4.679688 27.375 4.503906 27.199219 C 4.457031 27.152344 4.457031 27.152344 4.410156 27.105469 C 4.210938 26.902344 4.023438 26.695312 3.84375 26.46875 C 3.761719 26.359375 3.671875 26.257812 3.582031 26.152344 C 1.78125 24.078125 0.660156 21.410156 0.1875 18.726562 C 0.179688 18.675781 0.171875 18.625 0.160156 18.574219 C 0.0273438 17.777344 -0.015625 16.984375 -0.015625 16.175781 C -0.015625 16.019531 -0.015625 15.867188 -0.015625 15.710938 C -0.0195312 14.769531 0.0664062 13.835938 0.25 12.914062 C 0.261719 12.855469 0.273438 12.800781 0.285156 12.742188 C 0.808594 10.15625 1.988281 7.675781 3.730469 5.683594 C 3.78125 5.621094 3.832031 5.5625 3.882812 5.5 C 4.128906 5.191406 4.394531 4.90625 4.671875 4.628906 C 4.714844 4.589844 4.753906 4.546875 4.796875 4.503906 C 5.035156 4.269531 5.28125 4.046875 5.542969 3.839844 C 5.640625 3.757812 5.734375 3.671875 5.828125 3.585938 C 6.144531 3.304688 6.496094 3.066406 6.839844 2.824219 C 6.871094 2.804688 6.898438 2.785156 6.929688 2.765625 C 7.351562 2.46875 7.792969 2.207031 8.246094 1.953125 C 8.328125 1.90625 8.414062 1.855469 8.5 1.808594 C 10.167969 0.875 12.066406 0.339844 13.949219 0.0898438 C 13.976562 0.0859375 14.007812 0.078125 14.039062 0.0742188 C 14.679688 -0.0078125 15.316406 -0.0195312 15.960938 -0.015625 Z M 15.960938 -0.015625 "/>
<path style=" stroke:none;fill-rule:nonzero;fill:rgb(8.235294%,15.294118%,76.078433%);fill-opacity:1;" d="M 8.777344 11.25 C 8.816406 11.25 8.851562 11.25 8.890625 11.25 C 8.933594 11.25 8.972656 11.25 9.015625 11.25 C 9.0625 11.25 9.105469 11.25 9.152344 11.25 C 9.199219 11.25 9.246094 11.25 9.292969 11.25 C 9.441406 11.25 9.585938 11.25 9.734375 11.253906 C 9.835938 11.253906 9.933594 11.253906 10.035156 11.253906 C 10.28125 11.253906 10.523438 11.253906 10.769531 11.253906 C 10.632812 11.675781 10.632812 11.675781 10.550781 11.851562 C 10.535156 11.886719 10.519531 11.921875 10.503906 11.957031 C 10.488281 11.992188 10.472656 12.027344 10.457031 12.0625 C 10.417969 12.140625 10.382812 12.21875 10.347656 12.296875 C 10.332031 12.335938 10.3125 12.375 10.292969 12.417969 C 10.222656 12.570312 10.15625 12.722656 10.085938 12.878906 C 9.953125 13.171875 9.820312 13.46875 9.683594 13.761719 C 9.5625 14.011719 9.453125 14.265625 9.339844 14.523438 C 9.253906 14.722656 9.164062 14.921875 9.070312 15.117188 C 8.957031 15.355469 8.847656 15.597656 8.742188 15.84375 C 8.605469 16.160156 8.460938 16.480469 8.316406 16.796875 C 8.304688 16.828125 8.289062 16.855469 8.277344 16.886719 C 8.207031 17.035156 8.140625 17.1875 8.070312 17.339844 C 7.949219 17.609375 7.828125 17.878906 7.707031 18.148438 C 7.667969 18.238281 7.628906 18.324219 7.589844 18.410156 C 7.460938 18.695312 7.332031 18.980469 7.203125 19.265625 C 7.074219 19.550781 6.945312 19.835938 6.8125 20.117188 C 6.695312 20.367188 6.582031 20.621094 6.472656 20.878906 C 6.386719 21.078125 6.292969 21.277344 6.203125 21.472656 C 6.097656 21.691406 6 21.910156 5.90625 22.128906 C 5.738281 22.515625 5.5625 22.898438 5.386719 23.28125 C 5.285156 23.507812 5.183594 23.734375 5.074219 23.96875 C 4.375 23.96875 3.675781 23.96875 2.957031 23.96875 C 3.015625 23.796875 3.066406 23.648438 3.140625 23.488281 C 3.234375 23.285156 3.328125 23.078125 3.414062 22.875 C 3.527344 22.613281 3.648438 22.355469 3.769531 22.097656 C 3.863281 21.898438 3.949219 21.695312 4.039062 21.496094 C 4.136719 21.265625 4.242188 21.039062 4.347656 20.8125 C 4.460938 20.570312 4.566406 20.332031 4.671875 20.089844 C 4.847656 19.6875 5.027344 19.289062 5.210938 18.890625 C 5.222656 18.863281 5.234375 18.832031 5.25 18.804688 C 5.285156 18.722656 5.320312 18.644531 5.355469 18.566406 C 5.441406 18.378906 5.523438 18.195312 5.605469 18.007812 C 4.132812 17.992188 2.664062 17.980469 1.148438 17.964844 C 1.394531 17.367188 1.652344 16.777344 1.941406 16.199219 C 4.171875 16.175781 4.171875 16.175781 6.445312 16.15625 C 6.679688 15.648438 6.679688 15.648438 6.90625 15.140625 C 7.007812 14.910156 7.109375 14.683594 7.214844 14.457031 C 7.328125 14.214844 7.4375 13.972656 7.542969 13.730469 C 7.855469 13.015625 8.179688 12.300781 8.511719 11.589844 C 8.523438 11.5625 8.539062 11.53125 8.554688 11.5 C 8.667969 11.257812 8.667969 11.257812 8.777344 11.25 Z M 8.777344 11.25 "/>
<path style=" stroke:none;fill-rule:nonzero;fill:rgb(8.235294%,15.294118%,76.078433%);fill-opacity:1;" d="M 20.433594 11.25 C 20.46875 11.25 20.503906 11.25 20.542969 11.25 C 20.585938 11.25 20.625 11.25 20.667969 11.25 C 20.714844 11.25 20.757812 11.25 20.804688 11.25 C 20.851562 11.25 20.898438 11.25 20.945312 11.25 C 21.09375 11.25 21.238281 11.25 21.386719 11.253906 C 21.488281 11.253906 21.585938 11.253906 21.6875 11.253906 C 21.933594 11.253906 22.175781 11.253906 22.421875 11.253906 C 22.285156 11.675781 22.285156 11.675781 22.203125 11.851562 C 22.1875 11.886719 22.171875 11.921875 22.15625 11.957031 C 22.140625 11.992188 22.125 12.027344 22.109375 12.0625 C 22.070312 12.140625 22.035156 12.21875 22 12.296875 C 21.984375 12.335938 21.964844 12.375 21.945312 12.417969 C 21.875 12.570312 21.808594 12.722656 21.738281 12.878906 C 21.605469 13.171875 21.472656 13.46875 21.335938 13.761719 C 21.214844 14.011719 21.105469 14.265625 20.992188 14.523438 C 20.90625 14.722656 20.816406 14.921875 20.722656 15.117188 C 20.609375 15.355469 20.5 15.597656 20.394531 15.84375 C 20.257812 16.160156 20.113281 16.480469 19.96875 16.796875 C 19.957031 16.828125 19.941406 16.855469 19.929688 16.886719 C 19.863281 17.035156 19.792969 17.1875 19.722656 17.339844 C 19.601562 17.609375 19.480469 17.878906 19.359375 18.148438 C 19.320312 18.238281 19.28125 18.324219 19.242188 18.410156 C 19.113281 18.695312 18.984375 18.980469 18.855469 19.265625 C 18.726562 19.550781 18.597656 19.835938 18.464844 20.117188 C 18.347656 20.367188 18.234375 20.621094 18.125 20.878906 C 18.039062 21.078125 17.945312 21.277344 17.855469 21.472656 C 17.75 21.691406 17.652344 21.910156 17.558594 22.128906 C 17.390625 22.515625 17.214844 22.898438 17.039062 23.28125 C 16.9375 23.507812 16.835938 23.734375 16.726562 23.96875 C 16.027344 23.96875 15.328125 23.96875 14.609375 23.96875 C 14.667969 23.796875 14.71875 23.648438 14.792969 23.488281 C 14.886719 23.285156 14.980469 23.078125 15.066406 22.875 C 15.179688 22.613281 15.300781 22.355469 15.421875 22.097656 C 15.515625 21.898438 15.601562 21.695312 15.691406 21.496094 C 15.789062 21.265625 15.894531 21.039062 16 20.8125 C 16.113281 20.570312 16.222656 20.328125 16.328125 20.085938 C 16.464844 19.765625 16.609375 19.449219 16.753906 19.132812 C 16.765625 19.101562 16.78125 19.074219 16.792969 19.042969 C 16.863281 18.890625 16.929688 18.742188 17 18.589844 C 17.121094 18.320312 17.242188 18.046875 17.363281 17.777344 C 17.402344 17.691406 17.441406 17.605469 17.480469 17.519531 C 17.609375 17.234375 17.738281 16.949219 17.867188 16.660156 C 17.996094 16.378906 18.125 16.09375 18.257812 15.8125 C 18.375 15.558594 18.488281 15.304688 18.597656 15.050781 C 18.6875 14.851562 18.777344 14.652344 18.867188 14.457031 C 18.980469 14.214844 19.089844 13.972656 19.195312 13.730469 C 19.507812 13.015625 19.832031 12.300781 20.164062 11.589844 C 20.175781 11.5625 20.191406 11.53125 20.207031 11.5 C 20.320312 11.257812 20.320312 11.257812 20.433594 11.25 Z M 20.433594 11.25 "/>
<path style=" stroke:none;fill-rule:nonzero;fill:rgb(8.235294%,15.294118%,76.078433%);fill-opacity:1;" d="M 25.511719 11.253906 C 26.472656 11.277344 27.292969 11.585938 27.984375 12.269531 C 28.566406 12.925781 28.902344 13.722656 28.890625 14.601562 C 28.890625 14.683594 28.890625 14.683594 28.890625 14.765625 C 28.867188 15.671875 28.480469 16.433594 27.851562 17.082031 C 27.113281 17.753906 26.246094 17.972656 25.273438 17.96875 C 25.21875 17.96875 25.167969 17.96875 25.113281 17.96875 C 24.96875 17.96875 24.824219 17.96875 24.679688 17.96875 C 24.527344 17.96875 24.378906 17.96875 24.226562 17.96875 C 23.941406 17.96875 23.65625 17.96875 23.371094 17.96875 C 23.046875 17.96875 22.722656 17.964844 22.394531 17.964844 C 21.726562 17.964844 21.058594 17.964844 20.390625 17.964844 C 20.636719 17.363281 20.882812 16.773438 21.1875 16.199219 C 21.242188 16.199219 21.300781 16.199219 21.359375 16.199219 C 21.902344 16.199219 22.445312 16.195312 22.988281 16.191406 C 23.269531 16.191406 23.546875 16.191406 23.824219 16.191406 C 24.09375 16.191406 24.363281 16.1875 24.632812 16.1875 C 24.738281 16.1875 24.839844 16.1875 24.941406 16.1875 C 25.617188 16.1875 26.191406 16.1875 26.703125 15.683594 C 27.042969 15.285156 27.109375 14.886719 27.082031 14.378906 C 27.042969 13.957031 26.835938 13.640625 26.527344 13.355469 C 26.230469 13.117188 25.910156 13.011719 25.542969 12.953125 C 25.511719 12.945312 25.476562 12.941406 25.445312 12.933594 C 25.234375 12.898438 25.019531 12.871094 24.804688 12.84375 C 24.875 12.621094 24.964844 12.410156 25.058594 12.199219 C 25.074219 12.164062 25.089844 12.128906 25.105469 12.09375 C 25.234375 11.808594 25.367188 11.53125 25.511719 11.253906 Z M 25.511719 11.253906 "/>
<path style=" stroke:none;fill-rule:nonzero;fill:rgb(8.235294%,15.294118%,76.078433%);fill-opacity:1;" d="M 13.859375 11.253906 C 14.820312 11.277344 15.640625 11.585938 16.332031 12.269531 C 16.914062 12.925781 17.25 13.722656 17.238281 14.601562 C 17.238281 14.683594 17.238281 14.683594 17.238281 14.765625 C 17.214844 15.671875 16.828125 16.433594 16.199219 17.082031 C 15.460938 17.753906 14.59375 17.972656 13.621094 17.96875 C 13.566406 17.96875 13.515625 17.96875 13.460938 17.96875 C 13.316406 17.96875 13.171875 17.96875 13.027344 17.96875 C 12.875 17.96875 12.726562 17.96875 12.574219 17.96875 C 12.289062 17.96875 12.003906 17.96875 11.71875 17.96875 C 11.394531 17.96875 11.070312 17.964844 10.742188 17.964844 C 10.074219 17.964844 9.40625 17.964844 8.738281 17.964844 C 8.984375 17.363281 9.230469 16.773438 9.535156 16.199219 C 9.589844 16.199219 9.648438 16.199219 9.707031 16.199219 C 10.25 16.199219 10.792969 16.195312 11.335938 16.191406 C 11.617188 16.191406 11.894531 16.191406 12.171875 16.191406 C 12.441406 16.191406 12.710938 16.1875 12.980469 16.1875 C 13.085938 16.1875 13.1875 16.1875 13.289062 16.1875 C 13.964844 16.1875 14.539062 16.1875 15.050781 15.683594 C 15.390625 15.285156 15.457031 14.886719 15.429688 14.378906 C 15.390625 13.957031 15.183594 13.640625 14.875 13.355469 C 14.578125 13.117188 14.257812 13.011719 13.890625 12.953125 C 13.859375 12.945312 13.824219 12.941406 13.792969 12.933594 C 13.582031 12.898438 13.367188 12.871094 13.152344 12.84375 C 13.222656 12.621094 13.3125 12.410156 13.40625 12.199219 C 13.421875 12.164062 13.4375 12.128906 13.453125 12.09375 C 13.582031 11.808594 13.714844 11.53125 13.859375 11.253906 Z M 13.859375 11.253906 "/>
<path style=" stroke:none;fill-rule:nonzero;fill:rgb(8.235294%,15.294118%,76.078433%);fill-opacity:1;" d="M 28.710938 7.828125 C 28.972656 8 29.1875 8.253906 29.289062 8.554688 C 29.375 9.03125 29.300781 9.421875 29.058594 9.832031 C 28.722656 10.152344 28.332031 10.3125 27.871094 10.304688 C 27.472656 10.253906 27.152344 10.035156 26.90625 9.726562 C 26.671875 9.378906 26.660156 8.996094 26.71875 8.589844 C 26.808594 8.242188 27.058594 7.976562 27.347656 7.78125 C 27.816406 7.535156 28.257812 7.574219 28.710938 7.828125 Z M 28.710938 7.828125 "/>
<path style=" stroke:none;fill-rule:nonzero;fill:rgb(8.235294%,15.294118%,76.078433%);fill-opacity:1;" d="M 17.058594 7.828125 C 17.320312 8 17.535156 8.253906 17.636719 8.554688 C 17.722656 9.03125 17.648438 9.421875 17.40625 9.832031 C 17.070312 10.152344 16.679688 10.3125 16.21875 10.304688 C 15.820312 10.253906 15.5 10.035156 15.253906 9.726562 C 15.019531 9.378906 15.007812 8.996094 15.066406 8.589844 C 15.15625 8.242188 15.402344 7.976562 15.695312 7.78125 C 16.164062 7.535156 16.605469 7.574219 17.058594 7.828125 Z M 17.058594 7.828125 "/>
</g>
</svg>
