<?xml version="1.0" encoding="UTF-8"?>
<svg xmlns="http://www.w3.org/2000/svg" xmlns:xlink="http://www.w3.org/1999/xlink" width="32px" height="32px" viewBox="0 0 32 32" version="1.1">
<g id="surface1">
<path style=" stroke:none;fill-rule:nonzero;fill:rgb(98.823529%,99.215686%,99.607843%);fill-opacity:1;" d="M 19.953125 0.363281 C 20.054688 0.390625 20.152344 0.421875 20.253906 0.449219 C 22.921875 1.214844 25.113281 2.46875 27.132812 4.378906 C 27.292969 4.527344 27.292969 4.527344 27.460938 4.679688 C 29.214844 6.34375 30.46875 8.480469 31.246094 10.761719 C 31.28125 10.859375 31.316406 10.957031 31.351562 11.058594 C 31.871094 12.675781 32.070312 14.277344 32.054688 15.96875 C 32.054688 16.054688 32.050781 16.144531 32.050781 16.234375 C 32.023438 20.503906 30.421875 24.160156 27.5 27.253906 C 27.40625 27.355469 27.3125 27.453125 27.21875 27.558594 C 24.757812 30.136719 21.046875 31.832031 17.480469 32.023438 C 15.5 32.058594 13.605469 32.058594 11.679688 31.511719 C 11.597656 31.492188 11.519531 31.46875 11.433594 31.445312 C 8.882812 30.734375 6.628906 29.335938 4.746094 27.5 C 4.652344 27.410156 4.554688 27.324219 4.457031 27.234375 C 2.71875 25.589844 1.511719 23.472656 0.746094 21.222656 C 0.710938 21.125 0.679688 21.03125 0.644531 20.929688 C 0.125 19.3125 -0.0703125 17.71875 -0.0546875 16.03125 C -0.0546875 15.945312 -0.0507812 15.855469 -0.0507812 15.765625 C -0.0234375 11.40625 1.675781 7.554688 4.730469 4.457031 C 6.804688 2.414062 9.25 1.144531 12.046875 0.363281 C 12.128906 0.339844 12.214844 0.316406 12.300781 0.292969 C 14.613281 -0.316406 17.652344 -0.28125 19.953125 0.363281 Z M 19.953125 0.363281 "/>
<path style=" stroke:none;fill-rule:nonzero;fill:rgb(22.745098%,44.313726%,90.588236%);fill-opacity:1;" d="M 29.300781 10.867188 C 29.773438 11.230469 30 11.457031 30.09375 12.070312 C 30.125 12.550781 30.136719 12.886719 29.871094 13.300781 C 29.65625 13.542969 29.433594 13.765625 29.203125 13.992188 C 29.082031 14.171875 29.082031 14.171875 28.957031 14.355469 C 28.878906 14.355469 28.796875 14.355469 28.714844 14.355469 C 28.675781 14.476562 28.632812 14.597656 28.59375 14.722656 C 28.386719 14.914062 28.167969 15.085938 27.945312 15.257812 C 27.722656 15.46875 27.617188 15.660156 27.5 15.9375 C 27.417969 15.9375 27.335938 15.9375 27.253906 15.9375 C 27.253906 16.019531 27.253906 16.101562 27.253906 16.183594 C 27.058594 16.347656 27.058594 16.347656 26.796875 16.53125 C 26.503906 16.746094 26.25 16.945312 25.992188 17.203125 C 25.925781 17.265625 25.863281 17.332031 25.792969 17.398438 C 25.714844 17.398438 25.632812 17.398438 25.550781 17.398438 C 25.511719 17.519531 25.472656 17.640625 25.429688 17.765625 C 25.195312 18.03125 25.195312 18.03125 24.941406 18.25 C 24.863281 18.25 24.78125 18.25 24.699219 18.25 C 24.6875 18.324219 24.675781 18.394531 24.664062 18.46875 C 24.5625 18.792969 24.429688 18.925781 24.183594 19.160156 C 24.105469 19.234375 24.023438 19.3125 23.941406 19.394531 C 23.859375 19.472656 23.773438 19.554688 23.6875 19.636719 C 23.023438 20.257812 23.023438 20.257812 22.472656 20.976562 C 22.265625 21.292969 22.265625 21.292969 21.902344 21.414062 C 21.703125 21.609375 21.703125 21.609375 21.511719 21.847656 C 21.066406 22.371094 20.597656 22.855469 20.109375 23.339844 C 20.023438 23.425781 19.9375 23.511719 19.847656 23.601562 C 19.574219 23.875 19.300781 24.144531 19.027344 24.417969 C 18.84375 24.601562 18.65625 24.785156 18.472656 24.96875 C 18.0625 25.378906 17.648438 25.789062 17.238281 26.199219 C 17.109375 26.328125 16.980469 26.457031 16.851562 26.589844 C 16.628906 26.820312 16.449219 27 16.160156 27.140625 C 15.921875 27.234375 15.921875 27.234375 15.847656 27.457031 C 15.628906 27.863281 15.316406 28.175781 15.003906 28.507812 C 14.9375 28.578125 14.875 28.648438 14.804688 28.722656 C 14.453125 29.097656 14.09375 29.46875 13.726562 29.832031 C 13.386719 30.136719 13.386719 30.136719 13.261719 30.417969 C 12.910156 30.429688 12.558594 30.441406 12.207031 30.449219 C 12.105469 30.453125 12.007812 30.457031 11.902344 30.460938 C 11.398438 30.46875 11.140625 30.460938 10.703125 30.1875 C 10.285156 29.742188 10.304688 29.320312 10.316406 28.71875 C 10.375 28.167969 10.605469 27.828125 11.019531 27.476562 C 11.117188 27.402344 11.214844 27.328125 11.316406 27.253906 C 11.394531 27.132812 11.476562 27.015625 11.558594 26.890625 C 11.640625 26.890625 11.71875 26.890625 11.800781 26.890625 C 11.84375 26.769531 11.882812 26.648438 11.925781 26.523438 C 12.023438 26.46875 12.121094 26.410156 12.21875 26.351562 C 12.570312 26.136719 12.605469 26.027344 12.777344 25.671875 C 12.976562 25.507812 13.179688 25.347656 13.382812 25.1875 C 13.480469 25.066406 13.578125 24.945312 13.679688 24.820312 C 13.992188 24.457031 13.992188 24.457031 14.355469 24.21875 C 14.695312 23.988281 14.832031 23.839844 15.058594 23.511719 C 15.148438 23.382812 15.238281 23.253906 15.332031 23.117188 C 15.410156 23.117188 15.492188 23.117188 15.574219 23.117188 C 15.632812 22.9375 15.632812 22.9375 15.695312 22.753906 C 15.777344 22.753906 15.855469 22.753906 15.9375 22.753906 C 16.019531 22.59375 16.101562 22.429688 16.183594 22.265625 C 16.261719 22.265625 16.34375 22.265625 16.425781 22.265625 C 16.457031 22.195312 16.492188 22.121094 16.523438 22.046875 C 16.667969 21.777344 16.8125 21.605469 17.03125 21.394531 C 17.101562 21.320312 17.175781 21.25 17.25 21.175781 C 17.328125 21.097656 17.40625 21.019531 17.488281 20.941406 C 17.570312 20.859375 17.652344 20.78125 17.734375 20.695312 C 17.996094 20.4375 18.257812 20.179688 18.515625 19.925781 C 18.777344 19.667969 19.035156 19.414062 19.292969 19.15625 C 19.453125 18.996094 19.613281 18.839844 19.777344 18.679688 C 20.242188 18.21875 20.679688 17.746094 21.097656 17.242188 C 21.371094 16.949219 21.683594 16.753906 22.023438 16.546875 C 22.296875 16.324219 22.390625 16.179688 22.53125 15.847656 C 22.785156 15.390625 23.078125 15.148438 23.476562 14.820312 C 23.714844 14.609375 23.90625 14.398438 24.105469 14.152344 C 24.339844 13.867188 24.496094 13.722656 24.8125 13.519531 C 25.171875 13.273438 25.324219 13.089844 25.574219 12.746094 C 26 12.167969 26.496094 11.800781 27.089844 11.402344 C 27.402344 11.199219 27.402344 11.199219 27.621094 10.828125 C 28.207031 10.632812 28.738281 10.605469 29.300781 10.867188 Z M 29.300781 10.867188 "/>
<path style=" stroke:none;fill-rule:nonzero;fill:rgb(22.352941%,44.313726%,90.588236%);fill-opacity:1;" d="M 21.050781 2.3125 C 21.4375 2.527344 21.59375 2.691406 21.816406 3.066406 C 21.980469 3.734375 22.019531 4.386719 21.65625 4.988281 C 21.460938 5.195312 21.257812 5.398438 21.050781 5.597656 C 20.886719 5.765625 20.886719 5.765625 20.722656 5.9375 C 20.441406 6.207031 20.441406 6.207031 20.199219 6.207031 C 20.15625 6.324219 20.117188 6.445312 20.074219 6.570312 C 19.878906 6.777344 19.675781 6.980469 19.46875 7.179688 C 19.257812 7.382812 19.050781 7.582031 18.84375 7.785156 C 18.742188 7.886719 18.636719 7.988281 18.53125 8.089844 C 18.25 8.375 18.25 8.375 18.085938 8.679688 C 17.859375 9.046875 17.601562 9.3125 17.296875 9.613281 C 17.183594 9.726562 17.070312 9.839844 16.953125 9.953125 C 16.832031 10.070312 16.710938 10.1875 16.59375 10.304688 C 16.359375 10.535156 16.125 10.765625 15.890625 10.996094 C 15.785156 11.097656 15.679688 11.203125 15.574219 11.304688 C 15.324219 11.539062 15.324219 11.539062 15.210938 11.800781 C 15.085938 11.863281 14.964844 11.921875 14.835938 11.984375 C 14.292969 12.28125 13.984375 12.726562 13.617188 13.214844 C 13.417969 13.464844 13.234375 13.652344 12.980469 13.847656 C 12.648438 14.117188 12.496094 14.351562 12.289062 14.722656 C 12.097656 14.941406 12.097656 14.941406 11.925781 15.085938 C 11.84375 15.085938 11.761719 15.085938 11.679688 15.085938 C 11.648438 15.160156 11.617188 15.230469 11.585938 15.304688 C 11.429688 15.589844 11.261719 15.777344 11.03125 16.003906 C 10.953125 16.082031 10.871094 16.160156 10.789062 16.242188 C 10.707031 16.324219 10.625 16.402344 10.539062 16.488281 C 10.457031 16.566406 10.375 16.648438 10.292969 16.730469 C 10.132812 16.886719 9.976562 17.042969 9.816406 17.195312 C 9.652344 17.359375 9.492188 17.523438 9.332031 17.691406 C 8.953125 18.046875 8.535156 18.042969 8.03125 18.035156 C 7.519531 17.976562 7.132812 17.660156 6.8125 17.277344 C 6.617188 16.6875 6.582031 16.074219 6.828125 15.5 C 6.941406 15.355469 6.941406 15.355469 7.058594 15.210938 C 7.105469 15.144531 7.15625 15.078125 7.210938 15.011719 C 7.609375 14.519531 8.054688 14.105469 8.539062 13.699219 C 8.847656 13.429688 9.085938 13.203125 9.296875 12.847656 C 9.503906 12.507812 9.734375 12.269531 10.023438 11.992188 C 10.335938 11.683594 10.644531 11.382812 10.921875 11.042969 C 11.402344 10.453125 11.949219 9.976562 12.53125 9.492188 C 12.871094 9.167969 13.175781 8.839844 13.46875 8.480469 C 13.605469 8.316406 13.605469 8.316406 13.75 8.152344 C 13.828125 8.152344 13.910156 8.152344 13.992188 8.152344 C 13.992188 8.070312 13.992188 7.992188 13.992188 7.910156 C 14.082031 7.863281 14.167969 7.820312 14.257812 7.773438 C 14.601562 7.542969 14.695312 7.417969 14.898438 7.070312 C 15.132812 6.671875 15.371094 6.410156 15.742188 6.125 C 15.980469 5.925781 16.171875 5.703125 16.371094 5.46875 C 16.6875 5.097656 17.011719 4.796875 17.398438 4.5 C 17.726562 4.191406 18.023438 3.875 18.3125 3.527344 C 19.152344 2.519531 19.722656 2.152344 21.050781 2.3125 Z M 21.050781 2.3125 "/>
<path style=" stroke:none;fill-rule:nonzero;fill:rgb(23.137255%,44.705883%,90.588236%);fill-opacity:1;" d="M 25.917969 5.597656 C 26.355469 5.890625 26.488281 6.117188 26.691406 6.601562 C 26.804688 7.265625 26.828125 7.828125 26.492188 8.429688 C 26.171875 8.875 25.925781 9.132812 25.429688 9.367188 C 25.296875 9.605469 25.296875 9.605469 25.1875 9.855469 C 25.003906 10.070312 25.003906 10.070312 24.820312 10.21875 C 24.742188 10.21875 24.660156 10.21875 24.578125 10.21875 C 24.546875 10.292969 24.511719 10.367188 24.480469 10.441406 C 24.335938 10.707031 24.203125 10.878906 23.96875 11.070312 C 23.890625 11.070312 23.808594 11.070312 23.726562 11.070312 C 23.695312 11.140625 23.664062 11.207031 23.636719 11.277344 C 23.453125 11.609375 23.246094 11.882812 22.996094 12.167969 C 22.914062 12.167969 22.835938 12.167969 22.753906 12.167969 C 22.726562 12.234375 22.699219 12.304688 22.667969 12.371094 C 22.390625 12.867188 21.972656 13.203125 21.535156 13.558594 C 21.257812 13.796875 21.058594 13.996094 20.835938 14.273438 C 20.746094 14.382812 20.65625 14.488281 20.5625 14.601562 C 20.484375 14.601562 20.402344 14.601562 20.320312 14.601562 C 20.289062 14.671875 20.257812 14.738281 20.230469 14.8125 C 20.050781 15.132812 19.839844 15.347656 19.578125 15.605469 C 19.480469 15.703125 19.382812 15.796875 19.28125 15.898438 C 19.179688 15.996094 19.078125 16.09375 18.972656 16.199219 C 18.769531 16.394531 18.570312 16.59375 18.367188 16.792969 C 18.277344 16.878906 18.1875 16.964844 18.097656 17.054688 C 17.878906 17.265625 17.878906 17.265625 17.765625 17.519531 C 17.582031 17.582031 17.582031 17.582031 17.398438 17.644531 C 17.300781 17.761719 17.199219 17.882812 17.09375 18.007812 C 16.789062 18.371094 16.789062 18.371094 16.425781 18.496094 C 15.679688 18.53125 15.164062 18.519531 14.570312 18.023438 C 14.191406 17.5625 14.21875 17.148438 14.207031 16.558594 C 14.273438 15.976562 14.527344 15.601562 14.9375 15.195312 C 15.03125 15.101562 15.125 15.007812 15.222656 14.914062 C 15.375 14.761719 15.375 14.761719 15.53125 14.609375 C 15.636719 14.507812 15.742188 14.402344 15.847656 14.296875 C 16.183594 13.964844 16.515625 13.636719 16.851562 13.308594 C 17.1875 12.976562 17.519531 12.648438 17.855469 12.316406 C 18.0625 12.109375 18.269531 11.90625 18.480469 11.699219 C 18.574219 11.605469 18.667969 11.515625 18.765625 11.417969 C 18.847656 11.335938 18.929688 11.253906 19.015625 11.171875 C 19.246094 10.9375 19.246094 10.9375 19.46875 10.585938 C 19.546875 10.585938 19.628906 10.585938 19.710938 10.585938 C 19.710938 10.503906 19.710938 10.425781 19.710938 10.34375 C 19.804688 10.285156 19.902344 10.230469 20 10.175781 C 20.328125 10.007812 20.328125 10.007812 20.441406 9.734375 C 20.609375 9.398438 20.847656 9.308594 21.171875 9.125 C 21.425781 8.910156 21.554688 8.726562 21.726562 8.433594 C 21.785156 8.339844 21.839844 8.246094 21.902344 8.152344 C 21.980469 8.152344 22.0625 8.152344 22.144531 8.152344 C 22.203125 7.972656 22.203125 7.972656 22.265625 7.785156 C 22.347656 7.785156 22.425781 7.785156 22.507812 7.785156 C 22.535156 7.71875 22.558594 7.648438 22.585938 7.574219 C 22.753906 7.300781 22.753906 7.300781 23.085938 7.085938 C 23.519531 6.789062 23.75 6.488281 24.042969 6.058594 C 24.523438 5.4375 25.199219 5.496094 25.917969 5.597656 Z M 25.917969 5.597656 "/>
<path style=" stroke:none;fill-rule:nonzero;fill:rgb(42.745098%,68.627453%,96.862745%);fill-opacity:1;" d="M 8.632812 6.296875 C 8.820312 6.292969 8.820312 6.292969 9.015625 6.285156 C 9.414062 6.332031 9.574219 6.410156 9.855469 6.691406 C 9.933594 6.996094 9.964844 7.234375 9.976562 7.542969 C 9.984375 7.664062 9.992188 7.785156 10 7.910156 C 10.027344 8.675781 10.027344 8.675781 9.976562 9.003906 C 9.75 9.21875 9.75 9.21875 9.492188 9.367188 C 9.058594 9.617188 9.058594 9.617188 8.675781 9.9375 C 8.625 9.992188 8.570312 10.042969 8.515625 10.097656 C 8.4375 10.097656 8.355469 10.097656 8.273438 10.097656 C 8.246094 10.167969 8.21875 10.234375 8.191406 10.304688 C 7.984375 10.664062 7.71875 10.90625 7.421875 11.195312 C 7.328125 11.308594 7.238281 11.425781 7.140625 11.542969 C 6.894531 11.847656 6.625 12.097656 6.328125 12.351562 C 5.800781 12.800781 5.398438 13.285156 4.980469 13.839844 C 4.664062 14.207031 4.421875 14.339844 3.941406 14.394531 C 2.777344 14.398438 2.777344 14.398438 2.3125 13.992188 C 2.035156 13.695312 1.949219 13.546875 1.910156 13.140625 C 1.914062 13.007812 1.917969 12.878906 1.925781 12.746094 C 1.929688 12.546875 1.929688 12.546875 1.933594 12.347656 C 1.9375 12.25 1.941406 12.148438 1.945312 12.046875 C 2.027344 12.046875 2.105469 12.046875 2.191406 12.046875 C 2.222656 11.953125 2.253906 11.859375 2.289062 11.765625 C 2.425781 11.449219 2.53125 11.28125 2.796875 11.070312 C 2.878906 11.070312 2.960938 11.070312 3.042969 11.070312 C 3.070312 11.003906 3.097656 10.9375 3.128906 10.867188 C 3.4375 10.316406 3.929688 9.898438 4.375 9.457031 C 4.554688 9.277344 4.734375 9.097656 4.910156 8.914062 C 5.023438 8.800781 5.136719 8.6875 5.253906 8.570312 C 5.359375 8.46875 5.460938 8.363281 5.566406 8.257812 C 5.839844 8.03125 5.839844 8.03125 6.207031 8.03125 C 6.234375 7.960938 6.261719 7.890625 6.289062 7.816406 C 6.488281 7.472656 6.746094 7.300781 7.058594 7.058594 C 7.183594 6.894531 7.183594 6.894531 7.316406 6.730469 C 7.6875 6.273438 8.074219 6.304688 8.632812 6.296875 Z M 8.632812 6.296875 "/>
<path style=" stroke:none;fill-rule:nonzero;fill:rgb(43.529412%,69.411767%,96.862745%);fill-opacity:1;" d="M 12.25 19.792969 C 12.726562 20.066406 12.96875 20.414062 13.140625 20.929688 C 13.214844 21.554688 13.195312 21.894531 12.820312 22.410156 C 12.476562 22.824219 12.105469 23.148438 11.679688 23.484375 C 11.578125 23.585938 11.476562 23.6875 11.367188 23.792969 C 11.082031 24.082031 10.78125 24.324219 10.464844 24.578125 C 10.125 24.898438 9.820312 25.226562 9.527344 25.589844 C 9.390625 25.75 9.390625 25.75 9.246094 25.917969 C 9.167969 25.917969 9.085938 25.917969 9.003906 25.917969 C 9.003906 25.996094 9.003906 26.078125 9.003906 26.160156 C 8.921875 26.160156 8.84375 26.160156 8.761719 26.160156 C 8.71875 26.359375 8.679688 26.5625 8.640625 26.769531 C 8.558594 26.769531 8.476562 26.769531 8.394531 26.769531 C 8.359375 26.882812 8.359375 26.882812 8.320312 26.996094 C 8.074219 27.375 7.859375 27.402344 7.421875 27.5 C 6.902344 27.550781 6.46875 27.554688 5.976562 27.359375 C 5.523438 26.960938 5.367188 26.574219 5.316406 25.976562 C 5.371094 25.347656 5.480469 24.964844 5.886719 24.472656 C 6.207031 24.214844 6.207031 24.214844 6.691406 24.214844 C 6.703125 24.140625 6.71875 24.066406 6.730469 23.992188 C 6.824219 23.6875 6.9375 23.558594 7.164062 23.339844 C 7.226562 23.277344 7.289062 23.214844 7.351562 23.152344 C 7.542969 22.996094 7.542969 22.996094 7.910156 22.875 C 8.035156 22.671875 8.15625 22.46875 8.273438 22.265625 C 8.453125 22.066406 8.636719 21.871094 8.828125 21.679688 C 8.9375 21.570312 9.042969 21.464844 9.152344 21.355469 C 9.265625 21.242188 9.375 21.132812 9.492188 21.019531 C 9.601562 20.90625 9.714844 20.792969 9.828125 20.679688 C 9.933594 20.570312 10.042969 20.464844 10.152344 20.355469 C 10.25 20.257812 10.347656 20.160156 10.449219 20.058594 C 10.972656 19.601562 11.601562 19.628906 12.25 19.792969 Z M 12.25 19.792969 "/>
<path style=" stroke:none;fill-rule:nonzero;fill:rgb(43.921569%,69.411767%,96.862745%);fill-opacity:1;" d="M 29.082031 19.222656 C 29.507812 19.503906 29.507812 19.503906 29.6875 19.710938 C 29.6875 19.871094 29.6875 20.03125 29.6875 20.199219 C 29.769531 20.199219 29.847656 20.199219 29.929688 20.199219 C 29.9375 20.371094 29.941406 20.542969 29.945312 20.714844 C 29.949219 20.8125 29.953125 20.90625 29.957031 21.003906 C 29.929688 21.324219 29.859375 21.511719 29.6875 21.78125 C 29.484375 21.902344 29.28125 22.023438 29.078125 22.144531 C 28.914062 22.34375 28.75 22.546875 28.59375 22.753906 C 28.328125 23.023438 28.0625 23.289062 27.789062 23.550781 C 27.375 23.945312 27.375 23.945312 27.132812 24.457031 C 27.011719 24.457031 26.890625 24.457031 26.769531 24.457031 C 26.769531 24.535156 26.769531 24.617188 26.769531 24.699219 C 26.40625 24.699219 26.046875 24.699219 25.671875 24.699219 C 25.671875 24.621094 25.671875 24.539062 25.671875 24.457031 C 25.601562 24.445312 25.527344 24.429688 25.453125 24.417969 C 25.0625 24.296875 24.894531 24.097656 24.695312 23.746094 C 24.464844 23.230469 24.417969 22.816406 24.578125 22.265625 C 25.015625 21.671875 25.539062 21.179688 26.074219 20.675781 C 26.21875 20.535156 26.363281 20.398438 26.507812 20.257812 C 28.078125 18.734375 28.078125 18.734375 29.082031 19.222656 Z M 29.082031 19.222656 "/>
<path style=" stroke:none;fill-rule:nonzero;fill:rgb(73.725492%,86.274511%,98.823529%);fill-opacity:1;" d="M 19.589844 27.253906 C 20.597656 27.144531 20.597656 27.144531 21.066406 27.390625 C 21.65625 27.871094 21.839844 28.320312 21.953125 29.066406 C 21.890625 29.511719 21.820312 29.84375 21.574219 30.226562 C 20.902344 30.683594 19.875 30.476562 19.101562 30.417969 C 19.054688 30.300781 19.054688 30.300781 19.003906 30.183594 C 18.875 29.890625 18.875 29.890625 18.496094 29.808594 C 18.3125 29.261719 18.21875 28.65625 18.488281 28.121094 C 18.734375 27.800781 18.9375 27.632812 19.324219 27.511719 C 19.453125 27.503906 19.453125 27.503906 19.589844 27.5 C 19.589844 27.417969 19.589844 27.335938 19.589844 27.253906 Z M 19.589844 27.253906 "/>
<path style=" stroke:none;fill-rule:nonzero;fill:rgb(73.725492%,86.274511%,98.823529%);fill-opacity:1;" d="M 12.652344 1.894531 C 13.171875 2.003906 13.578125 2.261719 13.953125 2.644531 C 14.171875 3.023438 14.148438 3.308594 14.136719 3.742188 C 14.132812 3.882812 14.128906 4.027344 14.125 4.171875 C 14.121094 4.28125 14.117188 4.390625 14.113281 4.5 C 14.035156 4.5 13.953125 4.5 13.871094 4.5 C 13.839844 4.597656 13.804688 4.691406 13.773438 4.789062 C 13.628906 5.109375 13.628906 5.109375 13.261719 5.355469 C 11.964844 5.53125 11.964844 5.53125 11.441406 5.203125 C 11.171875 4.886719 11.070312 4.675781 11.070312 4.257812 C 10.992188 4.257812 10.910156 4.257812 10.828125 4.257812 C 10.757812 3.078125 10.757812 3.078125 11.195312 2.554688 C 11.648438 2.078125 11.972656 1.847656 12.652344 1.894531 Z M 12.652344 1.894531 "/>
<path style=" stroke:none;fill-rule:nonzero;fill:rgb(74.901962%,87.058824%,98.823529%);fill-opacity:1;" d="M 3.832031 19.210938 C 3.925781 19.207031 4.015625 19.207031 4.109375 19.207031 C 4.519531 19.234375 4.78125 19.257812 5.070312 19.558594 C 5.414062 20.144531 5.375 20.757812 5.355469 21.414062 C 5.3125 21.496094 5.273438 21.574219 5.230469 21.65625 C 5.152344 21.65625 5.070312 21.65625 4.988281 21.65625 C 4.910156 21.820312 4.828125 21.980469 4.746094 22.144531 C 4.664062 22.144531 4.585938 22.144531 4.5 22.144531 C 4.5 22.226562 4.5 22.304688 4.5 22.386719 C 4.113281 22.582031 3.710938 22.550781 3.285156 22.507812 C 2.828125 22.355469 2.617188 22.226562 2.328125 21.839844 C 2.121094 21.195312 2 20.464844 2.308594 19.832031 C 2.746094 19.273438 3.164062 19.207031 3.832031 19.210938 Z M 3.832031 19.210938 "/>
<path style=" stroke:none;fill-rule:nonzero;fill:rgb(51.764709%,73.725492%,97.254902%);fill-opacity:1;" d="M 8.632812 6.296875 C 8.820312 6.292969 8.820312 6.292969 9.015625 6.285156 C 9.414062 6.332031 9.574219 6.410156 9.855469 6.691406 C 9.933594 6.996094 9.964844 7.234375 9.976562 7.542969 C 9.984375 7.664062 9.992188 7.785156 10 7.910156 C 10.027344 8.675781 10.027344 8.675781 9.976562 9.003906 C 9.730469 9.230469 9.730469 9.230469 9.492188 9.367188 C 9.410156 9.328125 9.328125 9.289062 9.246094 9.246094 C 9.304688 9.1875 9.363281 9.125 9.421875 9.066406 C 9.777344 8.496094 9.757812 7.953125 9.664062 7.316406 C 9.527344 6.914062 9.527344 6.914062 9.179688 6.769531 C 8.675781 6.675781 8.175781 6.613281 7.664062 6.570312 C 7.617188 6.679688 7.617188 6.679688 7.566406 6.789062 C 7.425781 7.054688 7.285156 7.226562 7.074219 7.4375 C 7.003906 7.507812 6.933594 7.578125 6.863281 7.648438 C 6.75 7.761719 6.75 7.761719 6.636719 7.875 C 6.558594 7.953125 6.480469 8.03125 6.402344 8.113281 C 6.238281 8.273438 6.074219 8.4375 5.910156 8.601562 C 5.65625 8.851562 5.40625 9.101562 5.15625 9.355469 C 5 9.515625 4.839844 9.671875 4.679688 9.832031 C 4.605469 9.90625 4.53125 9.980469 4.453125 10.058594 C 3.921875 10.585938 3.921875 10.585938 3.648438 10.585938 C 3.621094 10.65625 3.589844 10.726562 3.558594 10.796875 C 3.382812 11.117188 3.175781 11.324219 2.914062 11.574219 C 2.566406 11.898438 2.566406 11.898438 2.3125 12.289062 C 2.230469 12.289062 2.152344 12.289062 2.070312 12.289062 C 2.097656 12.503906 2.132812 12.71875 2.167969 12.933594 C 2.1875 13.054688 2.203125 13.175781 2.222656 13.300781 C 2.316406 13.648438 2.394531 13.777344 2.675781 13.992188 C 3.160156 14.140625 3.636719 14.15625 4.136719 14.113281 C 4.539062 13.890625 4.539062 13.890625 4.867188 13.628906 C 4.988281 13.566406 4.988281 13.566406 5.109375 13.503906 C 4.996094 13.8125 4.875 13.984375 4.632812 14.207031 C 3.960938 14.476562 3.222656 14.484375 2.554688 14.207031 C 2.171875 13.871094 1.960938 13.660156 1.910156 13.140625 C 1.914062 13.007812 1.917969 12.878906 1.925781 12.746094 C 1.929688 12.546875 1.929688 12.546875 1.933594 12.347656 C 1.9375 12.25 1.941406 12.148438 1.945312 12.046875 C 2.027344 12.046875 2.105469 12.046875 2.191406 12.046875 C 2.222656 11.953125 2.253906 11.859375 2.289062 11.765625 C 2.425781 11.449219 2.53125 11.28125 2.796875 11.070312 C 2.878906 11.070312 2.960938 11.070312 3.042969 11.070312 C 3.070312 11.003906 3.097656 10.9375 3.128906 10.867188 C 3.4375 10.316406 3.929688 9.898438 4.375 9.457031 C 4.554688 9.277344 4.734375 9.097656 4.910156 8.914062 C 5.023438 8.800781 5.136719 8.6875 5.253906 8.570312 C 5.359375 8.46875 5.460938 8.363281 5.566406 8.257812 C 5.839844 8.03125 5.839844 8.03125 6.207031 8.03125 C 6.234375 7.960938 6.261719 7.890625 6.289062 7.816406 C 6.488281 7.472656 6.746094 7.300781 7.058594 7.058594 C 7.183594 6.894531 7.183594 6.894531 7.316406 6.730469 C 7.6875 6.273438 8.074219 6.304688 8.632812 6.296875 Z M 8.632812 6.296875 "/>
<path style=" stroke:none;fill-rule:nonzero;fill:rgb(60.000002%,71.372551%,94.901961%);fill-opacity:1;" d="M 26.402344 11.925781 C 26.464844 12.042969 26.464844 12.042969 26.523438 12.167969 C 26.386719 12.574219 26.234375 12.738281 25.917969 13.019531 C 25.835938 13.019531 25.753906 13.019531 25.671875 13.019531 C 25.671875 13.097656 25.671875 13.179688 25.671875 13.261719 C 25.382812 13.582031 25.382812 13.582031 25.066406 13.871094 C 24.984375 13.871094 24.902344 13.871094 24.820312 13.871094 C 24.820312 13.949219 24.820312 14.03125 24.820312 14.113281 C 24.695312 14.144531 24.695312 14.144531 24.570312 14.175781 C 24.121094 14.40625 23.886719 14.710938 23.574219 15.101562 C 23.351562 15.339844 23.160156 15.433594 22.875 15.574219 C 22.847656 15.710938 22.847656 15.710938 22.820312 15.847656 C 22.644531 16.710938 21.613281 17.515625 20.929688 18.007812 C 20.644531 18.097656 20.644531 18.097656 20.441406 18.128906 C 20.648438 17.507812 21.132812 17.175781 21.65625 16.8125 C 22.101562 16.492188 22.324219 16.167969 22.589844 15.695312 C 22.832031 15.332031 23.148438 15.085938 23.484375 14.8125 C 23.71875 14.605469 23.910156 14.394531 24.105469 14.152344 C 24.339844 13.867188 24.496094 13.722656 24.8125 13.519531 C 25.261719 13.210938 25.523438 12.851562 25.839844 12.414062 C 26.039062 12.167969 26.039062 12.167969 26.402344 11.925781 Z M 26.402344 11.925781 "/>
<path style=" stroke:none;fill-rule:nonzero;fill:rgb(52.941179%,66.274512%,94.117647%);fill-opacity:1;" d="M 21.050781 2.3125 C 21.4375 2.554688 21.4375 2.554688 21.65625 2.796875 C 21.617188 2.878906 21.578125 2.960938 21.535156 3.042969 C 21.457031 2.960938 21.375 2.882812 21.292969 2.796875 C 20.777344 2.628906 20.246094 2.609375 19.710938 2.675781 C 19.199219 2.960938 18.902344 3.410156 18.570312 3.882812 C 18.140625 4.4375 17.613281 4.886719 17.070312 5.332031 C 16.957031 5.425781 16.839844 5.523438 16.722656 5.621094 C 16.425781 5.839844 16.425781 5.839844 16.183594 5.839844 C 16.15625 5.910156 16.128906 5.980469 16.097656 6.054688 C 15.898438 6.398438 15.648438 6.570312 15.332031 6.8125 C 15.167969 6.972656 15.003906 7.136719 14.84375 7.300781 C 14.992188 6.742188 15.273438 6.511719 15.703125 6.164062 C 15.957031 5.949219 16.164062 5.714844 16.378906 5.460938 C 16.695312 5.089844 17.011719 4.796875 17.398438 4.5 C 17.726562 4.191406 18.023438 3.875 18.3125 3.527344 C 19.148438 2.523438 19.726562 2.144531 21.050781 2.3125 Z M 21.050781 2.3125 "/>
<path style=" stroke:none;fill-rule:nonzero;fill:rgb(30.19608%,49.803922%,91.37255%);fill-opacity:1;" d="M 25.246094 5.558594 C 25.363281 5.558594 25.480469 5.554688 25.601562 5.554688 C 25.957031 5.601562 26.0625 5.683594 26.28125 5.960938 C 26.199219 5.941406 26.117188 5.921875 26.03125 5.902344 C 25.429688 5.796875 25.429688 5.796875 24.820312 5.839844 C 24.632812 6.011719 24.632812 6.011719 24.457031 6.242188 C 23.917969 6.886719 23.328125 7.480469 22.738281 8.074219 C 22.546875 8.269531 22.355469 8.460938 22.167969 8.652344 C 22.046875 8.777344 21.921875 8.898438 21.800781 9.023438 C 21.691406 9.132812 21.582031 9.242188 21.46875 9.355469 C 21.175781 9.605469 21.042969 9.65625 20.683594 9.734375 C 20.644531 9.855469 20.605469 9.976562 20.5625 10.097656 C 20.484375 10.058594 20.402344 10.019531 20.320312 9.976562 C 20.5 9.503906 20.738281 9.367188 21.171875 9.125 C 21.425781 8.910156 21.554688 8.726562 21.726562 8.433594 C 21.785156 8.339844 21.839844 8.246094 21.902344 8.152344 C 21.980469 8.152344 22.0625 8.152344 22.144531 8.152344 C 22.183594 8.03125 22.226562 7.910156 22.265625 7.785156 C 22.347656 7.785156 22.425781 7.785156 22.507812 7.785156 C 22.535156 7.71875 22.558594 7.648438 22.585938 7.574219 C 22.753906 7.300781 22.753906 7.300781 23.085938 7.085938 C 23.519531 6.789062 23.75 6.488281 24.042969 6.058594 C 24.394531 5.605469 24.703125 5.5625 25.246094 5.558594 Z M 25.246094 5.558594 "/>
<path style=" stroke:none;fill-rule:nonzero;fill:rgb(65.490198%,75.294119%,95.686275%);fill-opacity:1;" d="M 19.710938 10.34375 C 19.792969 10.382812 19.871094 10.421875 19.953125 10.464844 C 19.914062 10.585938 19.875 10.703125 19.832031 10.828125 C 19.753906 10.828125 19.671875 10.828125 19.589844 10.828125 C 19.589844 10.910156 19.589844 10.988281 19.589844 11.070312 C 19.410156 11.25 19.410156 11.25 19.160156 11.457031 C 18.386719 12.117188 17.667969 12.832031 16.945312 13.546875 C 16.769531 13.71875 16.597656 13.886719 16.421875 14.058594 C 16.164062 14.304688 15.910156 14.554688 15.660156 14.804688 C 15.582031 14.878906 15.503906 14.957031 15.421875 15.03125 C 14.902344 15.554688 14.714844 15.9375 14.601562 16.667969 C 14.597656 17.050781 14.597656 17.050781 14.644531 17.398438 C 14.660156 17.515625 14.671875 17.628906 14.6875 17.75 C 14.703125 17.878906 14.703125 17.878906 14.722656 18.007812 C 14.355469 17.765625 14.355469 17.765625 14.273438 17.566406 C 14.179688 16.863281 14.179688 16.339844 14.480469 15.695312 C 14.6875 15.445312 14.6875 15.445312 14.9375 15.195312 C 15.03125 15.101562 15.125 15.007812 15.222656 14.914062 C 15.324219 14.8125 15.425781 14.714844 15.53125 14.609375 C 15.636719 14.507812 15.742188 14.402344 15.847656 14.296875 C 16.183594 13.964844 16.515625 13.636719 16.851562 13.308594 C 17.1875 12.976562 17.519531 12.648438 17.855469 12.316406 C 18.0625 12.109375 18.269531 11.90625 18.480469 11.699219 C 18.574219 11.605469 18.667969 11.515625 18.765625 11.417969 C 18.847656 11.335938 18.929688 11.253906 19.015625 11.171875 C 19.246094 10.9375 19.246094 10.9375 19.46875 10.585938 C 19.546875 10.585938 19.628906 10.585938 19.710938 10.585938 C 19.710938 10.503906 19.710938 10.425781 19.710938 10.34375 Z M 19.710938 10.34375 "/>
<path style=" stroke:none;fill-rule:nonzero;fill:rgb(65.490198%,81.176472%,98.039216%);fill-opacity:1;" d="M 4.988281 8.882812 C 4.988281 9.246094 4.988281 9.246094 4.734375 9.527344 C 4.625 9.628906 4.515625 9.734375 4.402344 9.839844 C 3.988281 10.230469 3.695312 10.582031 3.40625 11.070312 C 3.246094 11.246094 3.078125 11.417969 2.90625 11.582031 C 2.5625 11.902344 2.5625 11.902344 2.3125 12.289062 C 2.230469 12.289062 2.152344 12.289062 2.070312 12.289062 C 2.097656 12.503906 2.132812 12.71875 2.167969 12.933594 C 2.1875 13.054688 2.203125 13.175781 2.222656 13.300781 C 2.316406 13.648438 2.394531 13.777344 2.675781 13.992188 C 3.160156 14.140625 3.636719 14.15625 4.136719 14.113281 C 4.539062 13.890625 4.539062 13.890625 4.867188 13.628906 C 4.988281 13.566406 4.988281 13.566406 5.109375 13.503906 C 4.996094 13.8125 4.875 13.984375 4.632812 14.207031 C 3.960938 14.476562 3.222656 14.484375 2.554688 14.207031 C 2.171875 13.871094 1.960938 13.660156 1.910156 13.140625 C 1.914062 13.007812 1.917969 12.878906 1.925781 12.746094 C 1.929688 12.546875 1.929688 12.546875 1.933594 12.347656 C 1.9375 12.25 1.941406 12.148438 1.945312 12.046875 C 2.027344 12.046875 2.105469 12.046875 2.191406 12.046875 C 2.238281 11.90625 2.238281 11.90625 2.289062 11.765625 C 2.425781 11.449219 2.53125 11.28125 2.796875 11.070312 C 2.878906 11.070312 2.960938 11.070312 3.042969 11.070312 C 3.074219 11 3.105469 10.929688 3.140625 10.855469 C 3.292969 10.574219 3.453125 10.390625 3.679688 10.164062 C 3.796875 10.050781 3.796875 10.050781 3.910156 9.9375 C 3.992188 9.859375 4.070312 9.78125 4.152344 9.703125 C 4.230469 9.625 4.3125 9.546875 4.394531 9.464844 C 4.59375 9.269531 4.789062 9.074219 4.988281 8.882812 Z M 4.988281 8.882812 "/>
<path style=" stroke:none;fill-rule:nonzero;fill:rgb(47.843137%,62.7451%,93.725491%);fill-opacity:1;" d="M 13.992188 7.910156 C 14.074219 7.949219 14.152344 7.988281 14.234375 8.03125 C 14.15625 8.191406 14.074219 8.351562 13.992188 8.515625 C 13.871094 8.515625 13.75 8.515625 13.628906 8.515625 C 13.59375 8.589844 13.558594 8.664062 13.519531 8.738281 C 13.382812 9.003906 13.382812 9.003906 13.140625 9.367188 C 13.058594 9.367188 12.980469 9.367188 12.898438 9.367188 C 12.855469 9.488281 12.816406 9.609375 12.777344 9.734375 C 12.675781 9.769531 12.574219 9.804688 12.472656 9.839844 C 12.371094 9.886719 12.269531 9.929688 12.167969 9.976562 C 12.148438 10.070312 12.132812 10.164062 12.117188 10.257812 C 11.992188 10.839844 11.507812 11.179688 11.070312 11.558594 C 10.871094 11.683594 10.667969 11.804688 10.464844 11.925781 C 10.210938 12.15625 9.972656 12.402344 9.734375 12.652344 C 9.652344 12.613281 9.574219 12.574219 9.492188 12.53125 C 9.5625 12.460938 9.632812 12.390625 9.707031 12.320312 C 10.335938 11.703125 10.335938 11.703125 10.921875 11.042969 C 11.402344 10.453125 11.949219 9.976562 12.53125 9.492188 C 12.871094 9.167969 13.175781 8.839844 13.46875 8.480469 C 13.558594 8.371094 13.652344 8.261719 13.75 8.152344 C 13.828125 8.152344 13.910156 8.152344 13.992188 8.152344 C 13.992188 8.070312 13.992188 7.992188 13.992188 7.910156 Z M 13.992188 7.910156 "/>
<path style=" stroke:none;fill-rule:nonzero;fill:rgb(74.117649%,85.882354%,98.431373%);fill-opacity:1;" d="M 29.445312 19.46875 C 29.605469 19.507812 29.765625 19.546875 29.929688 19.589844 C 30.054688 20 30.078125 20.378906 30.082031 20.804688 C 30.085938 20.929688 30.089844 21.058594 30.09375 21.1875 C 30.046875 21.582031 29.960938 21.738281 29.6875 22.023438 C 29.5625 22.078125 29.5625 22.078125 29.4375 22.136719 C 29.109375 22.316406 29.082031 22.53125 28.957031 22.875 C 28.777344 23.09375 28.777344 23.09375 28.59375 23.238281 C 28.511719 23.238281 28.433594 23.238281 28.351562 23.238281 C 28.320312 23.308594 28.289062 23.378906 28.257812 23.453125 C 28.082031 23.773438 27.90625 23.984375 27.621094 24.214844 C 27.359375 24.164062 27.359375 24.164062 27.132812 24.089844 C 27.28125 23.941406 27.433594 23.792969 27.582031 23.644531 C 27.671875 23.554688 27.757812 23.464844 27.851562 23.371094 C 28.046875 23.175781 28.242188 22.984375 28.441406 22.789062 C 28.722656 22.511719 28.722656 22.511719 28.964844 22.183594 C 29.203125 21.902344 29.203125 21.902344 29.449219 21.808594 C 29.726562 21.671875 29.726562 21.671875 29.789062 21.316406 C 29.804688 21.183594 29.824219 21.050781 29.839844 20.914062 C 29.859375 20.777344 29.875 20.644531 29.894531 20.507812 C 29.90625 20.40625 29.917969 20.304688 29.929688 20.199219 C 29.851562 20.199219 29.769531 20.199219 29.6875 20.199219 C 29.609375 19.957031 29.527344 19.714844 29.445312 19.46875 Z M 29.445312 19.46875 "/>
<path style=" stroke:none;fill-rule:nonzero;fill:rgb(89.019608%,92.156863%,98.431373%);fill-opacity:1;" d="M 26.039062 16.914062 C 26.117188 16.953125 26.199219 16.992188 26.28125 17.035156 C 26.199219 17.195312 26.121094 17.355469 26.039062 17.519531 C 25.917969 17.519531 25.796875 17.519531 25.671875 17.519531 C 25.632812 17.679688 25.59375 17.84375 25.550781 18.007812 C 25.472656 18.007812 25.390625 18.007812 25.308594 18.007812 C 25.269531 18.128906 25.226562 18.25 25.1875 18.371094 C 25.105469 18.371094 25.027344 18.371094 24.941406 18.371094 C 24.914062 18.464844 24.882812 18.554688 24.851562 18.644531 C 24.6875 19.007812 24.515625 19.210938 24.214844 19.46875 C 24.132812 19.46875 24.050781 19.46875 23.96875 19.46875 C 23.945312 19.53125 23.917969 19.597656 23.894531 19.664062 C 23.660156 20.066406 23.355469 20.390625 22.996094 20.683594 C 22.914062 20.683594 22.835938 20.683594 22.753906 20.683594 C 22.753906 20.765625 22.753906 20.84375 22.753906 20.929688 C 22.671875 20.886719 22.59375 20.847656 22.507812 20.804688 C 23.082031 20.128906 23.691406 19.5 24.328125 18.882812 C 24.601562 18.625 24.601562 18.625 24.699219 18.25 C 24.78125 18.25 24.859375 18.25 24.941406 18.25 C 24.976562 18.179688 25.007812 18.105469 25.042969 18.03125 C 25.1875 17.765625 25.320312 17.59375 25.550781 17.398438 C 25.632812 17.398438 25.710938 17.398438 25.792969 17.398438 C 25.875 17.238281 25.957031 17.078125 26.039062 16.914062 Z M 26.039062 16.914062 "/>
<path style=" stroke:none;fill-rule:nonzero;fill:rgb(49.411765%,63.921571%,93.725491%);fill-opacity:1;" d="M 20.320312 18.128906 C 20.320312 18.496094 20.320312 18.496094 20.171875 18.667969 C 20.074219 18.753906 20.074219 18.753906 19.976562 18.84375 C 19.742188 19.066406 19.585938 19.230469 19.421875 19.511719 C 19.058594 20.097656 18.546875 20.632812 17.953125 20.980469 C 17.597656 21.199219 17.34375 21.445312 17.058594 21.742188 C 16.914062 21.890625 16.914062 21.890625 16.765625 22.039062 C 16.65625 22.152344 16.65625 22.152344 16.546875 22.265625 C 16.546875 21.902344 16.546875 21.902344 16.691406 21.714844 C 16.757812 21.648438 16.824219 21.582031 16.894531 21.511719 C 16.96875 21.4375 17.042969 21.363281 17.121094 21.285156 C 17.207031 21.203125 17.289062 21.125 17.371094 21.039062 C 17.457031 20.957031 17.539062 20.875 17.625 20.789062 C 17.894531 20.523438 18.164062 20.257812 18.433594 19.992188 C 18.617188 19.8125 18.796875 19.632812 18.980469 19.453125 C 19.425781 19.011719 19.871094 18.570312 20.320312 18.128906 Z M 20.320312 18.128906 "/>
<path style=" stroke:none;fill-rule:nonzero;fill:rgb(77.254903%,87.450981%,98.431373%);fill-opacity:1;" d="M 9.125 9.367188 C 9.125 9.734375 9.125 9.734375 8.898438 10 C 8.640625 10.21875 8.640625 10.21875 8.394531 10.21875 C 8.363281 10.289062 8.332031 10.359375 8.296875 10.433594 C 8.148438 10.714844 7.992188 10.953125 7.785156 11.195312 C 7.707031 11.195312 7.625 11.195312 7.542969 11.195312 C 7.53125 11.265625 7.519531 11.339844 7.503906 11.414062 C 7.410156 11.722656 7.3125 11.851562 7.058594 12.046875 C 6.9375 12.046875 6.816406 12.046875 6.691406 12.046875 C 6.683594 12.117188 6.671875 12.1875 6.660156 12.257812 C 6.445312 12.910156 5.8125 13.214844 5.230469 13.503906 C 5.417969 13.0625 5.683594 12.777344 6.023438 12.441406 C 6.121094 12.34375 6.214844 12.246094 6.316406 12.144531 C 6.570312 11.925781 6.570312 11.925781 6.8125 11.925781 C 6.847656 11.851562 6.878906 11.777344 6.914062 11.703125 C 7.058594 11.4375 7.191406 11.265625 7.421875 11.070312 C 7.503906 11.070312 7.582031 11.070312 7.664062 11.070312 C 7.691406 11.003906 7.71875 10.9375 7.75 10.867188 C 7.953125 10.503906 8.214844 10.265625 8.515625 9.976562 C 8.628906 9.863281 8.742188 9.75 8.859375 9.636719 C 8.945312 9.546875 9.035156 9.460938 9.125 9.367188 Z M 9.125 9.367188 "/>
<path style=" stroke:none;fill-rule:nonzero;fill:rgb(72.941178%,85.09804%,98.431373%);fill-opacity:1;" d="M 11.792969 19.386719 C 12.082031 19.480469 12.214844 19.601562 12.410156 19.832031 C 12.277344 19.828125 12.277344 19.828125 12.140625 19.820312 C 12.019531 19.816406 11.902344 19.8125 11.78125 19.808594 C 11.664062 19.804688 11.546875 19.800781 11.425781 19.796875 C 10.769531 19.863281 10.359375 20.273438 9.90625 20.722656 C 9.804688 20.824219 9.703125 20.921875 9.601562 21.027344 C 9.496094 21.132812 9.390625 21.238281 9.285156 21.347656 C 9.179688 21.449219 9.074219 21.554688 8.964844 21.664062 C 8.863281 21.765625 8.765625 21.863281 8.660156 21.96875 C 8.523438 22.105469 8.523438 22.105469 8.382812 22.246094 C 8.167969 22.492188 8.050781 22.707031 7.910156 22.996094 C 7.648438 23.085938 7.648438 23.085938 7.421875 23.117188 C 7.421875 23.039062 7.421875 22.957031 7.421875 22.875 C 7.503906 22.875 7.582031 22.875 7.664062 22.875 C 7.664062 22.792969 7.664062 22.714844 7.664062 22.632812 C 7.746094 22.632812 7.824219 22.632812 7.910156 22.632812 C 7.9375 22.5625 7.964844 22.496094 7.996094 22.425781 C 8.308594 21.863281 8.800781 21.421875 9.246094 20.964844 C 9.367188 20.839844 9.488281 20.710938 9.605469 20.585938 C 10.792969 19.308594 10.792969 19.308594 11.792969 19.386719 Z M 11.792969 19.386719 "/>
<path style=" stroke:none;fill-rule:nonzero;fill:rgb(77.64706%,87.843138%,98.431373%);fill-opacity:1;" d="M 11.4375 23.484375 C 11.515625 23.523438 11.597656 23.5625 11.679688 23.605469 C 11.148438 24.5 10.390625 25.695312 9.367188 26.039062 C 9.328125 26.117188 9.289062 26.199219 9.246094 26.28125 C 8.996094 26.355469 8.996094 26.355469 8.761719 26.402344 C 8.761719 26.324219 8.761719 26.242188 8.761719 26.160156 C 8.839844 26.160156 8.921875 26.160156 9.003906 26.160156 C 9.003906 26.078125 9.003906 26 9.003906 25.917969 C 9.292969 25.601562 9.589844 25.328125 9.925781 25.066406 C 10.238281 24.808594 10.457031 24.53125 10.707031 24.214844 C 10.90625 24.007812 11.109375 23.804688 11.316406 23.605469 C 11.355469 23.5625 11.394531 23.523438 11.4375 23.484375 Z M 11.4375 23.484375 "/>
<path style=" stroke:none;fill-rule:nonzero;fill:rgb(86.666667%,92.941177%,99.215686%);fill-opacity:1;" d="M 12.636719 1.902344 C 13.167969 1.992188 13.578125 2.257812 13.953125 2.644531 C 14.171875 3.023438 14.148438 3.308594 14.136719 3.742188 C 14.132812 3.882812 14.128906 4.027344 14.125 4.171875 C 14.121094 4.28125 14.117188 4.390625 14.113281 4.5 C 14.035156 4.5 13.953125 4.5 13.871094 4.5 C 13.84375 4.597656 13.816406 4.691406 13.785156 4.789062 C 13.628906 5.109375 13.628906 5.109375 13.308594 5.269531 C 13.210938 5.296875 13.117188 5.324219 13.019531 5.355469 C 13.09375 5.285156 13.167969 5.21875 13.246094 5.148438 C 13.734375 4.621094 13.796875 4.121094 13.78125 3.425781 C 13.722656 2.9375 13.476562 2.648438 13.140625 2.3125 C 12.761719 2.28125 12.761719 2.28125 12.335938 2.296875 C 12.117188 2.300781 12.117188 2.300781 11.894531 2.304688 C 11.730469 2.308594 11.730469 2.308594 11.558594 2.3125 C 11.886719 1.929688 12.128906 1.882812 12.636719 1.902344 Z M 12.636719 1.902344 "/>
<path style=" stroke:none;fill-rule:nonzero;fill:rgb(57.647061%,69.803923%,94.509804%);fill-opacity:1;" d="M 12.167969 26.402344 C 12.207031 26.523438 12.246094 26.644531 12.289062 26.769531 C 12.121094 26.949219 12.121094 26.949219 11.925781 27.132812 C 11.84375 27.132812 11.761719 27.132812 11.679688 27.132812 C 11.640625 27.253906 11.601562 27.375 11.558594 27.5 C 11.324219 27.765625 11.324219 27.765625 11.070312 27.984375 C 10.992188 27.984375 10.910156 27.984375 10.828125 27.984375 C 10.828125 28.144531 10.828125 28.304688 10.828125 28.472656 C 10.75 28.472656 10.667969 28.472656 10.585938 28.472656 C 10.59375 28.5625 10.601562 28.65625 10.613281 28.75 C 10.625 28.871094 10.632812 28.992188 10.644531 29.117188 C 10.65625 29.238281 10.667969 29.359375 10.679688 29.480469 C 10.707031 29.808594 10.707031 29.808594 10.707031 30.175781 C 10.328125 29.796875 10.347656 29.507812 10.3125 28.972656 C 10.320312 28.484375 10.433594 28.15625 10.707031 27.742188 C 10.90625 27.574219 11.105469 27.410156 11.316406 27.253906 C 11.394531 27.132812 11.476562 27.015625 11.558594 26.890625 C 11.640625 26.890625 11.71875 26.890625 11.800781 26.890625 C 11.84375 26.769531 11.882812 26.648438 11.925781 26.523438 C 12.003906 26.484375 12.085938 26.445312 12.167969 26.402344 Z M 12.167969 26.402344 "/>
<path style=" stroke:none;fill-rule:nonzero;fill:rgb(84.705883%,89.019608%,98.039216%);fill-opacity:1;" d="M 17.886719 25.429688 C 17.886719 25.859375 17.8125 25.929688 17.535156 26.242188 C 17.472656 26.320312 17.40625 26.394531 17.339844 26.472656 C 17.15625 26.644531 17.15625 26.644531 16.914062 26.644531 C 16.882812 26.722656 16.851562 26.796875 16.820312 26.875 C 16.640625 27.183594 16.496094 27.21875 16.183594 27.375 C 16.144531 27.453125 16.105469 27.527344 16.070312 27.605469 C 15.894531 27.953125 15.640625 28.121094 15.332031 28.351562 C 15.332031 27.84375 15.601562 27.601562 15.9375 27.253906 C 16.140625 27.089844 16.34375 26.925781 16.546875 26.769531 C 16.753906 26.566406 16.957031 26.363281 17.15625 26.160156 C 17.289062 26.023438 17.425781 25.890625 17.558594 25.757812 C 17.667969 25.648438 17.773438 25.539062 17.886719 25.429688 Z M 17.886719 25.429688 "/>
<path style=" stroke:none;fill-rule:nonzero;fill:rgb(30.588236%,50.196081%,91.37255%);fill-opacity:1;" d="M 22.753906 15.816406 C 22.753906 16.429688 22.242188 16.808594 21.839844 17.230469 C 20.980469 18.050781 20.980469 18.050781 20.441406 18.128906 C 20.679688 17.417969 21.324219 17.035156 21.910156 16.605469 C 22.21875 16.367188 22.484375 16.101562 22.753906 15.816406 Z M 22.753906 15.816406 "/>
<path style=" stroke:none;fill-rule:nonzero;fill:rgb(61.960787%,72.549021%,95.294118%);fill-opacity:1;" d="M 20.929688 5.597656 C 20.929688 5.71875 20.929688 5.835938 20.929688 5.960938 C 20.847656 5.960938 20.765625 5.960938 20.683594 5.960938 C 20.652344 6.050781 20.625 6.136719 20.59375 6.226562 C 20.378906 6.714844 20.136719 7.074219 19.671875 7.34375 C 19.3125 7.5625 19.050781 7.8125 18.761719 8.113281 C 18.617188 8.261719 18.617188 8.261719 18.46875 8.410156 C 18.359375 8.523438 18.359375 8.523438 18.25 8.640625 C 18.25 8.273438 18.25 8.273438 18.523438 7.972656 C 18.640625 7.855469 18.761719 7.742188 18.882812 7.628906 C 19.433594 7.097656 19.433594 7.097656 19.929688 6.523438 C 20.234375 6.160156 20.554688 5.890625 20.929688 5.597656 Z M 20.929688 5.597656 "/>
<path style=" stroke:none;fill-rule:nonzero;fill:rgb(54.509807%,67.450982%,94.509804%);fill-opacity:1;" d="M 29.300781 10.867188 C 29.691406 11.167969 29.894531 11.328125 30.054688 11.800781 C 30.164062 12.875 30.164062 12.875 29.808594 13.339844 C 29.6875 13.421875 29.6875 13.421875 29.566406 13.503906 C 29.605469 13.226562 29.648438 12.945312 29.6875 12.652344 C 29.769531 12.652344 29.847656 12.652344 29.929688 12.652344 C 29.902344 12.480469 29.871094 12.308594 29.839844 12.136719 C 29.824219 12.039062 29.804688 11.945312 29.789062 11.847656 C 29.65625 11.46875 29.527344 11.308594 29.203125 11.070312 C 28.773438 11.011719 28.773438 11.011719 28.320312 11.042969 C 28.164062 11.046875 28.011719 11.050781 27.855469 11.054688 C 27.734375 11.0625 27.617188 11.066406 27.5 11.070312 C 27.804688 10.460938 28.773438 10.621094 29.300781 10.867188 Z M 29.300781 10.867188 "/>
<path style=" stroke:none;fill-rule:nonzero;fill:rgb(68.627453%,77.64706%,96.078432%);fill-opacity:1;" d="M 14.84375 11.800781 C 14.84375 11.921875 14.84375 12.042969 14.84375 12.167969 C 14.722656 12.246094 14.601562 12.328125 14.480469 12.410156 C 14.480469 12.53125 14.480469 12.652344 14.480469 12.777344 C 14.039062 13.320312 13.523438 13.792969 12.898438 14.113281 C 12.777344 14.195312 12.65625 14.273438 12.53125 14.355469 C 12.6875 14.007812 12.84375 13.753906 13.140625 13.503906 C 13.222656 13.503906 13.300781 13.503906 13.382812 13.503906 C 13.414062 13.4375 13.445312 13.367188 13.480469 13.292969 C 13.640625 12.996094 13.824219 12.769531 14.046875 12.515625 C 14.117188 12.433594 14.191406 12.351562 14.265625 12.265625 C 14.480469 12.046875 14.480469 12.046875 14.84375 11.800781 Z M 14.84375 11.800781 "/>
<path style=" stroke:none;fill-rule:nonzero;fill:rgb(86.666667%,92.941177%,99.215686%);fill-opacity:1;" d="M 18.738281 27.863281 C 18.738281 28.226562 18.738281 28.226562 18.691406 28.472656 C 18.597656 28.960938 18.566406 29.363281 18.789062 29.816406 C 19.070312 30.164062 19.242188 30.175781 19.691406 30.238281 C 20.195312 30.257812 20.671875 30.25 21.171875 30.175781 C 21.25 30.054688 21.332031 29.933594 21.414062 29.808594 C 21.496094 29.851562 21.574219 29.890625 21.65625 29.929688 C 21.546875 30.171875 21.546875 30.171875 21.292969 30.417969 C 20.917969 30.480469 20.550781 30.464844 20.175781 30.449219 C 20.070312 30.445312 19.96875 30.445312 19.863281 30.441406 C 19.609375 30.4375 19.355469 30.425781 19.101562 30.417969 C 19.054688 30.300781 19.054688 30.300781 19.003906 30.183594 C 18.875 29.890625 18.875 29.890625 18.496094 29.808594 C 18.332031 29.320312 18.316406 28.863281 18.371094 28.351562 C 18.554688 28.039062 18.554688 28.039062 18.738281 27.863281 Z M 18.738281 27.863281 "/>
<path style=" stroke:none;fill-rule:nonzero;fill:rgb(61.176473%,72.549021%,95.294118%);fill-opacity:1;" d="M 13.992188 7.910156 C 14.074219 7.949219 14.152344 7.988281 14.234375 8.03125 C 14.15625 8.191406 14.074219 8.351562 13.992188 8.515625 C 13.871094 8.515625 13.75 8.515625 13.628906 8.515625 C 13.59375 8.589844 13.558594 8.664062 13.519531 8.738281 C 13.382812 9.003906 13.382812 9.003906 13.140625 9.367188 C 13.058594 9.367188 12.980469 9.367188 12.898438 9.367188 C 12.855469 9.488281 12.816406 9.609375 12.777344 9.734375 C 12.535156 9.898438 12.292969 10.0625 12.046875 10.21875 C 12.003906 10.300781 11.964844 10.382812 11.925781 10.464844 C 11.84375 10.421875 11.761719 10.382812 11.679688 10.34375 C 11.769531 10.257812 11.855469 10.171875 11.945312 10.082031 C 12.179688 9.851562 12.382812 9.621094 12.59375 9.367188 C 13.410156 8.390625 13.410156 8.390625 13.992188 8.152344 C 13.992188 8.070312 13.992188 7.992188 13.992188 7.910156 Z M 13.992188 7.910156 "/>
<path style=" stroke:none;fill-rule:nonzero;fill:rgb(75.294119%,86.274511%,98.431373%);fill-opacity:1;" d="M 8.882812 6.328125 C 9.292969 6.394531 9.5 6.457031 9.855469 6.691406 C 9.925781 6.988281 9.960938 7.238281 9.976562 7.542969 C 9.984375 7.664062 9.992188 7.785156 10 7.910156 C 10.003906 8.042969 10.011719 8.171875 10.015625 8.304688 C 10.019531 8.429688 10.023438 8.550781 10.027344 8.679688 C 9.976562 9.003906 9.976562 9.003906 9.730469 9.230469 C 9.652344 9.277344 9.574219 9.320312 9.492188 9.367188 C 9.410156 9.328125 9.328125 9.289062 9.246094 9.246094 C 9.304688 9.1875 9.363281 9.125 9.421875 9.066406 C 9.78125 8.492188 9.769531 7.960938 9.636719 7.324219 C 9.453125 6.835938 9.316406 6.617188 8.882812 6.328125 Z M 8.882812 6.328125 "/>
<path style=" stroke:none;fill-rule:nonzero;fill:rgb(49.019608%,63.529414%,93.725491%);fill-opacity:1;" d="M 14.480469 24.214844 C 14.519531 24.332031 14.558594 24.453125 14.601562 24.578125 C 14.445312 24.746094 14.28125 24.90625 14.113281 25.066406 C 14.035156 25.066406 13.953125 25.066406 13.871094 25.066406 C 13.832031 25.183594 13.789062 25.304688 13.75 25.429688 C 13.628906 25.429688 13.507812 25.429688 13.382812 25.429688 C 13.382812 25.511719 13.382812 25.589844 13.382812 25.671875 C 13.144531 25.792969 12.902344 25.914062 12.652344 26.039062 C 12.808594 25.578125 13.007812 25.484375 13.382812 25.1875 C 13.492188 25.0625 13.59375 24.933594 13.695312 24.804688 C 13.960938 24.496094 14.105469 24.351562 14.480469 24.214844 Z M 14.480469 24.214844 "/>
<path style=" stroke:none;fill-rule:nonzero;fill:rgb(62.352943%,72.941178%,95.294118%);fill-opacity:1;" d="M 26.28125 5.960938 C 26.441406 5.960938 26.601562 5.960938 26.769531 5.960938 C 27.078125 6.542969 27.097656 7.144531 27.011719 7.785156 C 26.851562 8.164062 26.660156 8.449219 26.28125 8.640625 C 26.320312 8.570312 26.359375 8.5 26.398438 8.429688 C 26.742188 7.683594 26.679688 6.957031 26.402344 6.207031 C 26.363281 6.125 26.324219 6.042969 26.28125 5.960938 Z M 26.28125 5.960938 "/>
<path style=" stroke:none;fill-rule:nonzero;fill:rgb(87.450981%,93.725491%,99.215686%);fill-opacity:1;" d="M 5.230469 20.074219 C 5.542969 20.386719 5.519531 20.53125 5.527344 20.964844 C 5.519531 21.464844 5.507812 21.613281 5.203125 22.023438 C 5.089844 22.101562 4.980469 22.183594 4.867188 22.265625 C 4.792969 22.332031 4.71875 22.394531 4.640625 22.460938 C 4.324219 22.667969 4.132812 22.679688 3.757812 22.675781 C 3.597656 22.679688 3.597656 22.679688 3.4375 22.679688 C 3.347656 22.664062 3.257812 22.648438 3.164062 22.632812 C 3.082031 22.511719 3.003906 22.390625 2.921875 22.265625 C 3.039062 22.304688 3.160156 22.347656 3.285156 22.386719 C 3.496094 22.394531 3.707031 22.398438 3.917969 22.394531 C 4.027344 22.394531 4.136719 22.394531 4.25 22.390625 C 4.375 22.390625 4.375 22.390625 4.5 22.386719 C 4.5 22.308594 4.5 22.226562 4.5 22.144531 C 4.730469 21.886719 4.730469 21.886719 4.988281 21.65625 C 5.070312 21.65625 5.148438 21.65625 5.230469 21.65625 C 5.230469 21.136719 5.230469 20.613281 5.230469 20.074219 Z M 5.230469 20.074219 "/>
<path style=" stroke:none;fill-rule:nonzero;fill:rgb(36.470589%,54.509807%,92.156863%);fill-opacity:1;" d="M 9.367188 12.652344 C 9.464844 12.855469 9.464844 12.855469 9.492188 13.140625 C 9.308594 13.398438 9.136719 13.605469 8.921875 13.832031 C 8.8125 13.949219 8.703125 14.070312 8.589844 14.191406 C 8.300781 14.457031 8.167969 14.5625 7.785156 14.601562 C 7.785156 14.722656 7.785156 14.839844 7.785156 14.964844 C 7.625 15.007812 7.464844 15.046875 7.300781 15.085938 C 7.636719 14.515625 8.019531 14.125 8.527344 13.703125 C 8.910156 13.378906 9.164062 13.113281 9.367188 12.652344 Z M 9.367188 12.652344 "/>
<path style=" stroke:none;fill-rule:nonzero;fill:rgb(82.352942%,90.588236%,98.823529%);fill-opacity:1;" d="M 28.957031 22.507812 C 28.957031 22.875 28.957031 22.875 28.789062 23.078125 C 28.59375 23.238281 28.59375 23.238281 28.351562 23.238281 C 28.320312 23.308594 28.289062 23.378906 28.257812 23.453125 C 28.082031 23.773438 27.90625 23.984375 27.621094 24.214844 C 27.359375 24.164062 27.359375 24.164062 27.132812 24.089844 C 27.667969 23.53125 28.175781 23.035156 28.835938 22.632812 C 28.875 22.589844 28.917969 22.550781 28.957031 22.507812 Z M 28.957031 22.507812 "/>
<path style=" stroke:none;fill-rule:nonzero;fill:rgb(63.137257%,80.000001%,97.647059%);fill-opacity:1;" d="M 6.207031 24.214844 C 6.207031 24.332031 6.207031 24.453125 6.207031 24.578125 C 6.085938 24.671875 6.085938 24.671875 5.960938 24.769531 C 5.628906 25.171875 5.664062 25.460938 5.683594 25.972656 C 5.730469 26.382812 5.824219 26.742188 5.960938 27.132812 C 5.882812 27.132812 5.800781 27.132812 5.71875 27.132812 C 5.316406 26.449219 5.265625 25.941406 5.4375 25.171875 C 5.625 24.757812 5.867188 24.515625 6.207031 24.214844 Z M 6.207031 24.214844 "/>
<path style=" stroke:none;fill-rule:nonzero;fill:rgb(82.352942%,90.196079%,98.823529%);fill-opacity:1;" d="M 24.335938 22.265625 C 24.414062 22.265625 24.496094 22.265625 24.578125 22.265625 C 24.582031 22.34375 24.585938 22.425781 24.585938 22.507812 C 24.632812 23.207031 24.714844 23.660156 25.1875 24.214844 C 25.441406 24.4375 25.441406 24.4375 25.671875 24.578125 C 25.335938 24.53125 25.113281 24.496094 24.84375 24.28125 C 24.699219 24.089844 24.699219 24.089844 24.699219 23.847656 C 24.621094 23.847656 24.539062 23.847656 24.457031 23.847656 C 24.335938 23.480469 24.320312 23.234375 24.328125 22.851562 C 24.328125 22.742188 24.328125 22.632812 24.332031 22.519531 C 24.332031 22.4375 24.332031 22.351562 24.335938 22.265625 Z M 24.335938 22.265625 "/>
<path style=" stroke:none;fill-rule:nonzero;fill:rgb(77.254903%,83.529413%,96.862745%);fill-opacity:1;" d="M 28.835938 10.464844 C 28.875 10.542969 28.917969 10.625 28.957031 10.707031 C 28.867188 10.71875 28.777344 10.726562 28.683594 10.738281 C 27.929688 10.824219 27.929688 10.824219 27.332031 11.246094 C 27.265625 11.351562 27.199219 11.453125 27.132812 11.558594 C 26.796875 11.78125 26.796875 11.78125 26.523438 11.925781 C 26.714844 11.457031 27.011719 11.167969 27.375 10.828125 C 27.449219 10.757812 27.523438 10.683594 27.597656 10.609375 C 28.007812 10.382812 28.371094 10.441406 28.835938 10.464844 Z M 28.835938 10.464844 "/>
<path style=" stroke:none;fill-rule:nonzero;fill:rgb(60.000002%,71.372551%,94.901961%);fill-opacity:1;" d="M 21.050781 2.3125 C 21.4375 2.554688 21.4375 2.554688 21.65625 2.796875 C 21.617188 2.878906 21.578125 2.960938 21.535156 3.042969 C 21.457031 2.960938 21.375 2.882812 21.292969 2.796875 C 20.902344 2.664062 20.53125 2.660156 20.121094 2.660156 C 20.003906 2.660156 19.886719 2.660156 19.765625 2.660156 C 19.46875 2.65625 19.46875 2.65625 19.222656 2.796875 C 19.265625 2.679688 19.304688 2.558594 19.347656 2.433594 C 19.90625 2.246094 20.464844 2.246094 21.050781 2.3125 Z M 21.050781 2.3125 "/>
<path style=" stroke:none;fill-rule:nonzero;fill:rgb(66.274512%,76.078433%,95.686275%);fill-opacity:1;" d="M 21.65625 3.042969 C 21.777344 3.082031 21.898438 3.121094 22.023438 3.164062 C 22.03125 3.441406 22.035156 3.714844 22.039062 3.992188 C 22.039062 4.144531 22.042969 4.300781 22.046875 4.457031 C 22.023438 4.867188 22.023438 4.867188 21.78125 5.230469 C 21.539062 5.359375 21.296875 5.484375 21.050781 5.597656 C 21.148438 5.359375 21.148438 5.359375 21.292969 5.109375 C 21.414062 5.070312 21.535156 5.03125 21.65625 4.988281 C 21.789062 4.644531 21.796875 4.3125 21.792969 3.945312 C 21.796875 3.808594 21.796875 3.808594 21.796875 3.664062 C 21.789062 3.382812 21.789062 3.382812 21.65625 3.042969 Z M 21.65625 3.042969 "/>
<path style=" stroke:none;fill-rule:nonzero;fill:rgb(79.607844%,89.411765%,98.823529%);fill-opacity:1;" d="M 19.222656 27.5 C 19.34375 27.539062 19.464844 27.578125 19.589844 27.621094 C 19.472656 27.714844 19.351562 27.808594 19.230469 27.910156 C 18.792969 28.335938 18.765625 28.730469 18.738281 29.324219 C 18.738281 29.40625 18.738281 29.484375 18.738281 29.566406 C 18.496094 29.324219 18.496094 29.324219 18.484375 29.082031 C 18.550781 28.515625 18.617188 28.082031 18.980469 27.621094 C 19.0625 27.578125 19.140625 27.539062 19.222656 27.5 Z M 19.222656 27.5 "/>
<path style=" stroke:none;fill-rule:nonzero;fill:rgb(84.313726%,91.764706%,99.215686%);fill-opacity:1;" d="M 19.589844 27.253906 C 20.621094 27.144531 20.621094 27.144531 21.078125 27.417969 C 21.28125 27.597656 21.472656 27.78125 21.65625 27.984375 C 21.617188 28.066406 21.578125 28.144531 21.535156 28.226562 C 21.394531 28.113281 21.394531 28.113281 21.246094 27.992188 C 20.847656 27.675781 20.621094 27.601562 20.121094 27.550781 C 20.023438 27.542969 19.921875 27.53125 19.820312 27.519531 C 19.742188 27.511719 19.667969 27.503906 19.589844 27.5 C 19.589844 27.417969 19.589844 27.335938 19.589844 27.253906 Z M 19.589844 27.253906 "/>
<path style=" stroke:none;fill-rule:nonzero;fill:rgb(65.098041%,75.294119%,95.686275%);fill-opacity:1;" d="M 26.039062 16.914062 C 26.117188 16.953125 26.199219 16.992188 26.28125 17.035156 C 26.199219 17.195312 26.121094 17.355469 26.039062 17.519531 C 25.917969 17.519531 25.796875 17.519531 25.671875 17.519531 C 25.632812 17.679688 25.59375 17.84375 25.550781 18.007812 C 25.472656 18.007812 25.390625 18.007812 25.308594 18.007812 C 25.269531 18.128906 25.226562 18.25 25.1875 18.371094 C 24.933594 18.457031 24.933594 18.457031 24.699219 18.496094 C 24.699219 18.414062 24.699219 18.332031 24.699219 18.25 C 24.78125 18.25 24.859375 18.25 24.941406 18.25 C 24.976562 18.179688 25.007812 18.105469 25.042969 18.03125 C 25.1875 17.765625 25.320312 17.59375 25.550781 17.398438 C 25.632812 17.398438 25.710938 17.398438 25.792969 17.398438 C 25.875 17.238281 25.957031 17.078125 26.039062 16.914062 Z M 26.039062 16.914062 "/>
<path style=" stroke:none;fill-rule:nonzero;fill:rgb(45.09804%,60.784316%,93.333334%);fill-opacity:1;" d="M 14.601562 15.816406 C 14.757812 16.128906 14.707031 16.296875 14.660156 16.640625 C 14.605469 17.121094 14.609375 17.527344 14.722656 18.007812 C 14.355469 17.765625 14.355469 17.765625 14.273438 17.566406 C 14.21875 17.144531 14.230469 16.730469 14.234375 16.304688 C 14.316406 16.304688 14.394531 16.304688 14.480469 16.304688 C 14.519531 16.144531 14.558594 15.984375 14.601562 15.816406 Z M 14.601562 15.816406 "/>
<path style=" stroke:none;fill-rule:nonzero;fill:rgb(56.470591%,76.078433%,97.254902%);fill-opacity:1;" d="M 9.1875 6.449219 C 9.246094 6.488281 9.308594 6.527344 9.367188 6.570312 C 9.367188 6.609375 9.367188 6.652344 9.367188 6.691406 C 9.25 6.6875 9.132812 6.6875 9.011719 6.683594 C 8.859375 6.679688 8.707031 6.679688 8.546875 6.675781 C 8.320312 6.671875 8.320312 6.671875 8.085938 6.667969 C 7.699219 6.691406 7.5 6.730469 7.179688 6.933594 C 7.652344 6.234375 8.417969 6.140625 9.1875 6.449219 Z M 9.1875 6.449219 "/>
<path style=" stroke:none;fill-rule:nonzero;fill:rgb(56.470591%,68.627453%,94.509804%);fill-opacity:1;" d="M 25.253906 5.550781 C 25.371094 5.550781 25.484375 5.550781 25.605469 5.546875 C 25.957031 5.601562 26.066406 5.6875 26.28125 5.960938 C 26.199219 5.941406 26.117188 5.921875 26.03125 5.902344 C 25.402344 5.792969 24.984375 5.746094 24.417969 6.074219 C 24.308594 6.160156 24.203125 6.242188 24.089844 6.328125 C 23.972656 6.386719 23.972656 6.386719 23.847656 6.449219 C 24.132812 5.761719 24.523438 5.546875 25.253906 5.550781 Z M 25.253906 5.550781 "/>
<path style=" stroke:none;fill-rule:nonzero;fill:rgb(58.823532%,70.588237%,94.901961%);fill-opacity:1;" d="M 19.710938 10.34375 C 19.792969 10.382812 19.871094 10.421875 19.953125 10.464844 C 19.914062 10.585938 19.875 10.703125 19.832031 10.828125 C 19.753906 10.828125 19.671875 10.828125 19.589844 10.828125 C 19.589844 10.910156 19.589844 10.988281 19.589844 11.070312 C 19.390625 11.273438 19.390625 11.273438 19.125 11.5 C 19.039062 11.570312 18.953125 11.644531 18.863281 11.722656 C 18.617188 11.925781 18.617188 11.925781 18.25 12.167969 C 18.433594 11.75 18.679688 11.441406 18.980469 11.101562 C 19.109375 10.957031 19.109375 10.957031 19.238281 10.808594 C 19.46875 10.585938 19.46875 10.585938 19.710938 10.585938 C 19.710938 10.503906 19.710938 10.425781 19.710938 10.34375 Z M 19.710938 10.34375 "/>
<path style=" stroke:none;fill-rule:nonzero;fill:rgb(51.372552%,65.490198%,94.117647%);fill-opacity:1;" d="M 22.753906 7.300781 C 22.832031 7.339844 22.914062 7.378906 22.996094 7.421875 C 22.828125 7.726562 22.828125 7.726562 22.632812 8.03125 C 22.550781 8.03125 22.46875 8.03125 22.386719 8.03125 C 22.347656 8.152344 22.308594 8.269531 22.265625 8.394531 C 21.953125 8.539062 21.953125 8.539062 21.65625 8.640625 C 21.738281 8.476562 21.820312 8.316406 21.902344 8.152344 C 21.980469 8.152344 22.0625 8.152344 22.144531 8.152344 C 22.183594 8.03125 22.226562 7.910156 22.265625 7.785156 C 22.347656 7.785156 22.425781 7.785156 22.507812 7.785156 C 22.589844 7.625 22.671875 7.464844 22.753906 7.300781 Z M 22.753906 7.300781 "/>
<path style=" stroke:none;fill-rule:nonzero;fill:rgb(81.960785%,90.588236%,98.823529%);fill-opacity:1;" d="M 13.75 2.921875 C 13.828125 2.960938 13.910156 3 13.992188 3.042969 C 14.074219 4.480469 14.074219 4.480469 13.78125 4.949219 C 13.511719 5.226562 13.394531 5.328125 13.019531 5.355469 C 13.09375 5.285156 13.167969 5.21875 13.246094 5.148438 C 13.699219 4.65625 13.78125 4.207031 13.765625 3.550781 C 13.761719 3.433594 13.761719 3.3125 13.757812 3.191406 C 13.753906 3.101562 13.753906 3.011719 13.75 2.921875 Z M 13.75 2.921875 "/>
<path style=" stroke:none;fill-rule:nonzero;fill:rgb(85.09804%,91.764706%,98.823529%);fill-opacity:1;" d="M 10.828125 19.46875 C 11.105469 19.417969 11.105469 19.417969 11.429688 19.421875 C 11.589844 19.421875 11.589844 19.421875 11.753906 19.417969 C 12.046875 19.46875 12.046875 19.46875 12.410156 19.832031 C 11.808594 19.832031 11.207031 19.832031 10.585938 19.832031 C 10.664062 19.710938 10.746094 19.589844 10.828125 19.46875 Z M 10.828125 19.46875 "/>
<path style=" stroke:none;fill-rule:nonzero;fill:rgb(85.09804%,89.411765%,98.039216%);fill-opacity:1;" d="M 18.371094 16.667969 C 18.414062 16.789062 18.453125 16.910156 18.496094 17.035156 C 18.363281 17.175781 18.230469 17.3125 18.097656 17.453125 C 18.027344 17.53125 17.953125 17.609375 17.875 17.6875 C 17.628906 17.894531 17.46875 17.957031 17.15625 18.007812 C 17.234375 17.847656 17.316406 17.6875 17.398438 17.519531 C 17.519531 17.519531 17.640625 17.519531 17.765625 17.519531 C 17.796875 17.449219 17.828125 17.375 17.863281 17.300781 C 18.003906 17.039062 18.152344 16.867188 18.371094 16.667969 Z M 18.371094 16.667969 "/>
<path style=" stroke:none;fill-rule:nonzero;fill:rgb(55.686277%,68.235296%,94.509804%);fill-opacity:1;" d="M 27.621094 15.210938 C 27.699219 15.25 27.78125 15.289062 27.863281 15.332031 C 27.695312 15.636719 27.695312 15.636719 27.5 15.9375 C 27.417969 15.9375 27.335938 15.9375 27.253906 15.9375 C 27.253906 16.019531 27.253906 16.101562 27.253906 16.183594 C 27.015625 16.390625 26.773438 16.59375 26.523438 16.789062 C 26.445312 16.75 26.363281 16.710938 26.28125 16.667969 C 26.480469 16.460938 26.683594 16.257812 26.890625 16.0625 C 26.96875 16.0625 27.050781 16.0625 27.132812 16.0625 C 27.167969 15.964844 27.203125 15.871094 27.238281 15.773438 C 27.375 15.453125 27.375 15.453125 27.621094 15.210938 Z M 27.621094 15.210938 "/>
<path style=" stroke:none;fill-rule:nonzero;fill:rgb(59.215689%,77.64706%,97.647059%);fill-opacity:1;" d="M 12.898438 20.5625 C 13.136719 20.925781 13.175781 21.007812 13.179688 21.414062 C 13.179688 21.496094 13.183594 21.578125 13.183594 21.664062 C 13.140625 21.902344 13.140625 21.902344 12.777344 22.265625 C 12.816406 21.703125 12.855469 21.140625 12.898438 20.5625 Z M 12.898438 20.5625 "/>
<path style=" stroke:none;fill-rule:nonzero;fill:rgb(56.862748%,69.01961%,94.509804%);fill-opacity:1;" d="M 21.414062 16.914062 C 21.496094 16.953125 21.574219 16.992188 21.65625 17.035156 C 21.144531 17.941406 21.144531 17.941406 20.660156 18.089844 C 20.589844 18.105469 20.515625 18.117188 20.441406 18.128906 C 20.59375 17.675781 20.828125 17.480469 21.171875 17.15625 C 21.25 17.074219 21.332031 16.996094 21.414062 16.914062 Z M 21.414062 16.914062 "/>
<path style=" stroke:none;fill-rule:nonzero;fill:rgb(53.333336%,66.666669%,94.117647%);fill-opacity:1;" d="M 13.992188 7.910156 C 14.074219 7.949219 14.152344 7.988281 14.234375 8.03125 C 14.15625 8.191406 14.074219 8.351562 13.992188 8.515625 C 13.871094 8.515625 13.75 8.515625 13.628906 8.515625 C 13.59375 8.589844 13.558594 8.664062 13.519531 8.738281 C 13.382812 9.003906 13.382812 9.003906 13.140625 9.367188 C 13.058594 9.328125 12.980469 9.289062 12.898438 9.246094 C 13.035156 9.0625 13.171875 8.882812 13.308594 8.699219 C 13.382812 8.597656 13.460938 8.496094 13.539062 8.390625 C 13.609375 8.3125 13.675781 8.234375 13.75 8.152344 C 13.828125 8.152344 13.910156 8.152344 13.992188 8.152344 C 13.992188 8.070312 13.992188 7.992188 13.992188 7.910156 Z M 13.992188 7.910156 "/>
<path style=" stroke:none;fill-rule:nonzero;fill:rgb(37.64706%,55.29412%,92.54902%);fill-opacity:1;" d="M 25.671875 13.019531 C 25.671875 13.261719 25.671875 13.261719 25.382812 13.582031 C 25.066406 13.871094 25.066406 13.871094 24.820312 13.871094 C 24.820312 13.949219 24.820312 14.03125 24.820312 14.113281 C 24.660156 14.152344 24.5 14.195312 24.335938 14.234375 C 24.589844 13.742188 25.054688 13.019531 25.671875 13.019531 Z M 25.671875 13.019531 "/>
<path style=" stroke:none;fill-rule:nonzero;fill:rgb(89.019608%,92.156863%,98.431373%);fill-opacity:1;" d="M 17.886719 25.429688 C 17.886719 25.964844 17.628906 26.132812 17.277344 26.523438 C 17.238281 26.402344 17.195312 26.285156 17.15625 26.160156 C 17.398438 25.917969 17.636719 25.679688 17.886719 25.429688 Z M 17.886719 25.429688 "/>
<path style=" stroke:none;fill-rule:nonzero;fill:rgb(55.686277%,68.235296%,94.509804%);fill-opacity:1;" d="M 16.183594 22.265625 C 16.261719 22.304688 16.34375 22.347656 16.425781 22.386719 C 16.125 22.972656 16.125 22.972656 15.792969 23.09375 C 15.722656 23.101562 15.648438 23.109375 15.574219 23.117188 C 15.613281 22.996094 15.65625 22.878906 15.695312 22.753906 C 15.777344 22.753906 15.855469 22.753906 15.9375 22.753906 C 16.019531 22.59375 16.101562 22.429688 16.183594 22.265625 Z M 16.183594 22.265625 "/>
</g>
</svg>
