<?xml version="1.0" encoding="UTF-8"?>
<svg xmlns="http://www.w3.org/2000/svg" xmlns:xlink="http://www.w3.org/1999/xlink" width="32px" height="32px" viewBox="0 0 32 32" version="1.1">
<g id="surface1">
<path style=" stroke:none;fill-rule:nonzero;fill:rgb(98.431373%,98.431373%,98.431373%);fill-opacity:1;" d="M 25.695312 3 C 25.945312 3.210938 26.191406 3.429688 26.433594 3.652344 C 26.519531 3.730469 26.605469 3.804688 26.691406 3.886719 C 29.550781 6.503906 31.789062 10.097656 32.03125 14.066406 C 32.125 18.984375 32.125 18.984375 31.304688 21.21875 C 31.261719 21.332031 31.21875 21.445312 31.175781 21.566406 C 29.757812 25.335938 27.164062 28.308594 23.652344 30.261719 C 23.421875 30.386719 23.421875 30.386719 23.191406 30.519531 C 22.714844 30.757812 22.238281 30.949219 21.738281 31.128906 C 21.632812 31.167969 21.523438 31.210938 21.414062 31.25 C 17.429688 32.652344 12.960938 32.402344 9.140625 30.640625 C 5.101562 28.667969 2.210938 25.4375 0.695312 21.21875 C 0.625 21.019531 0.550781 20.820312 0.476562 20.617188 C -0.464844 17.53125 -0.394531 13.820312 0.695312 10.78125 C 0.761719 10.597656 0.824219 10.414062 0.894531 10.226562 C 1.769531 7.964844 3.023438 6.234375 4.695312 4.523438 C 4.8125 4.394531 4.929688 4.261719 5.046875 4.128906 C 6 3.097656 7.132812 2.429688 8.347656 1.738281 C 8.484375 1.65625 8.617188 1.574219 8.757812 1.488281 C 13.953125 -1.453125 21.015625 -0.414062 25.695312 3 Z M 25.695312 3 "/>
<path style=" stroke:none;fill-rule:nonzero;fill:rgb(97.647059%,97.647059%,97.647059%);fill-opacity:1;" d="M 16.378906 0.609375 C 16.507812 0.609375 16.636719 0.609375 16.769531 0.613281 C 18.460938 0.664062 19.882812 1.277344 21.097656 2.457031 C 22.207031 3.683594 22.5 4.765625 22.433594 6.433594 C 22.257812 7.652344 21.65625 8.628906 20.695312 9.390625 C 19.378906 10.105469 17.960938 10.550781 16.527344 10.96875 C 16.027344 11.121094 15.550781 11.300781 15.066406 11.5 C 13.757812 12.035156 12.710938 12.210938 11.304688 12.175781 C 11.246094 11.429688 11.191406 10.683594 11.128906 9.914062 C 11.648438 9.828125 11.648438 9.828125 12.175781 9.738281 C 12.175781 9.625 12.175781 9.507812 12.175781 9.390625 C 11.773438 9.390625 11.371094 9.390625 10.957031 9.390625 C 10.738281 8.957031 10.820312 8.796875 10.957031 8.347656 C 10.613281 8.234375 10.269531 8.117188 9.914062 8 C 10 7.238281 10.46875 6.820312 10.957031 6.261719 C 11.160156 5.851562 11.152344 5.574219 11.175781 5.121094 C 11.320312 3.519531 12.1875 2.480469 13.371094 1.457031 C 14.359375 0.816406 15.21875 0.597656 16.378906 0.609375 Z M 16.378906 0.609375 "/>
<path style=" stroke:none;fill-rule:nonzero;fill:rgb(11.764706%,11.764706%,11.764706%);fill-opacity:1;" d="M 19.6875 2.214844 C 20.394531 2.714844 20.886719 3.304688 21.042969 4.175781 C 21.132812 5.222656 21.125 6.058594 20.523438 6.957031 C 19.871094 7.710938 19.316406 8.113281 18.316406 8.226562 C 16.605469 8.234375 16.605469 8.234375 15.824219 7.652344 C 14.953125 6.664062 14.550781 5.898438 14.570312 4.570312 C 14.667969 3.542969 15.269531 2.933594 16 2.261719 C 16.113281 2.144531 16.230469 2.03125 16.347656 1.914062 C 17.503906 1.535156 18.628906 1.617188 19.6875 2.214844 Z M 19.6875 2.214844 "/>
<path style=" stroke:none;fill-rule:nonzero;fill:rgb(10.196079%,10.196079%,10.196079%);fill-opacity:1;" d="M 16.53125 0.273438 C 16.753906 0.269531 16.753906 0.269531 16.980469 0.269531 C 18.375 0.28125 19.441406 0.65625 20.585938 1.457031 C 20.730469 1.554688 20.875 1.652344 21.027344 1.753906 C 21.4375 2.128906 21.574219 2.429688 21.738281 2.957031 C 21.855469 2.957031 21.96875 2.957031 22.085938 2.957031 C 22.96875 4.253906 23.046875 5.785156 22.78125 7.304688 C 22.246094 8.726562 21.3125 9.550781 20 10.261719 C 19.183594 10.601562 18.351562 10.878906 17.511719 11.152344 C 17.292969 11.222656 17.078125 11.296875 16.855469 11.371094 C 16.429688 11.515625 16 11.65625 15.574219 11.796875 C 15.167969 11.929688 14.765625 12.066406 14.363281 12.203125 C 14.089844 12.300781 14.089844 12.300781 13.808594 12.394531 C 13.648438 12.453125 13.488281 12.507812 13.320312 12.566406 C 12.601562 12.773438 12.046875 12.789062 11.304688 12.695312 C 10.933594 12.445312 10.933594 12.445312 10.78125 12 C 10.796875 11.46875 10.863281 10.957031 10.957031 10.433594 C 10.839844 10.433594 10.726562 10.433594 10.609375 10.433594 C 10.550781 9.804688 10.492188 9.171875 10.433594 8.523438 C 10.148438 8.464844 9.859375 8.40625 9.566406 8.347656 C 9.390625 8.175781 9.390625 8.175781 9.324219 7.773438 C 9.390625 7.304688 9.390625 7.304688 9.792969 6.945312 C 9.949219 6.835938 10.101562 6.722656 10.261719 6.609375 C 10.746094 6.078125 10.835938 5.734375 10.847656 5.023438 C 10.945312 3.625 11.453125 2.546875 12.476562 1.585938 C 13.675781 0.550781 14.984375 0.234375 16.53125 0.273438 Z M 12.347656 2.433594 C 11.535156 3.625 11.535156 3.625 11.25 5 C 11.160156 5.972656 10.835938 6.570312 10.128906 7.25 C 9.851562 7.488281 9.851562 7.488281 9.914062 8 C 10.257812 8.113281 10.601562 8.230469 10.957031 8.347656 C 10.925781 8.488281 10.890625 8.628906 10.859375 8.773438 C 10.820312 8.992188 10.820312 8.992188 10.78125 9.21875 C 10.988281 9.464844 10.988281 9.464844 11.574219 9.402344 C 11.871094 9.398438 11.871094 9.398438 12.175781 9.390625 C 12.175781 9.507812 12.175781 9.621094 12.175781 9.738281 C 11.65625 9.824219 11.65625 9.824219 11.128906 9.914062 C 11.1875 10.660156 11.246094 11.40625 11.304688 12.175781 C 12.632812 12.238281 13.636719 12.050781 14.878906 11.597656 C 15.035156 11.542969 15.1875 11.492188 15.34375 11.433594 C 15.648438 11.328125 15.953125 11.21875 16.257812 11.113281 C 16.675781 10.964844 17.09375 10.824219 17.515625 10.683594 C 20.371094 9.738281 20.371094 9.738281 22.253906 7.496094 C 22.644531 6.304688 22.558594 4.800781 22.027344 3.679688 C 21.390625 2.714844 20.648438 1.976562 19.652344 1.390625 C 19.53125 1.320312 19.40625 1.246094 19.28125 1.175781 C 16.984375 0.0507812 13.996094 0.410156 12.347656 2.433594 Z M 12.347656 2.433594 "/>
<path style=" stroke:none;fill-rule:nonzero;fill:rgb(89.019608%,89.019608%,89.019608%);fill-opacity:1;" d="M 19.652344 10.609375 C 19.738281 11.382812 19.738281 11.382812 19.824219 12.175781 C 19.933594 12.214844 20.039062 12.253906 20.152344 12.296875 C 21.199219 12.699219 22.164062 13.171875 23.128906 13.738281 C 23.128906 13.796875 23.128906 13.855469 23.128906 13.914062 C 20.03125 13.914062 16.933594 13.914062 13.738281 13.914062 C 13.738281 13.453125 13.738281 12.996094 13.738281 12.523438 C 13.9375 12.457031 14.132812 12.390625 14.339844 12.324219 C 15.847656 11.824219 17.355469 11.3125 18.847656 10.761719 C 19.304688 10.609375 19.304688 10.609375 19.652344 10.609375 Z M 19.652344 10.609375 "/>
<path style=" stroke:none;fill-rule:nonzero;fill:rgb(7.450981%,7.450981%,7.450981%);fill-opacity:1;" d="M 10.261719 17.566406 C 10.492188 17.566406 10.71875 17.566406 10.957031 17.566406 C 11.015625 17.679688 11.070312 17.792969 11.128906 17.914062 C 11.246094 17.796875 11.359375 17.683594 11.476562 17.566406 C 11.835938 17.511719 11.835938 17.511719 12.25 17.511719 C 12.453125 17.507812 12.453125 17.507812 12.664062 17.503906 C 13.042969 17.566406 13.042969 17.566406 13.347656 17.777344 C 13.78125 18.394531 13.679688 19.113281 13.566406 19.824219 C 13.273438 20.539062 12.878906 21.054688 12.304688 21.566406 C 11.605469 21.820312 11.003906 21.773438 10.261719 21.738281 C 10.203125 22.253906 10.144531 22.773438 10.085938 23.304688 C 9.855469 23.304688 9.628906 23.304688 9.390625 23.304688 C 9.320312 22.085938 9.585938 20.941406 9.824219 19.75 C 9.867188 19.539062 9.910156 19.328125 9.953125 19.113281 C 10.054688 18.597656 10.15625 18.082031 10.261719 17.566406 Z M 10.261719 17.566406 "/>
<path style=" stroke:none;fill-rule:nonzero;fill:rgb(5.098039%,5.098039%,5.098039%);fill-opacity:1;" d="M 22.433594 15.824219 C 22.664062 15.824219 22.894531 15.824219 23.128906 15.824219 C 23.042969 16.703125 22.890625 17.542969 22.695312 18.402344 C 22.460938 19.457031 22.324219 20.488281 22.261719 21.566406 C 22.03125 21.566406 21.800781 21.566406 21.566406 21.566406 C 21.480469 21.308594 21.480469 21.308594 21.390625 21.042969 C 21.300781 21.160156 21.210938 21.273438 21.121094 21.390625 C 20.695312 21.738281 20.695312 21.738281 20.074219 21.824219 C 19.476562 21.738281 19.476562 21.738281 19.183594 21.441406 C 18.730469 20.648438 18.863281 19.679688 19.074219 18.816406 C 19.40625 18.265625 19.644531 17.945312 20.175781 17.566406 C 20.816406 17.492188 21.441406 17.515625 22.085938 17.566406 C 22.113281 17.34375 22.136719 17.121094 22.164062 16.890625 C 22.210938 16.476562 22.246094 16.199219 22.433594 15.824219 Z M 22.433594 15.824219 "/>
<path style=" stroke:none;fill-rule:nonzero;fill:rgb(5.882353%,5.882353%,5.882353%);fill-opacity:1;" d="M 7.773438 17.53125 C 7.894531 17.535156 8.015625 17.539062 8.140625 17.539062 C 8.441406 17.546875 8.742188 17.554688 9.042969 17.566406 C 9.019531 17.695312 8.996094 17.820312 8.972656 17.953125 C 8.765625 19.15625 8.613281 20.347656 8.523438 21.566406 C 8.292969 21.566406 8.0625 21.566406 7.824219 21.566406 C 7.769531 21.394531 7.710938 21.222656 7.652344 21.042969 C 7.53125 21.160156 7.410156 21.273438 7.28125 21.390625 C 6.699219 21.796875 6.433594 21.84375 5.738281 21.738281 C 5.453125 21.535156 5.453125 21.535156 5.21875 21.21875 C 5.0625 20.25 5.085938 19.386719 5.53125 18.511719 C 5.65625 18.371094 5.785156 18.230469 5.914062 18.085938 C 6.011719 17.945312 6.011719 17.945312 6.113281 17.800781 C 6.621094 17.429688 7.167969 17.511719 7.773438 17.53125 Z M 7.773438 17.53125 "/>
<path style=" stroke:none;fill-rule:nonzero;fill:rgb(7.058824%,7.058824%,7.058824%);fill-opacity:1;" d="M 29.042969 16.347656 C 30.019531 16.347656 30.996094 16.347656 32 16.347656 C 32.097656 18.265625 31.734375 19.929688 31.128906 21.738281 C 30.097656 21.738281 29.0625 21.738281 28 21.738281 C 28 21.507812 28 21.28125 28 21.042969 C 28.460938 21.042969 28.917969 21.042969 29.390625 21.042969 C 29.414062 20.882812 29.414062 20.882812 29.4375 20.714844 C 29.503906 20.226562 29.574219 19.738281 29.640625 19.25 C 29.675781 18.996094 29.675781 18.996094 29.710938 18.734375 C 29.734375 18.574219 29.757812 18.410156 29.78125 18.242188 C 29.804688 18.089844 29.824219 17.941406 29.84375 17.785156 C 29.914062 17.390625 29.914062 17.390625 30.085938 16.871094 C 29.742188 16.871094 29.398438 16.871094 29.042969 16.871094 C 29.042969 16.699219 29.042969 16.523438 29.042969 16.347656 Z M 29.042969 16.347656 "/>
<path style=" stroke:none;fill-rule:nonzero;fill:rgb(10.588235%,10.588235%,10.588235%);fill-opacity:1;" d="M 19.6875 2.214844 C 20.394531 2.714844 20.886719 3.304688 21.042969 4.175781 C 21.132812 5.222656 21.125 6.058594 20.523438 6.957031 C 19.871094 7.710938 19.316406 8.113281 18.316406 8.226562 C 16.605469 8.234375 16.605469 8.234375 15.824219 7.652344 C 14.953125 6.664062 14.558594 5.898438 14.566406 4.574219 C 14.625 4.015625 14.839844 3.601562 15.128906 3.128906 C 15.246094 3.128906 15.359375 3.128906 15.476562 3.128906 C 15.417969 3.296875 15.355469 3.460938 15.292969 3.628906 C 14.992188 4.671875 15.203125 5.753906 15.476562 6.78125 C 15.652344 6.667969 15.824219 6.554688 16 6.433594 C 16.171875 6.492188 16.34375 6.550781 16.523438 6.609375 C 16.347656 6.839844 16.175781 7.066406 16 7.304688 C 17.308594 7.730469 18.34375 7.730469 19.652344 7.304688 C 19.59375 7.132812 19.539062 6.960938 19.476562 6.78125 C 19.707031 6.78125 19.9375 6.78125 20.175781 6.78125 C 20.601562 5.496094 20.691406 4.429688 20.175781 3.128906 C 20 3.246094 19.828125 3.359375 19.652344 3.476562 C 19.710938 3.652344 19.765625 3.824219 19.824219 4 C 19.898438 4.875 19.890625 5.636719 19.476562 6.433594 C 19.421875 6.433594 19.363281 6.433594 19.304688 6.433594 C 19.304688 5.632812 19.304688 4.828125 19.304688 4 C 19.132812 4.085938 19.132812 4.085938 18.957031 4.175781 C 18.875 4.582031 18.875 4.582031 18.847656 5.054688 C 18.835938 5.214844 18.820312 5.375 18.808594 5.539062 C 18.800781 5.664062 18.792969 5.785156 18.78125 5.914062 C 18.660156 5.921875 18.539062 5.933594 18.414062 5.945312 C 18.257812 5.960938 18.097656 5.972656 17.933594 5.988281 C 17.777344 6.003906 17.621094 6.015625 17.457031 6.03125 C 17.042969 6.0625 17.042969 6.0625 16.695312 6.261719 C 16.753906 5.6875 16.808594 5.113281 16.871094 4.523438 C 17.21875 5.042969 17.21875 5.042969 17.390625 5.390625 C 17.679688 5.390625 17.964844 5.390625 18.261719 5.390625 C 18.289062 4.972656 18.289062 4.972656 18.261719 4.523438 C 18.144531 4.40625 18.03125 4.292969 17.914062 4.175781 C 18.078125 4.097656 18.078125 4.097656 18.25 4.023438 C 18.636719 3.855469 18.636719 3.855469 18.78125 3.476562 C 18.265625 3.363281 17.75 3.25 17.21875 3.128906 C 17.21875 3.015625 17.21875 2.902344 17.21875 2.78125 C 17.996094 2.765625 18.714844 2.808594 19.476562 2.957031 C 19.0625 2.457031 18.761719 2.347656 18.121094 2.28125 C 17.320312 2.222656 16.863281 2.355469 16.175781 2.78125 C 15.761719 2.902344 15.761719 2.902344 15.476562 2.957031 C 15.476562 2.839844 15.476562 2.726562 15.476562 2.609375 C 16.695312 1.492188 18.257812 1.40625 19.6875 2.214844 Z M 19.6875 2.214844 "/>
<path style=" stroke:none;fill-rule:nonzero;fill:rgb(5.490196%,5.490196%,5.490196%);fill-opacity:1;" d="M 26.109375 16.324219 C 26.273438 16.332031 26.4375 16.339844 26.609375 16.347656 C 26.90625 16.945312 26.898438 17.613281 26.96875 18.273438 C 26.984375 18.414062 27 18.558594 27.015625 18.703125 C 27.117188 19.664062 27.144531 20.601562 27.128906 21.566406 C 26.902344 21.566406 26.671875 21.566406 26.433594 21.566406 C 26.433594 21.222656 26.433594 20.875 26.433594 20.523438 C 25.667969 20.523438 24.925781 20.546875 24.175781 20.695312 C 23.71875 21.195312 23.71875 21.195312 23.476562 21.738281 C 23.25 21.738281 23.019531 21.738281 22.78125 21.738281 C 22.90625 21.113281 23.164062 20.601562 23.457031 20.035156 C 23.554688 19.84375 23.65625 19.652344 23.757812 19.453125 C 23.863281 19.253906 23.96875 19.054688 24.074219 18.847656 C 24.179688 18.648438 24.285156 18.445312 24.390625 18.238281 C 25.375 16.355469 25.375 16.355469 26.109375 16.324219 Z M 26.109375 16.324219 "/>
<path style=" stroke:none;fill-rule:nonzero;fill:rgb(5.098039%,5.098039%,5.098039%);fill-opacity:1;" d="M 1.566406 16.347656 C 3.472656 16.238281 3.472656 16.238281 4.21875 16.695312 C 4.316406 16.808594 4.417969 16.925781 4.523438 17.042969 C 4.472656 17.742188 4.386719 18.042969 3.925781 18.585938 C 3.476562 18.957031 3.476562 18.957031 3.128906 18.957031 C 3.210938 19.0625 3.289062 19.171875 3.371094 19.28125 C 3.75 20.015625 3.867188 20.753906 4 21.566406 C 3.714844 21.566406 3.425781 21.566406 3.128906 21.566406 C 3.105469 21.429688 3.078125 21.296875 3.054688 21.160156 C 2.9375 20.632812 2.8125 20.148438 2.609375 19.652344 C 2.085938 19.332031 2.085938 19.332031 1.566406 19.304688 C 1.574219 19.453125 1.578125 19.597656 1.585938 19.75 C 1.5625 20.421875 1.421875 20.929688 1.21875 21.566406 C 1.101562 21.566406 0.988281 21.566406 0.871094 21.566406 C 0.1875 20.203125 0.972656 18.144531 1.410156 16.800781 C 1.484375 16.578125 1.484375 16.578125 1.566406 16.347656 Z M 1.566406 16.347656 "/>
<path style=" stroke:none;fill-rule:nonzero;fill:rgb(6.666667%,6.666667%,6.666667%);fill-opacity:1;" d="M 19.652344 10.609375 C 19.738281 11.382812 19.738281 11.382812 19.824219 12.175781 C 19.933594 12.214844 20.039062 12.253906 20.152344 12.296875 C 21.199219 12.699219 22.164062 13.171875 23.128906 13.738281 C 23.128906 13.796875 23.128906 13.855469 23.128906 13.914062 C 20.03125 13.914062 16.933594 13.914062 13.738281 13.914062 C 13.738281 13.453125 13.738281 12.996094 13.738281 12.523438 C 13.9375 12.457031 14.132812 12.390625 14.339844 12.324219 C 15.847656 11.824219 17.355469 11.3125 18.847656 10.761719 C 19.304688 10.609375 19.304688 10.609375 19.652344 10.609375 Z M 18.347656 11.425781 C 17.007812 11.917969 15.632812 12.304688 14.261719 12.695312 C 14.203125 12.984375 14.144531 13.269531 14.085938 13.566406 C 15.292969 13.308594 15.292969 13.308594 16.523438 13.042969 C 16.523438 13.160156 16.523438 13.273438 16.523438 13.390625 C 16.175781 13.449219 15.832031 13.507812 15.476562 13.566406 C 15.476562 13.621094 15.476562 13.679688 15.476562 13.738281 C 17.085938 13.738281 18.691406 13.738281 20.347656 13.738281 C 20.347656 13.453125 20.347656 13.164062 20.347656 12.871094 C 19.578125 12.554688 19.578125 12.554688 18.78125 12.695312 C 18.867188 12.632812 18.953125 12.566406 19.042969 12.5 C 19.410156 12.042969 19.34375 11.699219 19.304688 11.128906 C 18.972656 11.128906 18.652344 11.308594 18.347656 11.425781 Z M 18.347656 11.425781 "/>
<path style=" stroke:none;fill-rule:nonzero;fill:rgb(96.862745%,96.862745%,96.862745%);fill-opacity:1;" d="M 30.78125 16.871094 C 31.183594 16.871094 31.585938 16.871094 32 16.871094 C 32.070312 18.257812 31.9375 19.78125 31.304688 21.042969 C 30.902344 21.042969 30.5 21.042969 30.085938 21.042969 C 30.214844 20.113281 30.367188 19.195312 30.53125 18.273438 C 30.558594 18.136719 30.582031 18 30.605469 17.859375 C 30.664062 17.53125 30.722656 17.199219 30.78125 16.871094 Z M 30.78125 16.871094 "/>
<path style=" stroke:none;fill-rule:nonzero;fill:rgb(94.901961%,94.901961%,94.901961%);fill-opacity:1;" d="M 21.183594 18.023438 C 21.367188 18.042969 21.550781 18.066406 21.738281 18.085938 C 21.941406 18.6875 21.914062 18.953125 21.707031 19.566406 C 21.410156 20.140625 21.160156 20.59375 20.695312 21.042969 C 20.21875 21.097656 20.21875 21.097656 19.824219 21.042969 C 19.523438 20.433594 19.554688 19.792969 19.652344 19.128906 C 19.988281 18.390625 20.359375 18.101562 21.183594 18.023438 Z M 21.183594 18.023438 "/>
<path style=" stroke:none;fill-rule:nonzero;fill:rgb(96.078432%,96.078432%,96.078432%);fill-opacity:1;" d="M 7.445312 18.023438 C 7.628906 18.042969 7.8125 18.066406 8 18.085938 C 8.28125 18.789062 8.085938 19.3125 7.824219 20 C 7.566406 20.429688 7.328125 20.6875 6.957031 21.042969 C 6.476562 21.121094 6.476562 21.121094 6.085938 21.042969 C 5.804688 20.757812 5.863281 20.445312 5.847656 20.054688 C 5.855469 19.429688 5.898438 19.007812 6.273438 18.5 C 6.78125 18.085938 6.78125 18.085938 7.445312 18.023438 Z M 7.445312 18.023438 "/>
<path style=" stroke:none;fill-rule:nonzero;fill:rgb(96.862745%,96.862745%,96.862745%);fill-opacity:1;" d="M 11.824219 18.085938 C 12.617188 18.183594 12.617188 18.183594 12.871094 18.433594 C 12.941406 19.34375 12.835938 19.921875 12.347656 20.695312 C 11.714844 21.117188 11.355469 21.070312 10.609375 21.042969 C 10.492188 19.933594 10.808594 19.316406 11.476562 18.433594 C 11.59375 18.320312 11.707031 18.207031 11.824219 18.085938 Z M 11.824219 18.085938 "/>
<path style=" stroke:none;fill-rule:nonzero;fill:rgb(7.450981%,7.450981%,7.450981%);fill-opacity:1;" d="M 14.78125 17.566406 C 15.070312 17.558594 15.355469 17.558594 15.640625 17.554688 C 15.800781 17.550781 15.960938 17.550781 16.125 17.546875 C 16.523438 17.566406 16.523438 17.566406 16.695312 17.738281 C 16.75 18.902344 16.601562 19.910156 16.347656 21.042969 C 16.863281 20.929688 17.382812 20.8125 17.914062 20.695312 C 17.855469 20.984375 17.796875 21.269531 17.738281 21.566406 C 17.136719 21.765625 16.632812 21.75 16 21.738281 C 15.644531 21.15625 15.628906 20.777344 15.707031 20.109375 C 15.726562 19.941406 15.746094 19.773438 15.761719 19.601562 C 15.832031 19.09375 15.90625 18.589844 16 18.085938 C 15.539062 18.203125 15.082031 18.316406 14.609375 18.433594 C 14.667969 18.148438 14.722656 17.859375 14.78125 17.566406 Z M 14.78125 17.566406 "/>
<path style=" stroke:none;fill-rule:nonzero;fill:rgb(9.411765%,9.411765%,9.411765%);fill-opacity:1;" d="M 17.21875 2.78125 C 18.121094 2.746094 18.804688 2.855469 19.652344 3.128906 C 19.9375 4.230469 20.007812 5.40625 19.476562 6.433594 C 19.421875 6.433594 19.363281 6.433594 19.304688 6.433594 C 19.304688 5.632812 19.304688 4.828125 19.304688 4 C 19.132812 4.085938 19.132812 4.085938 18.957031 4.175781 C 18.875 4.582031 18.875 4.582031 18.847656 5.054688 C 18.835938 5.214844 18.820312 5.375 18.808594 5.539062 C 18.800781 5.664062 18.792969 5.785156 18.78125 5.914062 C 18.660156 5.921875 18.539062 5.933594 18.414062 5.945312 C 18.257812 5.960938 18.097656 5.972656 17.933594 5.988281 C 17.777344 6.003906 17.621094 6.015625 17.457031 6.03125 C 17.042969 6.0625 17.042969 6.0625 16.695312 6.261719 C 16.753906 5.6875 16.808594 5.113281 16.871094 4.523438 C 17.21875 5.042969 17.21875 5.042969 17.390625 5.390625 C 17.679688 5.390625 17.964844 5.390625 18.261719 5.390625 C 18.289062 4.972656 18.289062 4.972656 18.261719 4.523438 C 18.144531 4.40625 18.03125 4.292969 17.914062 4.175781 C 18.023438 4.125 18.136719 4.074219 18.25 4.023438 C 18.636719 3.855469 18.636719 3.855469 18.78125 3.476562 C 18.007812 3.304688 18.007812 3.304688 17.21875 3.128906 C 17.21875 3.015625 17.21875 2.902344 17.21875 2.78125 Z M 17.21875 2.78125 "/>
<path style=" stroke:none;fill-rule:nonzero;fill:rgb(10.588235%,10.588235%,10.588235%);fill-opacity:1;" d="M 19.824219 9.914062 C 19.824219 10.027344 19.824219 10.144531 19.824219 10.261719 C 18.722656 10.652344 18.722656 10.652344 18.207031 10.832031 C 17.410156 11.113281 16.621094 11.394531 15.832031 11.683594 C 15.476562 11.8125 15.125 11.9375 14.773438 12.066406 C 14.605469 12.128906 14.4375 12.191406 14.265625 12.253906 C 13.289062 12.601562 12.511719 12.765625 11.476562 12.695312 C 11.535156 12.582031 11.59375 12.464844 11.652344 12.347656 C 12.054688 12.222656 12.449219 12.117188 12.859375 12.023438 C 13.773438 11.792969 14.628906 11.523438 15.5 11.15625 C 16.203125 10.875 16.914062 10.632812 17.628906 10.390625 C 17.765625 10.34375 17.902344 10.296875 18.042969 10.25 C 18.175781 10.207031 18.304688 10.160156 18.4375 10.117188 C 18.554688 10.078125 18.671875 10.039062 18.792969 9.996094 C 19.128906 9.914062 19.128906 9.914062 19.824219 9.914062 Z M 19.824219 9.914062 "/>
<path style=" stroke:none;fill-rule:nonzero;fill:rgb(9.803922%,9.803922%,9.803922%);fill-opacity:1;" d="M 9.390625 7.304688 C 9.648438 7.476562 9.648438 7.476562 9.914062 7.652344 C 9.914062 7.765625 9.914062 7.882812 9.914062 8 C 10.257812 8.113281 10.601562 8.230469 10.957031 8.347656 C 10.957031 8.636719 10.957031 8.921875 10.957031 9.21875 C 11.359375 9.273438 11.761719 9.332031 12.175781 9.390625 C 12.175781 9.507812 12.175781 9.621094 12.175781 9.738281 C 11.828125 9.796875 11.484375 9.855469 11.128906 9.914062 C 11.1875 10.027344 11.246094 10.144531 11.304688 10.261719 C 11.316406 10.585938 11.320312 10.914062 11.316406 11.238281 C 11.3125 11.414062 11.3125 11.589844 11.308594 11.769531 C 11.308594 11.902344 11.304688 12.035156 11.304688 12.175781 C 11.707031 12.175781 12.109375 12.175781 12.523438 12.175781 C 12.523438 12.230469 12.523438 12.289062 12.523438 12.347656 C 12.121094 12.460938 11.71875 12.578125 11.304688 12.695312 C 11.03125 12.445312 11.03125 12.445312 10.78125 12 C 10.789062 11.46875 10.863281 10.957031 10.957031 10.433594 C 10.839844 10.433594 10.726562 10.433594 10.609375 10.433594 C 10.550781 9.804688 10.492188 9.171875 10.433594 8.523438 C 10.148438 8.464844 9.859375 8.40625 9.566406 8.347656 C 9.390625 8.175781 9.390625 8.175781 9.378906 7.726562 C 9.382812 7.589844 9.386719 7.449219 9.390625 7.304688 Z M 9.390625 7.304688 "/>
<path style=" stroke:none;fill-rule:nonzero;fill:rgb(1.568628%,1.568628%,1.568628%);fill-opacity:1;" d="M 20.347656 12.695312 C 21.445312 12.765625 22.199219 13.167969 23.128906 13.738281 C 23.128906 13.796875 23.128906 13.855469 23.128906 13.914062 C 20.605469 13.914062 18.078125 13.914062 15.476562 13.914062 C 15.476562 13.855469 15.476562 13.796875 15.476562 13.738281 C 17.085938 13.738281 18.691406 13.738281 20.347656 13.738281 C 20.347656 13.394531 20.347656 13.050781 20.347656 12.695312 Z M 20.347656 12.695312 "/>
<path style=" stroke:none;fill-rule:nonzero;fill:rgb(94.117647%,94.117647%,94.117647%);fill-opacity:1;" d="M 19.824219 3.128906 C 19.941406 3.128906 20.054688 3.128906 20.175781 3.128906 C 20.660156 3.9375 20.835938 4.632812 20.695312 5.566406 C 20.554688 5.996094 20.378906 6.375 20.175781 6.78125 C 19.945312 6.667969 19.714844 6.554688 19.476562 6.433594 C 19.507812 6.324219 19.535156 6.210938 19.566406 6.097656 C 19.679688 5.394531 19.664062 4.710938 19.652344 4 C 19.652344 3.304688 19.652344 3.304688 19.824219 3.128906 Z M 19.824219 3.128906 "/>
<path style=" stroke:none;fill-rule:nonzero;fill:rgb(89.411765%,89.411765%,89.411765%);fill-opacity:1;" d="M 25.738281 17.21875 C 25.855469 17.273438 25.96875 17.332031 26.085938 17.390625 C 26.160156 17.941406 26.160156 17.941406 26.195312 18.621094 C 26.207031 18.84375 26.222656 19.070312 26.234375 19.300781 C 26.242188 19.472656 26.253906 19.648438 26.261719 19.824219 C 25.6875 19.824219 25.113281 19.824219 24.523438 19.824219 C 24.6875 19.167969 24.898438 18.71875 25.226562 18.128906 C 25.371094 17.875 25.371094 17.875 25.515625 17.613281 C 25.625 17.417969 25.625 17.417969 25.738281 17.21875 Z M 25.738281 17.21875 "/>
<path style=" stroke:none;fill-rule:nonzero;fill:rgb(96.470588%,96.470588%,96.470588%);fill-opacity:1;" d="M 19.304688 11.128906 C 19.367188 12.09375 19.367188 12.09375 19.042969 12.5 C 18.957031 12.566406 18.871094 12.628906 18.78125 12.695312 C 18.910156 12.660156 19.039062 12.625 19.175781 12.585938 C 19.707031 12.515625 19.902344 12.589844 20.347656 12.871094 C 20.347656 13.097656 20.347656 13.328125 20.347656 13.566406 C 19.371094 13.566406 18.398438 13.566406 17.390625 13.566406 C 17.390625 13.507812 17.390625 13.449219 17.390625 13.390625 C 18.253906 13.390625 19.113281 13.390625 20 13.390625 C 20 13.277344 20 13.160156 20 13.042969 C 19.484375 13.042969 18.96875 13.042969 18.433594 13.042969 C 18.378906 12.8125 18.320312 12.585938 18.261719 12.347656 C 18.003906 12.046875 18.003906 12.046875 17.738281 11.824219 C 17.796875 11.710938 17.855469 11.597656 17.914062 11.476562 C 18.996094 11.128906 18.996094 11.128906 19.304688 11.128906 Z M 19.304688 11.128906 "/>
<path style=" stroke:none;fill-rule:nonzero;fill:rgb(95.294118%,95.294118%,95.294118%);fill-opacity:1;" d="M 16.347656 6.609375 C 16.519531 6.667969 16.691406 6.722656 16.871094 6.78125 C 17.125 6.796875 17.382812 6.804688 17.640625 6.804688 C 17.773438 6.804688 17.90625 6.804688 18.042969 6.804688 C 18.433594 6.796875 18.433594 6.796875 18.800781 6.671875 C 19.128906 6.609375 19.128906 6.609375 19.652344 6.957031 C 19.652344 7.070312 19.652344 7.1875 19.652344 7.304688 C 18.714844 7.761719 17.917969 8.0625 16.871094 7.707031 C 16.574219 7.582031 16.289062 7.445312 16 7.304688 C 16.113281 7.074219 16.230469 6.84375 16.347656 6.609375 Z M 16.347656 6.609375 "/>
<path style=" stroke:none;fill-rule:nonzero;fill:rgb(93.725491%,93.725491%,93.725491%);fill-opacity:1;" d="M 2.085938 16.871094 C 2.675781 16.847656 2.675781 16.847656 3.304688 16.871094 C 3.652344 17.21875 3.652344 17.21875 3.71875 17.640625 C 3.652344 18.085938 3.652344 18.085938 3.378906 18.402344 C 2.816406 18.675781 2.359375 18.644531 1.738281 18.609375 C 1.855469 18.035156 1.96875 17.460938 2.085938 16.871094 Z M 2.085938 16.871094 "/>
<path style=" stroke:none;fill-rule:nonzero;fill:rgb(6.27451%,6.27451%,6.27451%);fill-opacity:1;" d="M 16.695312 12 C 15.890625 12.285156 15.089844 12.574219 14.261719 12.871094 C 14.261719 13.042969 14.261719 13.214844 14.261719 13.390625 C 14.367188 13.367188 14.472656 13.339844 14.578125 13.316406 C 14.71875 13.28125 14.855469 13.25 15 13.21875 C 15.207031 13.167969 15.207031 13.167969 15.414062 13.121094 C 15.824219 13.042969 15.824219 13.042969 16.523438 13.042969 C 16.523438 13.160156 16.523438 13.273438 16.523438 13.390625 C 16.175781 13.449219 15.832031 13.507812 15.476562 13.566406 C 15.476562 13.679688 15.476562 13.792969 15.476562 13.914062 C 14.90625 13.914062 14.332031 13.914062 13.738281 13.914062 C 13.738281 13.453125 13.738281 12.996094 13.738281 12.523438 C 14.101562 12.398438 14.464844 12.28125 14.824219 12.164062 C 15.027344 12.097656 15.230469 12.03125 15.4375 11.960938 C 16 11.824219 16 11.824219 16.695312 12 Z M 16.695312 12 "/>
<path style=" stroke:none;fill-rule:nonzero;fill:rgb(9.411765%,9.411765%,9.411765%);fill-opacity:1;" d="M 12 2.433594 C 12.058594 2.550781 12.113281 2.664062 12.175781 2.78125 C 12.066406 2.984375 11.957031 3.183594 11.847656 3.390625 C 11.539062 3.96875 11.429688 4.414062 11.390625 5.066406 C 11.335938 5.878906 11.132812 6.316406 10.609375 6.957031 C 10.53125 7.054688 10.449219 7.152344 10.371094 7.25 C 10.164062 7.503906 9.953125 7.753906 9.738281 8 C 9.617188 7.691406 9.617188 7.691406 9.566406 7.304688 C 9.808594 7 9.808594 7 10.152344 6.683594 C 10.835938 5.960938 10.890625 5.441406 10.914062 4.46875 C 10.980469 3.726562 11.265625 3.238281 11.652344 2.609375 C 11.765625 2.550781 11.882812 2.492188 12 2.433594 Z M 12 2.433594 "/>
<path style=" stroke:none;fill-rule:nonzero;fill:rgb(93.725491%,93.725491%,93.725491%);fill-opacity:1;" d="M 15.652344 3.128906 C 15.835938 3.445312 15.835938 3.445312 16 3.824219 C 15.941406 4 15.886719 4.171875 15.824219 4.347656 C 15.78125 5.140625 15.824219 5.714844 16.175781 6.433594 C 15.828125 6.605469 15.828125 6.605469 15.476562 6.78125 C 14.839844 5.242188 14.839844 5.242188 14.957031 4.347656 C 15.355469 3.425781 15.355469 3.425781 15.652344 3.128906 Z M 15.652344 3.128906 "/>
<path style=" stroke:none;fill-rule:nonzero;fill:rgb(94.901961%,94.901961%,94.901961%);fill-opacity:1;" d="M 18.957031 2.261719 C 19.414062 2.621094 19.414062 2.621094 19.652344 2.957031 C 18.824219 3.152344 18.824219 3.152344 18.433594 2.957031 C 17.65625 2.925781 16.9375 2.980469 16.175781 3.128906 C 16.175781 2.957031 16.175781 2.785156 16.175781 2.609375 C 17.101562 1.996094 17.90625 1.988281 18.957031 2.261719 Z M 18.957031 2.261719 "/>
<path style=" stroke:none;fill-rule:nonzero;fill:rgb(51.372552%,51.372552%,51.372552%);fill-opacity:1;" d="M 22.609375 25.042969 C 22.722656 25.042969 22.839844 25.042969 22.957031 25.042969 C 22.957031 25.675781 22.957031 26.304688 22.957031 26.957031 C 22.457031 26.976562 22.457031 26.976562 21.914062 26.957031 C 21.566406 26.609375 21.566406 26.609375 21.53125 26.269531 C 21.542969 25.917969 21.554688 25.570312 21.566406 25.21875 C 21.996094 25.304688 21.996094 25.304688 22.433594 25.390625 C 22.492188 25.277344 22.550781 25.160156 22.609375 25.042969 Z M 22.609375 25.042969 "/>
<path style=" stroke:none;fill-rule:nonzero;fill:rgb(14.117648%,14.117648%,14.117648%);fill-opacity:1;" d="M 16.152344 0.324219 C 16.332031 0.328125 16.332031 0.328125 16.515625 0.332031 C 16.808594 0.335938 17.097656 0.339844 17.390625 0.347656 C 17.390625 0.40625 17.390625 0.460938 17.390625 0.523438 C 17.234375 0.535156 17.082031 0.550781 16.917969 0.566406 C 15.511719 0.730469 14.4375 1.027344 13.21875 1.738281 C 13.089844 1.792969 12.964844 1.851562 12.832031 1.90625 C 12.460938 2.074219 12.460938 2.074219 12.347656 2.609375 C 12.175781 2.609375 12.003906 2.609375 11.824219 2.609375 C 12.078125 2 12.394531 1.683594 12.914062 1.28125 C 13.042969 1.179688 13.171875 1.078125 13.308594 0.972656 C 14.226562 0.382812 15.082031 0.300781 16.152344 0.324219 Z M 16.152344 0.324219 "/>
<path style=" stroke:none;fill-rule:nonzero;fill:rgb(24.313726%,24.313726%,24.313726%);fill-opacity:1;" d="M 17.390625 12 C 17.683594 12.050781 17.972656 12.109375 18.261719 12.175781 C 18.316406 12.460938 18.375 12.746094 18.433594 13.042969 C 18.953125 13.042969 19.46875 13.042969 20 13.042969 C 20 13.160156 20 13.273438 20 13.390625 C 19.574219 13.402344 19.144531 13.40625 18.71875 13.414062 C 18.535156 13.417969 18.535156 13.417969 18.347656 13.421875 C 18.03125 13.425781 17.710938 13.410156 17.390625 13.390625 C 17.277344 13.277344 17.160156 13.160156 17.042969 13.042969 C 17.140625 12.25 17.140625 12.25 17.390625 12 Z M 17.390625 12 "/>
<path style=" stroke:none;fill-rule:nonzero;fill:rgb(10.196079%,10.196079%,10.196079%);fill-opacity:1;" d="M 19.652344 2.261719 C 19.652344 2.375 19.652344 2.492188 19.652344 2.609375 C 19.445312 2.550781 19.234375 2.492188 19.023438 2.433594 C 17.882812 2.15625 17.214844 2.214844 16.175781 2.78125 C 15.761719 2.902344 15.761719 2.902344 15.476562 2.957031 C 15.476562 2.839844 15.476562 2.726562 15.476562 2.609375 C 16.691406 1.496094 18.246094 1.394531 19.652344 2.261719 Z M 19.652344 2.261719 "/>
<path style=" stroke:none;fill-rule:nonzero;fill:rgb(19.215687%,19.215687%,19.215687%);fill-opacity:1;" d="M 24.347656 25.566406 C 24.457031 25.96875 24.457031 25.96875 24.523438 26.433594 C 24.347656 26.691406 24.347656 26.691406 24.175781 26.957031 C 23.5 26.804688 23.5 26.804688 23.304688 26.609375 C 23.296875 26.261719 23.296875 25.914062 23.304688 25.566406 C 23.738281 25.347656 23.898438 25.429688 24.347656 25.566406 Z M 24.347656 25.566406 "/>
<path style=" stroke:none;fill-rule:nonzero;fill:rgb(8.627451%,8.627451%,8.627451%);fill-opacity:1;" d="M 15.128906 3.128906 C 15.246094 3.128906 15.359375 3.128906 15.476562 3.128906 C 15.417969 3.296875 15.355469 3.460938 15.292969 3.628906 C 14.992188 4.671875 15.203125 5.753906 15.476562 6.78125 C 14.957031 6.609375 14.957031 6.609375 14.75 6.261719 C 14.488281 5.296875 14.480469 4.476562 14.871094 3.554688 C 14.957031 3.414062 15.042969 3.273438 15.128906 3.128906 Z M 15.128906 3.128906 "/>
<path style=" stroke:none;fill-rule:nonzero;fill:rgb(92.941177%,92.941177%,92.941177%);fill-opacity:1;" d="M 17.566406 4.175781 C 17.996094 4.347656 17.996094 4.347656 18.433594 4.523438 C 18.441406 4.8125 18.441406 5.101562 18.433594 5.390625 C 18.261719 5.566406 18.261719 5.566406 17.816406 5.574219 C 17.675781 5.574219 17.535156 5.570312 17.390625 5.566406 C 17.277344 5.277344 17.160156 4.992188 17.042969 4.695312 C 17.214844 4.523438 17.386719 4.351562 17.566406 4.175781 Z M 17.566406 4.175781 "/>
<path style=" stroke:none;fill-rule:nonzero;fill:rgb(1.960784%,1.960784%,1.960784%);fill-opacity:1;" d="M 16.871094 4.523438 C 17.21875 5.042969 17.21875 5.042969 17.390625 5.390625 C 17.679688 5.390625 17.964844 5.390625 18.261719 5.390625 C 18.316406 5.105469 18.375 4.816406 18.433594 4.523438 C 18.550781 4.523438 18.664062 4.523438 18.78125 4.523438 C 18.78125 4.980469 18.78125 5.441406 18.78125 5.914062 C 18.660156 5.921875 18.539062 5.933594 18.414062 5.945312 C 18.175781 5.96875 18.175781 5.96875 17.933594 5.988281 C 17.777344 6.003906 17.621094 6.015625 17.457031 6.03125 C 17.042969 6.0625 17.042969 6.0625 16.695312 6.261719 C 16.753906 5.6875 16.808594 5.113281 16.871094 4.523438 Z M 16.871094 4.523438 "/>
<path style=" stroke:none;fill-rule:nonzero;fill:rgb(10.980392%,10.980392%,10.980392%);fill-opacity:1;" d="M 16.523438 6.609375 C 16.347656 6.839844 16.175781 7.066406 16 7.304688 C 16.746094 7.476562 17.492188 7.648438 18.261719 7.824219 C 18.261719 7.882812 18.261719 7.941406 18.261719 8 C 17.253906 8.191406 16.722656 8.234375 15.824219 7.652344 C 15.5 7.378906 15.5 7.378906 15.304688 7.128906 C 15.304688 7.015625 15.304688 6.902344 15.304688 6.78125 C 15.933594 6.414062 15.933594 6.414062 16.523438 6.609375 Z M 16.523438 6.609375 "/>
<path style=" stroke:none;fill-rule:nonzero;fill:rgb(9.019608%,9.019608%,9.019608%);fill-opacity:1;" d="M 10.609375 9.914062 C 10.722656 9.914062 10.839844 9.914062 10.957031 9.914062 C 10.957031 10.027344 10.957031 10.144531 10.957031 10.261719 C 11.070312 10.261719 11.1875 10.261719 11.304688 10.261719 C 11.304688 10.890625 11.304688 11.523438 11.304688 12.175781 C 11.707031 12.175781 12.109375 12.175781 12.523438 12.175781 C 12.523438 12.230469 12.523438 12.289062 12.523438 12.347656 C 12.121094 12.460938 11.71875 12.578125 11.304688 12.695312 C 11.03125 12.445312 11.03125 12.445312 10.78125 12 C 10.789062 11.46875 10.863281 10.957031 10.957031 10.433594 C 10.839844 10.433594 10.726562 10.433594 10.609375 10.433594 C 10.609375 10.261719 10.609375 10.089844 10.609375 9.914062 Z M 10.609375 9.914062 "/>
<path style=" stroke:none;fill-rule:nonzero;fill:rgb(78.431374%,78.431374%,78.431374%);fill-opacity:1;" d="M 18.085938 11.128906 C 17.652344 11.296875 17.21875 11.464844 16.78125 11.628906 C 16.660156 11.675781 16.539062 11.722656 16.414062 11.773438 C 15.589844 12.085938 14.773438 12.324219 13.914062 12.523438 C 13.855469 12.40625 13.796875 12.292969 13.738281 12.175781 C 14.332031 11.964844 14.925781 11.757812 15.523438 11.554688 C 15.773438 11.464844 15.773438 11.464844 16.03125 11.375 C 16.195312 11.320312 16.355469 11.261719 16.523438 11.207031 C 16.671875 11.152344 16.824219 11.101562 16.976562 11.046875 C 17.421875 10.949219 17.664062 10.984375 18.085938 11.128906 Z M 18.085938 11.128906 "/>
<path style=" stroke:none;fill-rule:nonzero;fill:rgb(13.333334%,13.333334%,13.333334%);fill-opacity:1;" d="M 15.304688 25.390625 C 15.675781 25.457031 15.675781 25.457031 16 25.566406 C 16.058594 25.792969 16.113281 26.023438 16.175781 26.261719 C 15.886719 26.261719 15.601562 26.261719 15.304688 26.261719 C 15.304688 26.375 15.304688 26.492188 15.304688 26.609375 C 15.535156 26.609375 15.761719 26.609375 16 26.609375 C 16 26.722656 16 26.839844 16 26.957031 C 15.152344 26.804688 15.152344 26.804688 14.957031 26.609375 C 14.925781 26.183594 14.925781 26.183594 14.957031 25.738281 C 15.070312 25.625 15.1875 25.507812 15.304688 25.390625 Z M 15.304688 25.390625 "/>
<path style=" stroke:none;fill-rule:nonzero;fill:rgb(27.058825%,27.058825%,27.058825%);fill-opacity:1;" d="M 9.042969 25.390625 C 9.332031 25.449219 9.617188 25.507812 9.914062 25.566406 C 9.914062 25.792969 9.914062 26.023438 9.914062 26.261719 C 9.625 26.261719 9.339844 26.261719 9.042969 26.261719 C 9.042969 26.375 9.042969 26.492188 9.042969 26.609375 C 9.332031 26.609375 9.617188 26.609375 9.914062 26.609375 C 9.796875 26.722656 9.683594 26.839844 9.566406 26.957031 C 9.195312 26.890625 9.195312 26.890625 8.871094 26.78125 C 8.761719 26.378906 8.761719 26.378906 8.695312 25.914062 C 8.808594 25.742188 8.925781 25.570312 9.042969 25.390625 Z M 9.042969 25.390625 "/>
<path style=" stroke:none;fill-rule:nonzero;fill:rgb(16.862746%,16.862746%,16.862746%);fill-opacity:1;" d="M 19.402344 0.792969 C 19.484375 0.875 19.566406 0.957031 19.652344 1.042969 C 19.152344 1.1875 18.875 1.257812 18.386719 1.054688 C 17.847656 0.84375 17.390625 0.796875 16.816406 0.761719 C 16.535156 0.742188 16.535156 0.742188 16.253906 0.722656 C 16.113281 0.714844 15.972656 0.703125 15.824219 0.695312 C 15.824219 0.636719 15.824219 0.582031 15.824219 0.523438 C 18.363281 0.160156 18.363281 0.160156 19.402344 0.792969 Z M 19.402344 0.792969 "/>
<path style=" stroke:none;fill-rule:nonzero;fill:rgb(29.019609%,29.019609%,29.019609%);fill-opacity:1;" d="M 18.445312 25.554688 C 18.699219 25.558594 18.699219 25.558594 18.957031 25.566406 C 18.957031 25.792969 18.957031 26.023438 18.957031 26.261719 C 18.667969 26.261719 18.382812 26.261719 18.085938 26.261719 C 18.085938 26.375 18.085938 26.492188 18.085938 26.609375 C 18.316406 26.609375 18.546875 26.609375 18.78125 26.609375 C 18.78125 26.722656 18.78125 26.839844 18.78125 26.957031 C 17.933594 26.804688 17.933594 26.804688 17.738281 26.609375 C 17.71875 26.175781 17.71875 26.175781 17.738281 25.738281 C 17.914062 25.566406 17.914062 25.566406 18.445312 25.554688 Z M 18.445312 25.554688 "/>
<path style=" stroke:none;fill-rule:nonzero;fill:rgb(94.117647%,94.117647%,94.117647%);fill-opacity:1;" d="M 18.261719 3.128906 C 18.433594 3.246094 18.605469 3.359375 18.78125 3.476562 C 18.726562 3.652344 18.667969 3.824219 18.609375 4 C 18.035156 4 17.460938 4 16.871094 4 C 16.925781 3.769531 16.984375 3.539062 17.042969 3.304688 C 17.484375 3.085938 17.773438 3.09375 18.261719 3.128906 Z M 18.261719 3.128906 "/>
<path style=" stroke:none;fill-rule:nonzero;fill:rgb(27.843139%,27.843139%,27.843139%);fill-opacity:1;" d="M 16.347656 25.390625 C 16.761719 25.371094 16.761719 25.371094 17.21875 25.390625 C 17.566406 25.738281 17.566406 25.738281 17.585938 26.371094 C 17.578125 26.5625 17.574219 26.757812 17.566406 26.957031 C 17.449219 26.957031 17.335938 26.957031 17.21875 26.957031 C 17.21875 26.554688 17.21875 26.152344 17.21875 25.738281 C 17.046875 25.738281 16.871094 25.738281 16.695312 25.738281 C 16.695312 26.140625 16.695312 26.542969 16.695312 26.957031 C 16.582031 26.957031 16.464844 26.957031 16.347656 26.957031 C 16.347656 26.441406 16.347656 25.921875 16.347656 25.390625 Z M 16.347656 25.390625 "/>
<path style=" stroke:none;fill-rule:nonzero;fill:rgb(16.470589%,16.470589%,16.470589%);fill-opacity:1;" d="M 21.566406 8.175781 C 21.621094 8.175781 21.679688 8.175781 21.738281 8.175781 C 21.792969 8.566406 21.792969 8.566406 21.738281 9.042969 C 21.179688 9.605469 20.539062 9.929688 19.824219 10.261719 C 19.824219 10.144531 19.824219 10.03125 19.824219 9.914062 C 19.710938 9.855469 19.597656 9.796875 19.476562 9.738281 C 19.570312 9.699219 19.664062 9.660156 19.757812 9.617188 C 20.5625 9.246094 21.046875 8.917969 21.566406 8.175781 Z M 21.566406 8.175781 "/>
<path style=" stroke:none;fill-rule:nonzero;fill:rgb(89.411765%,89.411765%,89.411765%);fill-opacity:1;" d="M 17.371094 5.871094 C 17.492188 5.875 17.613281 5.878906 17.738281 5.878906 C 17.921875 5.882812 17.921875 5.882812 18.109375 5.882812 C 18.433594 5.914062 18.433594 5.914062 18.78125 6.085938 C 18.78125 6.203125 18.78125 6.316406 18.78125 6.433594 C 18.53125 6.472656 18.28125 6.507812 18.03125 6.542969 C 17.894531 6.5625 17.753906 6.582031 17.609375 6.605469 C 17.21875 6.609375 17.21875 6.609375 16.695312 6.261719 C 17.042969 5.914062 17.042969 5.914062 17.371094 5.871094 Z M 17.371094 5.871094 "/>
<path style=" stroke:none;fill-rule:nonzero;fill:rgb(85.490197%,85.490197%,85.490197%);fill-opacity:1;" d="M 18.957031 4 C 19.070312 4 19.1875 4 19.304688 4 C 19.523438 4.4375 19.464844 4.671875 19.402344 5.152344 C 19.375 5.367188 19.375 5.367188 19.347656 5.582031 C 19.332031 5.691406 19.320312 5.800781 19.304688 5.914062 C 19.132812 5.855469 18.960938 5.796875 18.78125 5.738281 C 18.777344 5.480469 18.773438 5.226562 18.773438 4.96875 C 18.769531 4.824219 18.769531 4.679688 18.765625 4.535156 C 18.78125 4.175781 18.78125 4.175781 18.957031 4 Z M 18.957031 4 "/>
<path style=" stroke:none;fill-rule:nonzero;fill:rgb(93.725491%,93.725491%,93.725491%);fill-opacity:1;" d="M 16.347656 4 C 16.460938 4.058594 16.578125 4.113281 16.695312 4.175781 C 16.769531 4.535156 16.769531 4.535156 16.804688 4.96875 C 16.816406 5.109375 16.832031 5.253906 16.84375 5.402344 C 16.851562 5.515625 16.859375 5.625 16.871094 5.738281 C 16.699219 5.796875 16.523438 5.855469 16.347656 5.914062 C 16 5.390625 16 5.390625 16.054688 4.761719 C 16.175781 4.175781 16.175781 4.175781 16.347656 4 Z M 16.347656 4 "/>
<path style=" stroke:none;fill-rule:nonzero;fill:rgb(12.156863%,12.156863%,12.156863%);fill-opacity:1;" d="M 20.871094 12.695312 C 21.386719 12.890625 21.796875 13.082031 22.261719 13.390625 C 22.144531 13.390625 22.03125 13.390625 21.914062 13.390625 C 21.914062 13.507812 21.914062 13.621094 21.914062 13.738281 C 21.511719 13.738281 21.109375 13.738281 20.695312 13.738281 C 20.753906 13.394531 20.808594 13.050781 20.871094 12.695312 Z M 20.871094 12.695312 "/>
<path style=" stroke:none;fill-rule:nonzero;fill:rgb(6.666667%,6.666667%,6.666667%);fill-opacity:1;" d="M 16.121094 0.335938 C 16.242188 0.335938 16.363281 0.339844 16.488281 0.339844 C 16.789062 0.339844 17.089844 0.34375 17.390625 0.347656 C 17.390625 0.40625 17.390625 0.460938 17.390625 0.523438 C 17.21875 0.542969 17.042969 0.566406 16.863281 0.589844 C 16.640625 0.621094 16.414062 0.652344 16.183594 0.683594 C 15.960938 0.714844 15.738281 0.746094 15.507812 0.777344 C 14.980469 0.8125 14.980469 0.8125 14.78125 1.042969 C 14.492188 1.050781 14.203125 1.050781 13.914062 1.042969 C 14.484375 0.1875 15.175781 0.324219 16.121094 0.335938 Z M 16.121094 0.335938 "/>
<path style=" stroke:none;fill-rule:nonzero;fill:rgb(51.372552%,51.372552%,51.372552%);fill-opacity:1;" d="M 17.390625 12 C 17.683594 12.050781 17.972656 12.109375 18.261719 12.175781 C 18.144531 12.460938 18.03125 12.746094 17.914062 13.042969 C 17.625 13.042969 17.339844 13.042969 17.042969 13.042969 C 17.195312 12.195312 17.195312 12.195312 17.390625 12 Z M 17.390625 12 "/>
<path style=" stroke:none;fill-rule:nonzero;fill:rgb(28.235295%,28.235295%,28.235295%);fill-opacity:1;" d="M 10.085938 25.390625 C 10.195312 25.453125 10.300781 25.511719 10.414062 25.574219 C 10.535156 25.628906 10.65625 25.683594 10.78125 25.738281 C 10.898438 25.683594 11.011719 25.625 11.128906 25.566406 C 11.125 25.699219 11.125 25.832031 11.121094 25.96875 C 11.109375 26.453125 11.109375 26.453125 11.304688 26.957031 C 11.191406 26.957031 11.074219 26.957031 10.957031 26.957031 C 10.839844 26.839844 10.726562 26.726562 10.609375 26.609375 C 10.550781 26.722656 10.492188 26.839844 10.433594 26.957031 C 10.320312 26.957031 10.207031 26.957031 10.085938 26.957031 C 10.121094 26.796875 10.152344 26.632812 10.183594 26.46875 C 10.304688 25.910156 10.304688 25.910156 10.085938 25.390625 Z M 10.085938 25.390625 "/>
<path style=" stroke:none;fill-rule:nonzero;fill:rgb(1.568628%,1.568628%,1.568628%);fill-opacity:1;" d="M 16.347656 15.824219 C 16.636719 15.882812 16.921875 15.941406 17.21875 16 C 17.160156 16.285156 17.101562 16.574219 17.042969 16.871094 C 16.757812 16.8125 16.46875 16.753906 16.175781 16.695312 C 16.230469 16.410156 16.289062 16.121094 16.347656 15.824219 Z M 16.347656 15.824219 "/>
<path style=" stroke:none;fill-rule:nonzero;fill:rgb(13.333334%,13.333334%,13.333334%);fill-opacity:1;" d="M 18.609375 11.128906 C 18.316406 11.710938 17.808594 11.792969 17.21875 12 C 16.707031 11.945312 16.707031 11.945312 16.347656 11.824219 C 17.796875 10.859375 17.796875 10.859375 18.609375 11.128906 Z M 18.609375 11.128906 "/>
<path style=" stroke:none;fill-rule:nonzero;fill:rgb(12.941177%,12.941177%,12.941177%);fill-opacity:1;" d="M 22.261719 6.433594 C 22.316406 6.550781 22.375 6.664062 22.433594 6.78125 C 22.550781 6.78125 22.664062 6.78125 22.78125 6.78125 C 22.691406 7.566406 22.371094 8.058594 21.914062 8.695312 C 21.707031 8.097656 21.773438 7.761719 21.988281 7.175781 C 22.039062 7.035156 22.089844 6.894531 22.140625 6.753906 C 22.179688 6.648438 22.21875 6.542969 22.261719 6.433594 Z M 22.261719 6.433594 "/>
<path style=" stroke:none;fill-rule:nonzero;fill:rgb(12.156863%,12.156863%,12.156863%);fill-opacity:1;" d="M 12 5.566406 C 12.171875 5.566406 12.34375 5.566406 12.523438 5.566406 C 12.523438 5.738281 12.523438 5.910156 12.523438 6.085938 C 12.695312 6.085938 12.867188 6.085938 13.042969 6.085938 C 13.042969 5.914062 13.042969 5.742188 13.042969 5.566406 C 13.214844 5.566406 13.386719 5.566406 13.566406 5.566406 C 13.414062 6.238281 13.414062 6.238281 13.21875 6.433594 C 12.792969 6.46875 12.792969 6.46875 12.347656 6.433594 C 12.234375 6.320312 12.117188 6.207031 12 6.085938 C 12 5.914062 12 5.742188 12 5.566406 Z M 12 5.566406 "/>
<path style=" stroke:none;fill-rule:nonzero;fill:rgb(9.019608%,9.019608%,9.019608%);fill-opacity:1;" d="M 7.128906 25.042969 C 7.246094 25.042969 7.359375 25.042969 7.476562 25.042969 C 7.761719 25.390625 7.761719 25.390625 8 25.738281 C 7.941406 25.855469 7.886719 25.96875 7.824219 26.085938 C 7.769531 26.03125 7.710938 25.972656 7.652344 25.914062 C 7.59375 26.257812 7.539062 26.601562 7.476562 26.957031 C 7.363281 26.957031 7.25 26.957031 7.128906 26.957031 C 7.128906 26.324219 7.128906 25.695312 7.128906 25.042969 Z M 7.128906 25.042969 "/>
<path style=" stroke:none;fill-rule:nonzero;fill:rgb(4.705882%,4.705882%,4.705882%);fill-opacity:1;" d="M 13.738281 12 C 13.738281 12.113281 13.738281 12.230469 13.738281 12.347656 C 12.957031 12.738281 12.335938 12.726562 11.476562 12.695312 C 11.535156 12.582031 11.59375 12.464844 11.652344 12.347656 C 12.398438 12.128906 12.957031 12 13.738281 12 Z M 13.738281 12 "/>
<path style=" stroke:none;fill-rule:nonzero;fill:rgb(91.764706%,91.764706%,91.764706%);fill-opacity:1;" d="M 9.914062 25.738281 C 10.085938 25.796875 10.257812 25.855469 10.433594 25.914062 C 10.347656 26.289062 10.261719 26.609375 10.085938 26.957031 C 9.738281 26.839844 9.390625 26.726562 9.042969 26.609375 C 9.042969 26.492188 9.042969 26.378906 9.042969 26.261719 C 9.332031 26.261719 9.617188 26.261719 9.914062 26.261719 C 9.914062 26.089844 9.914062 25.917969 9.914062 25.738281 Z M 9.914062 25.738281 "/>
<path style=" stroke:none;fill-rule:nonzero;fill:rgb(21.176471%,21.176471%,21.176471%);fill-opacity:1;" d="M 11.476562 25.21875 C 11.707031 25.273438 11.9375 25.332031 12.175781 25.390625 C 12.175781 25.507812 12.175781 25.621094 12.175781 25.738281 C 12.058594 25.738281 11.945312 25.738281 11.824219 25.738281 C 11.824219 26.027344 11.824219 26.3125 11.824219 26.609375 C 12 26.609375 12.171875 26.609375 12.347656 26.609375 C 12.347656 26.722656 12.347656 26.839844 12.347656 26.957031 C 11.675781 26.804688 11.675781 26.804688 11.476562 26.609375 C 11.453125 26.144531 11.472656 25.683594 11.476562 25.21875 Z M 11.476562 25.21875 "/>
<path style=" stroke:none;fill-rule:nonzero;fill:rgb(3.529412%,3.529412%,3.529412%);fill-opacity:1;" d="M 19.824219 9.914062 C 19.824219 10.027344 19.824219 10.144531 19.824219 10.261719 C 19.609375 10.347656 19.390625 10.4375 19.175781 10.523438 C 19.054688 10.570312 18.933594 10.617188 18.808594 10.667969 C 18.433594 10.78125 18.433594 10.78125 17.738281 10.78125 C 17.738281 10.667969 17.738281 10.554688 17.738281 10.433594 C 17.957031 10.347656 18.171875 10.261719 18.390625 10.175781 C 18.511719 10.125 18.632812 10.078125 18.757812 10.027344 C 19.128906 9.914062 19.128906 9.914062 19.824219 9.914062 Z M 19.824219 9.914062 "/>
<path style=" stroke:none;fill-rule:nonzero;fill:rgb(12.54902%,12.54902%,12.54902%);fill-opacity:1;" d="M 20.695312 12.523438 C 20.1875 12.867188 19.976562 12.867188 19.347656 12.804688 C 19.160156 12.769531 18.976562 12.734375 18.78125 12.695312 C 18.839844 12.523438 18.898438 12.351562 18.957031 12.175781 C 19.683594 11.933594 20.023438 12.203125 20.695312 12.523438 Z M 20.695312 12.523438 "/>
<path style=" stroke:none;fill-rule:nonzero;fill:rgb(21.568628%,21.568628%,21.568628%);fill-opacity:1;" d="M 9.390625 7.304688 C 9.648438 7.476562 9.648438 7.476562 9.914062 7.652344 C 9.914062 7.765625 9.914062 7.882812 9.914062 8 C 10.257812 8.113281 10.601562 8.230469 10.957031 8.347656 C 10.785156 8.433594 10.785156 8.433594 10.609375 8.523438 C 10.550781 8.695312 10.492188 8.867188 10.433594 9.042969 C 10.433594 8.871094 10.433594 8.699219 10.433594 8.523438 C 10.292969 8.496094 10.15625 8.472656 10.011719 8.445312 C 9.566406 8.347656 9.566406 8.347656 9.390625 8.175781 C 9.382812 7.882812 9.382812 7.59375 9.390625 7.304688 Z M 9.390625 7.304688 "/>
<path style=" stroke:none;fill-rule:nonzero;fill:rgb(5.490196%,5.490196%,5.490196%);fill-opacity:1;" d="M 10.78125 6.085938 C 10.839844 6.257812 10.898438 6.429688 10.957031 6.609375 C 10.707031 6.964844 10.707031 6.964844 10.359375 7.335938 C 10.242188 7.460938 10.128906 7.585938 10.011719 7.714844 C 9.921875 7.808594 9.832031 7.902344 9.738281 8 C 9.628906 7.6875 9.628906 7.6875 9.566406 7.304688 C 10.257812 6.347656 10.257812 6.347656 10.78125 6.085938 Z M 10.78125 6.085938 "/>
<path style=" stroke:none;fill-rule:nonzero;fill:rgb(17.647059%,17.647059%,17.647059%);fill-opacity:1;" d="M 18.78125 5.738281 C 18.953125 5.796875 19.128906 5.855469 19.304688 5.914062 C 19.304688 6.085938 19.304688 6.257812 19.304688 6.433594 C 19.476562 6.492188 19.648438 6.550781 19.824219 6.609375 C 19.652344 6.722656 19.480469 6.839844 19.304688 6.957031 C 18.75 6.804688 18.75 6.804688 18.261719 6.609375 C 18.433594 6.550781 18.605469 6.492188 18.78125 6.433594 C 18.78125 6.320312 18.78125 6.207031 18.78125 6.085938 C 18.667969 6.03125 18.554688 5.972656 18.433594 5.914062 C 18.550781 5.855469 18.664062 5.796875 18.78125 5.738281 Z M 18.78125 5.738281 "/>
<path style=" stroke:none;fill-rule:nonzero;fill:rgb(24.705882%,24.705882%,24.705882%);fill-opacity:1;" d="M 8.175781 25.042969 C 8.289062 25.042969 8.402344 25.042969 8.523438 25.042969 C 8.523438 25.675781 8.523438 26.304688 8.523438 26.957031 C 8 26.433594 8 26.433594 7.988281 26.078125 C 8.050781 25.734375 8.113281 25.390625 8.175781 25.042969 Z M 8.175781 25.042969 "/>
<path style=" stroke:none;fill-rule:nonzero;fill:rgb(9.019608%,9.019608%,9.019608%);fill-opacity:1;" d="M 13.738281 12.523438 C 13.910156 12.578125 14.082031 12.636719 14.261719 12.695312 C 14.261719 12.925781 14.261719 13.15625 14.261719 13.390625 C 14.375 13.449219 14.492188 13.507812 14.609375 13.566406 C 14.492188 13.679688 14.378906 13.792969 14.261719 13.914062 C 14.089844 13.914062 13.917969 13.914062 13.738281 13.914062 C 13.738281 13.453125 13.738281 12.996094 13.738281 12.523438 Z M 13.738281 12.523438 "/>
<path style=" stroke:none;fill-rule:nonzero;fill:rgb(14.509805%,14.509805%,14.509805%);fill-opacity:1;" d="M 16.347656 7.476562 C 16.980469 7.59375 17.609375 7.707031 18.261719 7.824219 C 18.261719 7.882812 18.261719 7.941406 18.261719 8 C 16.769531 8.25 16.769531 8.25 16.175781 7.824219 C 16.230469 7.710938 16.289062 7.597656 16.347656 7.476562 Z M 16.347656 7.476562 "/>
<path style=" stroke:none;fill-rule:nonzero;fill:rgb(7.843138%,7.843138%,7.843138%);fill-opacity:1;" d="M 19.128906 1.042969 C 19.957031 1.117188 20.332031 1.273438 20.871094 1.914062 C 20.183594 1.816406 19.703125 1.609375 19.128906 1.21875 C 19.128906 1.160156 19.128906 1.101562 19.128906 1.042969 Z M 19.128906 1.042969 "/>
<path style=" stroke:none;fill-rule:nonzero;fill:rgb(40.392157%,40.392157%,40.392157%);fill-opacity:1;" d="M 15.304688 25.390625 C 15.535156 25.449219 15.761719 25.507812 16 25.566406 C 16.058594 25.792969 16.113281 26.023438 16.175781 26.261719 C 15.886719 26.261719 15.601562 26.261719 15.304688 26.261719 C 15.304688 25.972656 15.304688 25.6875 15.304688 25.390625 Z M 15.304688 25.390625 "/>
<path style=" stroke:none;fill-rule:nonzero;fill:rgb(90.980393%,90.980393%,90.980393%);fill-opacity:1;" d="M 10.957031 25.390625 C 11.128906 25.390625 11.300781 25.390625 11.476562 25.390625 C 11.535156 25.851562 11.59375 26.308594 11.652344 26.78125 C 11.480469 26.867188 11.480469 26.867188 11.304688 26.957031 C 10.90625 26.359375 10.925781 26.089844 10.957031 25.390625 Z M 10.957031 25.390625 "/>
<path style=" stroke:none;fill-rule:nonzero;fill:rgb(25.490198%,25.490198%,25.490198%);fill-opacity:1;" d="M 19.128906 25.566406 C 19.417969 25.566406 19.703125 25.566406 20 25.566406 C 19.886719 25.679688 19.769531 25.792969 19.652344 25.914062 C 19.582031 26.257812 19.523438 26.605469 19.476562 26.957031 C 19.363281 26.957031 19.25 26.957031 19.128906 26.957031 C 19.128906 26.496094 19.128906 26.039062 19.128906 25.566406 Z M 19.128906 25.566406 "/>
<path style=" stroke:none;fill-rule:nonzero;fill:rgb(6.666667%,6.666667%,6.666667%);fill-opacity:1;" d="M 16.871094 4.523438 C 17.207031 5.027344 17.296875 5.324219 17.390625 5.914062 C 17.046875 6.085938 17.046875 6.085938 16.695312 6.261719 C 16.753906 5.6875 16.808594 5.113281 16.871094 4.523438 Z M 16.871094 4.523438 "/>
<path style=" stroke:none;fill-rule:nonzero;fill:rgb(29.411766%,29.411766%,29.411766%);fill-opacity:1;" d="M 11.128906 11.304688 C 11.1875 11.304688 11.246094 11.304688 11.304688 11.304688 C 11.304688 11.589844 11.304688 11.878906 11.304688 12.175781 C 11.707031 12.175781 12.109375 12.175781 12.523438 12.175781 C 12.523438 12.230469 12.523438 12.289062 12.523438 12.347656 C 12.121094 12.460938 11.71875 12.578125 11.304688 12.695312 C 11.054688 12.285156 10.941406 12.089844 11.023438 11.609375 C 11.058594 11.507812 11.09375 11.40625 11.128906 11.304688 Z M 11.128906 11.304688 "/>
<path style=" stroke:none;fill-rule:nonzero;fill:rgb(16.470589%,16.470589%,16.470589%);fill-opacity:1;" d="M 16.175781 5.566406 C 16.230469 5.679688 16.289062 5.792969 16.347656 5.914062 C 16.460938 5.914062 16.578125 5.914062 16.695312 5.914062 C 16.695312 6.085938 16.695312 6.257812 16.695312 6.433594 C 16.867188 6.492188 17.039062 6.550781 17.21875 6.609375 C 16.988281 6.667969 16.757812 6.722656 16.523438 6.78125 C 16.523438 6.667969 16.523438 6.554688 16.523438 6.433594 C 16.347656 6.378906 16.175781 6.320312 16 6.261719 C 16.058594 6.03125 16.113281 5.800781 16.175781 5.566406 Z M 16.175781 5.566406 "/>
<path style=" stroke:none;fill-rule:nonzero;fill:rgb(9.411765%,9.411765%,9.411765%);fill-opacity:1;" d="M 15.652344 4.347656 C 15.765625 4.347656 15.882812 4.347656 16 4.347656 C 16.058594 4.863281 16.113281 5.382812 16.175781 5.914062 C 16.058594 5.914062 15.945312 5.914062 15.824219 5.914062 C 15.570312 5.398438 15.640625 4.914062 15.652344 4.347656 Z M 15.652344 4.347656 "/>
<path style=" stroke:none;fill-rule:nonzero;fill:rgb(92.156863%,92.156863%,92.156863%);fill-opacity:1;" d="M 23.652344 25.738281 C 23.824219 25.738281 23.996094 25.738281 24.175781 25.738281 C 24.175781 26.027344 24.175781 26.3125 24.175781 26.609375 C 23.945312 26.550781 23.714844 26.492188 23.476562 26.433594 C 23.535156 26.207031 23.59375 25.976562 23.652344 25.738281 Z M 23.652344 25.738281 "/>
<path style=" stroke:none;fill-rule:nonzero;fill:rgb(68.235296%,68.235296%,68.235296%);fill-opacity:1;" d="M 20.175781 25.566406 C 20.605469 25.738281 20.605469 25.738281 21.042969 25.914062 C 20.984375 26.144531 20.929688 26.371094 20.871094 26.609375 C 20.699219 26.550781 20.523438 26.492188 20.347656 26.433594 C 20.347656 26.320312 20.347656 26.207031 20.347656 26.085938 C 20.289062 25.914062 20.234375 25.742188 20.175781 25.566406 Z M 20.175781 25.566406 "/>
<path style=" stroke:none;fill-rule:nonzero;fill:rgb(74.509805%,74.509805%,74.509805%);fill-opacity:1;" d="M 20.695312 13.21875 C 21.207031 13.28125 21.207031 13.28125 21.738281 13.390625 C 21.796875 13.507812 21.855469 13.621094 21.914062 13.738281 C 21.511719 13.738281 21.109375 13.738281 20.695312 13.738281 C 20.695312 13.566406 20.695312 13.394531 20.695312 13.21875 Z M 20.695312 13.21875 "/>
<path style=" stroke:none;fill-rule:nonzero;fill:rgb(18.039216%,18.039216%,18.039216%);fill-opacity:1;" d="M 14.78125 11.652344 C 14.839844 11.765625 14.898438 11.882812 14.957031 12 C 14.371094 12.109375 14.371094 12.109375 13.738281 12.175781 C 13.625 12.058594 13.507812 11.945312 13.390625 11.824219 C 14.390625 11.457031 14.390625 11.457031 14.78125 11.652344 Z M 14.78125 11.652344 "/>
<path style=" stroke:none;fill-rule:nonzero;fill:rgb(16.862746%,16.862746%,16.862746%);fill-opacity:1;" d="M 20.695312 4.523438 C 20.753906 4.523438 20.808594 4.523438 20.871094 4.523438 C 21.085938 5.847656 21.085938 5.847656 20.695312 6.433594 C 20.511719 5.742188 20.550781 5.21875 20.695312 4.523438 Z M 20.695312 4.523438 "/>
</g>
</svg>
